<svg xmlns="http://www.w3.org/2000/svg" version="1.1" x="0" y="0" viewBox="0 0 609.3 447.9" xml:space="preserve"><style type="text/css">
	.st0{fill:#191A33;}
	.st1{fill:none;}
</style><path class="st0" d="M64.5 111.6c1.6 0.2 3.1 0.3 4.7 0.6 -0.9-6.2-3.7-11.9-6-17.7 -0.9-2.4-1.7-4.8-2.7-7.1 -8.1-6.5-22.3-5.6-32-5.2 -6.4 0.2-12.9 0.7-19.3 1.8 5.9 7 15.4 16.2 30.8 27.1l0.1 0.1C48.4 110.6 56.6 110.8 64.5 111.6z"/><path class="st0" d="M178.2 141.1L178.2 141.1c-13.5-7.4-27-14.1-39.4-22.6 0.2 3.8-0.9 8-2.3 11.1 -0.9 1.9-2.3 3.6-4.1 4.8 -1.1 0.7-2.7 0.9-3.6 1.7 -2.1 1.7-1.2 4-0.7 6.2 1.7 0.8 3.3 1.5 5.1 2.1 14.9 5.4 30.9 4.1 46.4 2.5 -0.6-1.2-1-2.4-1.2-3.7C178.2 142.5 178.2 141.8 178.2 141.1z"/><path class="st0" d="M91.9 131.2c-4.5-3.6-8.4-7.9-13-11.4 -4.4-3.4-10.1-4.1-15.5-4.5 -6.4-0.6-13.1-0.8-19.8-0.5 5.4 6 15.3 17.9 17.5 25.9 0 0 0 0.1 0.1 0.3 3.6-1.4 7.3-2.7 11-4C78.5 134.7 85.1 132.5 91.9 131.2z"/><path class="st0" d="M57.9 81.5c-0.6-1.1-1.2-2.1-2-3.1 -3-4-7.9-6.1-10.7-10.1 -2.6-3.7-1.4-6.9-2-10.9 -0.7-5.1-5-10.8-7.4-15.1 -0.2-0.3-0.3-0.6-0.5-0.9 -2 0.3-3.9 0.6-5.7 1.1 0 0-30.2 4.9-29.6 26.5 0 0 0.9 4.1 6.6 11.5 8.1-1.5 16.5-2.1 24.6-2.2C39.5 78.1 49.8 78 57.9 81.5z"/><path class="st0" d="M46.8 60.4c0 4.4 2.3 6.6 5.6 9.1 3.6 2.7 6.6 6.2 8.8 10.1 0.1-0.1 0.2-0.3 0.4-0.4 17.1-12.2 37-1.4 50.9 10.9 1.8-0.8 3.7-1.7 5.6-2.2 1.8-0.4 3.6-0.8 5.5-1 -3.1-2.6-6.1-5.3-8.6-8.5 -2.3-3-4.1-6.2-6.9-8.7 -4.3-3.9-9.8-6.6-15.1-9.1C81.3 55.1 68.7 51 57.9 43.8c-1.1-0.7-2.2-1.5-3.2-2.4 -5.2-0.6-10.3-0.8-15.1-0.4 2.7 4.6 6.5 10.1 7.4 15.3C47.1 57.7 46.8 59 46.8 60.4z"/><path class="st0" d="M100 130.2c4.1-0.2 7 1 10.7 2.8 4.4 2.2 8.7 4.8 13.1 7.1 -0.4-2.4-0.3-4.9 1.9-6.6 2.9-2.3 6.3-2.5 7.7-6.4 1-2.8 2.2-8.8 1.1-11.3 -0.1-0.1-0.1-0.3-0.1-0.4 -4.5-3.3-8.7-7-12.8-11 -3.1-3.1-6.5-6.5-10.2-10 -1.7 0.7-3.4 1.3-5.3 1.4 -4.4 0.3-9.1-0.4-13.5-0.7 -6.4-0.5-12.8-1-19.2-1.8 -2.2-0.3-4.6-0.4-6.9-0.8 0.4 1.1 0.8 2.3 1.3 3.4 2.3 5.6 4.5 11 5.3 17 2.3 0.6 4.5 1.4 6.5 2.7 6.4 4.2 11.1 10.6 17.5 14.8C98.1 130.3 99 130.2 100 130.2z"/><path class="st1" d="M257.3 136.7L257.3 136.7"/><path class="st0" d="M94.7 91.5c3.8 0.3 8.1 1 11.9 0.5 0.6-0.1 1.2-0.2 1.8-0.4 -13.1-11.2-29.3-20.3-44.9-9.2 -0.2 0.2-0.5 0.3-0.7 0.3 0.8 1.8 1.6 3.7 2.3 5.6 3.4 1.4 8.2 1.3 11.7 1.7C82.8 90.6 88.7 91.1 94.7 91.5z"/><path class="st0" d="M148.1 120.5c10 6 20.4 11.1 30.6 16.7 0.8-3 2.6-5.7 4.8-7.9 -0.6-0.2-1.2-0.3-1.8-0.5 -10.2-2.8-18-9.6-26.1-16.1 -9.2-7.4-18.4-14.8-27.6-22.2 -4.3-0.2-8.6 0.6-12.6 2.2 0.6 0.6 1.2 1.1 1.8 1.7C126.9 104.1 136.2 113.3 148.1 120.5z"/><path class="st0" d="M173.3 177.3c-3.8-0.1-6.5 0.3-10.2 0.9 -5.5 0.8-11 1-16.6 1.1 -0.1 0-0.3 0-0.4 0 -3 3.5-6.8 6.6-9.6 10.1l0 0c9.4-1.5 18.8-2.6 28.3-2.1 12.7 0.6 24.4 1.8 36.9-1.5 6.4-1.6 12.6-3.6 18.9-5.5 -5.9-0.7-12-0.7-17.6-1.1C193 178.5 183.2 177.7 173.3 177.3z"/><path class="st0" d="M166.9 201.4c-2.6-1.3-5.7-1.9-8-3.8 -2.1-1.7-3.1-4.4-5.5-5.8 -0.2-0.1-0.4-0.3-0.5-0.5 -6.3 0.4-12.6 1.3-18.9 2.3 -0.6 1-1.2 1.9-2.1 2.6 -2.7 2.4-5.3 4.9-7.9 7.4 -2.8 2.7-6.3 6-10.1 8.4 7.8 2.2 14.2 3.1 14.2 3.1 5.7 0 8.1 1.7 8.1 1.7 7.1 4.9 13.6 8 19.1 9.9 7.6-5.8 16.3-10.2 25.3-14.1C176.6 208.9 171.4 203.6 166.9 201.4z"/><path class="st0" d="M124.5 197.8c2.1-2.1 4.8-4 6.5-6.4 0.1-0.3 0.3-0.6 0.6-0.9 1.2-1.9 2.1-3.6 3.9-5.3 1.9-1.8 3.7-3.7 5.4-5.6 -8.6 0.3-17.1 0.9-25.7 0.9 -5.6 0-11.2-0.1-16.8-0.4 -1.9-0.1-4-0.1-6.1-0.4 -5.8 3.8-6.4 7.5-6.4 7.5 -2.6 12 10.9 19.4 23.4 23.6C115.2 207.9 120.9 201.4 124.5 197.8z"/><path class="st0" d="M454.2 116.2c-5.8 3.5-11.8 6.7-18.3 8.7 -6.9 2.2-14.2 3-21.2 4.9 -4.6 1.3-9.2 2.8-13.7 4.4 25.6 1.3 51.1-4 74.4-14.8 12.6-5.8 24.5-13.1 35.3-21.7 5.5-4.3 11.4-9 15.2-14.9 0.5-0.8 1-1.7 1.5-2.6 0.1-0.4 0.2-0.9 0.6-1.2 0.8-1.9 1.3-4 1.2-6.1 -0.2-2.8-1.7-7.5-5-7.9 -0.6 0.2-1.2 0.4-1.8 0.6 -5.2 1.7-10.4 3.4-15.1 6.3 -4.4 2.7-8.3 6.1-12.2 9.3 -6.9 5.7-14.7 10-22.1 15 -0.1 0.1-0.2 0.1-0.3 0.2 -0.8 3.4-1.9 6.8-3.9 9.4C465.3 110.3 458.9 113.3 454.2 116.2z"/><path class="st0" d="M591.4 89.8c-5.2 4.3-10.1 9-15.1 13.5 -3.8 3.4-7.8 7.3-12.5 9.4 -2.9 1.3-6.1 1.5-9.2 1.7 -5.5 0.4-10.9 0.7-16.4 1 -0.1 0-0.3 0-0.4 0 -1.7 1.6-3.5 3.2-5.2 4.8 -4.7 4.3-9.4 8.7-14 13 3.2-0.8 6.5-1.5 9.8-2 13.9-2.3 29.1-2.7 42.1-8.5 13-17.2 22.3-28.8 28.9-39C596.4 85.5 593.7 87.8 591.4 89.8z"/><path class="st0" d="M552.4 84.7c3.6-3.9 8.9-5.6 13.7-7.6 14.7-6.3 26.7-15.3 36-27.6 -6.5-3.8-16.5-5.3-26-5.8 -5.4 3.8-11.3 6.9-17.4 9.5 -2.7 2.3-5.1 5.9-5.2 8.4 -0.2 4.7 2.6 9 0.6 13.7 -3.8 9.2-15.5 6.7-23.5 6.9 -0.9 1.7-2 3.4-3.2 4.9 -9.6 12.4-24.9 22.1-38.5 29.6 -1.7 0.9-3.3 1.8-5 2.7 0.4 0.3 0.7 0.8 0.6 1.5 -0.8 5.9-7.7 7.1-8.6 12.9 -0.8 5.2 4.1 5.3 7.2 7.8 1.6 1.2 2.2 2.5 2.4 4.3 3.9-0.4 7.7-1.1 11.3-2.8 4-1.9 7.6-4.5 11.7-6.4 0.5-0.2 1-0.4 1.5-0.6 0-0.1 0.1-0.1 0.1-0.2 6.6-6.1 13.2-12.2 19.7-18.3 5.6-5.1 11.4-10.1 14.6-17.1C547 95.2 548.4 89.2 552.4 84.7z"/><path class="st0" d="M551.3 56.2c-7.4 2.7-14.9 5-22.3 7.4 2 1.9 3.2 4.8 3.8 7.5 0.5 2.5 0.2 5-0.5 7.4 5.7 0.2 12.6 1.5 16.9-2.4 4.8-4.3-0.3-11.3 0.9-16.6C550.2 58.4 550.7 57.3 551.3 56.2z"/><path class="st0" d="M473.8 91c0 0.1 0 0.2-0.1 0.3 7.4-4.9 14.9-9.6 21.8-15.3 6.9-5.7 13.8-9.9 22.2-12.8 1.7-0.6 3.3-1.1 5-1.7 0.2-0.1 0.5-0.2 0.8-0.2 11.2-3.6 22.8-6.9 33.6-11.6 1.6-1.1 3.3-1.9 4.8-2.2 2.6-1.3 5.1-2.6 7.5-4.1 -10.2-0.1-18.4 0.9-18.4 0.9 -20.7 1.5-52.3 17.2-74.8 30C475.7 79.9 475 85.5 473.8 91z"/><path class="st0" d="M605.1 51.7c-9.3 12.4-21.3 21.8-35.9 28.1 -4.6 2-10.1 3.5-13.6 7.1 -4.8 4.9-5.7 12.3-9 18.1 -1.4 2.4-3 4.5-4.9 6.6 4.6-0.3 9.1-0.5 13.7-0.9 3.7-0.3 6.4-0.8 9.4-2.8 5.1-3.4 9.6-7.8 14.1-12 6.4-5.9 14.8-15.2 24-17.9 2-3.6 3.7-7.2 5.1-10.8C610.6 60.2 609 55.2 605.1 51.7z"/><path class="st0" d="M420.2 145.7c20.1 0.2 40.3 0.9 60.5 0.4 0.4 0 0.8 0 1.1 0 -0.7-2.4-6.4-3.6-8-5.6 -1.5-1.8-1.9-4-1.7-6.3 0.2-2.5 1.1-4.9 2.7-6.9s5.5-3.6 6-6.3c-26.8 13.1-56.9 19.4-86.8 16.5 -0.4 0-0.7-0.2-1-0.4 -7.7 2.9-15.4 5.8-23.2 8.2C386.7 145.5 403.5 145.6 420.2 145.7z"/><path class="st0" d="M501.3 191.1c6.3-2.2 12.4-5 18.4-7.9 -3.1-2.2-7.9-4.3-15.2-5.7 -3.8 1.2-7.4 2.7-10.8 4.8 -2.5 1.5-4.8 3.8-7.5 5 -3.1 1.4-6.7 0.9-10 1.5 -1.3 0.2-2.5 0.5-3.7 0.7 0.5 0.1 0.8 0.4 1 0.7 5.3 1.4 10.6 3.4 16.1 3.4C493.6 193.7 497.6 192.3 501.3 191.1z"/><path class="st0" d="M522.7 185.9c-7.1 3.4-14.2 6.8-21.7 9.3 -4 1.3-8.2 2.5-12.4 2.3 -6.3-0.2-12.3-2.7-18.4-4 -7.3 0.3-14.7 0.5-22 0.5 1.7 2 3 4.2 4.6 6.4 3.4 4.7 8.7 6.3 14.1 8 0.2 0.1 0.4 0.2 0.5 0.3 9.7-0.8 19.3-0.2 28.1 4.3 3.1-0.7 7-1.4 11.7-1.7 0 0 22.3-2.8 18.3-20C525.4 191 525.3 188.7 522.7 185.9z"/><path class="st0" d="M536.9 133.8c-6.1 0.8-12.3 1.8-18.3 3.4 -6.7 1.8-12.1 5.1-18.2 8.3 -13 6.9-29.5 4.4-43.7 4.2 -30.8-0.2-61.6-0.5-92.4-0.7 -0.7-1.8-1.4-3.6-2.2-5.4 21.8-5.3 42.2-15.8 64.4-20.2 13.3-2.7 25-9.3 36-17 5.4-3.8 6.5-10.2 7.7-16.3 0.9-4.4 1.6-8.9 2.1-13.4 -13.6 7.8-23 14-23 14 -64.2 42-90.1 46.9-90.1 46.9s2-4.4 2.7-9.9c21.3-17.5 34.1-36.1 38.1-42.5 3.8-4 2.1-5.4 2.1-5.4 -1-1.6 1-6.4 1-6.4 6.6-17.1 3-36 3-36 -0.3 0-0.6 0-1-0.1V34c0 0 7-0.7 7.6-4.1 0 0 0.4-2.4-1.5-2.2 0 0-2 1.7-3 1.3 -1.1-0.4 0.8-2.6 0.8-2.6s9.4-2.2 9.4-5.4c0 0-1.7-1.3-3.9 0 0 0-0.9 1.7-2.7 1.3l1.7-2.8c0 0 9.9-0.7 8.4-6.6 0 0-1.6-2-3.9 1.2 0 0-1 0.5-1.5 0.3 0 0 4.2-6 5.7-6.4 0 0 2.8 0.5 3.5-0.4 0 0 1.7 1.3 0.9 3.1 0 0-0.3 0.1 0.2 1.2 3 2.2 4-2 3.4-0.1 0 0 3.3-5.7-3.9-9.4 0 0-7.5-5.7-10.3 0.6 0 0-0.5 1 0.3 1.4 0 0 1.8 1.3 3.5 0.6 0 0-3.9 4.1-6.4 8.2 0 0-1.5-1.3 0-2.8 0 0 0.5-1.4-0.8-2 0 0-3.7-1.8-2.8 7 0 0 0.7 0.8 1.7 0.7 0 0-1.8 4.4-3 5.2 0 0-2.5-0.6-2.5-2 0 0 1.4-3.5-0.6-3.7 0 0-3.8-0.9-1.2 8.6 0 0 1 0.8 1.8 1.2 0 0-0.6 1.5-1.1 2.2 0 0-2.3-0.2-2.1-2.8 0 0-0.3-2.3-3-0.6 0 0-1.5 2.4 0 6.3 0 0 1.1 2.1 2.3 2.3 0 0-0.1 1.8-0.4 3.3 -1.1-0.6-1.7-1.2-1.7-1.2 -8.4 15-11.3 36.4-11.3 36.4 -0.7 2.4-1.2 4.3-0.7 6.9 -5.1-0.1-8.9 3.1-8.9 3.1 -11.8 7.7-20.5 20-26 27.8 -0.8-0.4-1.6-0.8-2.6-1.2 0 0 13-18.1-6.2-25.4 0 0-2.7-11-12.8-18.8 9-12.3 6.7-22.1 6.7-22.1 2.4 2.6 12.5-7.1 12.5-7.1 5.9-1.2 12-8 12-8 2.4 1.4 13.2-5.7 13.2-5.7 14.4-6.4 9.4-9 9.4-9 -2.1-3.1-12.5 5.9-12.5 5.9 -3.3-1.7-12.5 7.3-12.5 7.3 -2.1-3.1-13 5.9-13 5.9 -5.4 0.7-11.6 8-11.6 8 -3.7-1.1-5.8 14.9-9.2 21.6 -4.7-2.5-10.6-4.3-17.9-4.6 0 0-10.3-0.9-20 2.7 -3.3-5.9-10.6-13.9-10.6-13.9 -3.9-5.1-4.1-5.1-4.1-5 -1-5-14.3-8.9-14.3-8.9 1.1-3.8-11.2-7.5-11.2-7.5 -7.8-5.7-12.7-5.9-12.7-5.9 -4.2-4.5-5.2-1.4-5.2-1.4 0.9 4.5 6.8 3.9 6.8 3.9 1.9 4.9 10.4 8.1 10.4 8.1 2.6 5.4 13.9 7.3 13.9 7.3 0.9 4 10.6 7.7 10.6 7.7 0 1.9 5.7 10.4 5.7 10.4 1.2 3.6 4.1 6 6 7.3 -5.6 3.2-10.3 8.4-11.5 16.9 0 0-21.8 4.8-11.1 26.5 0 0 0.9 1.5 4.2 3.6 0 0-2.2 1.1-4.8 3.4 -8.9-15.7-17-23.6-17-23.6 -7.8-7.6-13.5-7.1-13.5-7.1 -2.6 0.1-3.6 1-5.2 1.7 -4.2-35.6-11.5-44.9-11.5-44.9 -2.8-1.2-5.1-1.2-7-0.7 -0.1-0.9-0.2-1.9-0.1-2.6 0 0 0.6-1.4-0.2-5.9 0 0-1.4-2.9-1-6.5 0 0 0-1-0.9-1.2 -0.9-0.2-1.4 2.5-2.1 8.1 0 0-1.3 0.3-1.4-1.1 -0.1-1.5 1.2-7.8 0.1-9.7 0 0-2.6-3.3-3.3 4.6 0 0 0.1 3-1.2 1s-0.6-9-2.8-11.4c0 0-4.1-3-2.7 5 0 0-1.9-0.3-5.1-4.2 0 0-4-3.3-3.3-5.3 0 0 0.3-1.7 1.6-1.9 0 0 2.4 1.2 2.8 0.1 0 0 1-1.3-1.6-2.4 0 0-1.3 0.2-4.6-0.8 0 0-3.7-1.1-5.9 10.2 0 0-2.7 4.6 1.1 4.3 0 0 1.1-2.4 3-3.8 0 0 7.2 4.6 8.1 6.5 0 0-4.6-0.3-4.8 1.1 0 0-1.6 2.9 4 3.2 0 0 7.3 0 8.6 3 0 0-5.7-0.8-8 0.8 0 0-2.9 2.2 9.2 4 0 0 3.5 0.2 3.5 0.8 0 0-2.1 1-4.3 0.6 0 0-5.4 2.2 1.9 2.9 0 0 4.1 0.7 6.1 2.2 -2.4 2-3.4 4.8-3.4 4.8 2.4 25.7 15.5 39.3 19.7 43.1 -0.7 0.8-1 1.4-1 1.4 0.2 1.5 2.4 8.9 11.5 20.2 9.1 11.3 22.3 13.7 22.3 13.7 0.5 0.2 0.4 0.2 1 0.3 -1.5 4.1-1.2 8.2 0.6 14.6 -7.2-2.2-32.8-13.8-123.6-68 0 0-34.4-19.6-67.8-25.8 2.2 1.3 4.5 2.4 6.5 3.4C79.9 51.1 91.6 55 102.1 61c4.2 2.4 8.1 5.3 11.2 9.1 3.2 4.1 5.9 8.3 9.9 11.8 1.8 1.6 3.7 3.1 5.6 4.6 0.6 0.1 1 0.5 1.3 1 1.9 1.5 3.7 2.9 5.6 4.4 8.9 7.1 17.8 14.3 26.7 21.4 4.3 3.5 8.7 7 13.8 9.3 4.6 2.1 9.6 3 14.6 3.9 20.2 3.9 40.2 10 60.9 10.1 0.6 0 1 0.2 1.3 0.5 -0.7 0.6-1.7 1.7-2.8 3.2 -11.5-0.2-22.9-2.2-34.1-4.6 -9.4-2-19.1-3.6-28.5-5.8 -0.1 0.1-0.1 0.1-0.2 0.1 -6.4 4.6-8.7 15.4-0.5 19.6 6 3.1 15.4-0.2 21.8-1.1 12.5-1.7 25.2-2.6 37.8-2.8 -0.7 1.2-1.3 2.4-2 3.8 -8.2 0.2-16.3 0.6-24.4 1.4 -5.5 0.5-11.1 1.2-16.6 2.1 -4.2 0.6-8.6 1.7-13 1.4 -3.6-0.3-6.8-1.9-9.1-4.5 -14.8 1.6-30.1 3.1-44.6-0.8 -7.1-1.9-13.5-5.2-19.9-8.7 -4.8-2.6-10.2-6.8-15.8-6.9 -9.1-0.2-18.7 3.4-27.2 6.3 -3.8 1.3-7.6 2.6-11.4 4.1 3 4.6 10.7 12.5 30.3 18 0 0 20.4 2.5 37.6 0 0 0 20.6 1.5 34.3 4.4 -18.5 2.8-47.7 5.4-47.7 5.4 -8.2 1-14.2 2.5-18.7 4.3 1.3 0 2.5 0 3.7 0.1 6.4 0.2 12.9 0.2 19.3 0.2 10.4-0.1 20.8-0.8 31.2-1.2 8.5-0.3 16.3-2.1 24.8-1.6 10.5 0.5 20.9 1.3 31.4 2.2 6.3 0.5 13.3 0.5 19.6 2 2.6-0.7 5.3-1.4 7.9-2 0.5-0.1 1-0.2 1.5-0.3 -0.1 1.4-0.2 2.9-0.2 4.3 -1.2 0.3-2.4 0.5-3.6 0.8 -1.1 0.3-2.2 0.6-3.3 0.9 -0.6 0.2-1.3 0.3-1.9 0.5 -9.3 2.6-18.4 5.9-27.8 8.1 -11.5 2.8-22.5 2-34.2 1.3 -2.9-0.2-5.7-0.2-8.6-0.2 1.2 1.5 2.3 3.1 4 4.2 2.3 1.5 5.4 2.1 7.8 3.4 4.8 2.6 10.3 8.6 14.3 12.5 8.9-3.7 17.9-7.1 26.3-11 4.7-2.2 9.4-4.5 13.8-7.2 2.9-1.8 5.6-4.6 8.9-5.5 1.4-0.4 2.9-0.6 4.3-0.8 0.1 1.1 0.1 2.3 0.3 3.4 -0.8 0.1-1.7 0.2-2.5 0.4 -3.1 0.6-5.4 2.8-8 4.5l-4.2 1.5 -9.8 6.1c0 0 0 0-0.1 0 -10.3 4.9-21 9-31.4 13.6 -7.7 3.4-15.6 6.9-22.5 11.7 8.4 2.3 13.5 1.7 13.5 1.7 0.3 0 0.6 0 1 0 -16.3 17.6-17.9 25.7-17.9 25.7 0.4 2.7 3.1 3.8 6.3 4 -1.9 2.4-3.6 3.9-3.6 3.9 -2-0.8-3.5 0.6-3.5 0.6 -2.8 3.6 1.9 3.6 1.9 3.6 -2.5 3.3-8.9 6.4-8.9 6.4 -4.1 1.7-1.5 5.1-1.5 5.1 -4.7 3.1-4.9 3-4.9 3 -3.9 2.2-0.2 4.2-0.2 4.2 -6.4 7.9-8.7 6.3-8.7 6.3s-2-1.9-6.8-1.6c-4.8 0.3 7.2 8.5 7.2 8.5s7.8 4.9 9.3 3.4c1.5-1.6-3.3-5.3-3.5-6.2s8.3-8.3 8.3-8.3 3.4 2.4 4.1 0.8c0.7-1.6-0.8-7.2-0.8-7.2l4-3.4c0 0 3.3 1.6 4.2 1.5 0.9-0.1 0.7-9.1 0.5-9.6s3.1-2.9 3.1-2.9 0.7 0.5 2.1 1.8 2.2 0 2.2 0 0.1-4.4 0-5.1c-0.1-0.4 1.9-3.1 3.5-5.2 2.5-0.4 4.2-0.8 4.2-0.8 19-6.4 27.3-30 27.3-30 15.4-3.3 32-14.4 39.5-20 0.7 2.3 1.4 4.6 2.3 6.9 -6.8 1.8-35.4 12.7-50.2 67.9 0 0-0.8 1.7 3.6 1.8 -3.5 9.1-6.5 23.4-6.7 45.6 0 0 1.4-0.7 4.1-1.2 -0.1 0.9-0.2 1.5-0.2 1.5 0.8 6-9.3 23.5-9.3 23.5 -7.2 3.2-4.8 6-4.8 6 1.1 1.3 4.9-0.2 4.9-0.2 0 0.3-2.5 5.3-2.5 5.3 -3.5 9.7-7 12.6-7 12.6 -3.4 2.2-3 4-3 4 -0.1 1.5 3 1.5 3 1.5 -0.7 4.4-3.9 7.4-3.9 7.4 -6.8 4.2-7.4 7.8-7.4 7.8 -0.7 2 4.8 2.2 4.8 2.2 -1.3 3.7-6.9 9.3-6.9 9.3 -2 0.3-3.5 1.4-3.5 1.4 -0.7 1.1-7.2 6-7.2 6 -4.9 4-2.6 6.2-2.6 6.2 1.9 0.9 3.8-1.1 3.8-1.1 2.5-3.5 5-2.7 5-2.7 2.5 0.8 7 0.9 7 0.9 -0.2 2.8 2.2 6.3 2.2 6.3 3.9 6.7 6 5.6 6 5.6 2.5-1-1-6.8-1-6.8 -3.1-4.7 2.8-19.8 2.8-19.8 1.5-6.7 3.9-2.3 3.9-2.3 4 2.5 0.8-10.7 0.8-10.7 0.6-5.7 3.8-10.4 3.8-10.4 2.6 5.2 5.5 3.2 5.5 3.2 1.8-2.6-1.8-9.2-1.8-9.2 0.1-6.1 4.3-15.8 4.3-15.8 2.8 2.5 4.5 0.4 4.5 0.4 -3.3-7.3-1.1-10.1-1.1-10.1 1.5-5.6 5.1-16.6 7.1-22.6 2.5 0.2 5.4 0.6 8.7 1.6 0 0 6.8-8.2 7.3-15.8 0 0 1.2-13.1-3.6-30.5 3.3 0 6.3 0.2 7.2 0.7 0.9 0.5 5.8-9.1 11.2-20.7 -17.9 52.6-31.9 143.5 75.7 162 0 0 154-19 51.6-198.6 0 0 0.9-1.9 2.3-5.2 7.7 18.9 23.5 56.5 31.8 66.7 0 0 1 0.1 2.7 0.1 -2.6 13.3-1.2 17.8-1.2 17.8 0.3 19.9 5.5 31.3 5.5 31.3 4.1 3.2 8.6 4 12.8 3.7 1.3 8.4 2.8 22.6 0.9 37.8 0 0 2.1 2 2.4-1.5 0 0-0.2-4.6 2.8-4.2 0 0 2.6 10.9-0.2 24.2 0 0 1.9 1.8 5.2-4.1 0 0 3 9.9-1.8 22.8 0 0 0 5.9 6.2-2 0 0 5.4 5.4 2.9 30.1 0 0 0.9 7.6 4.9-0.6 0 0-1.6-10.6 7.8-6.6 0 0 6.4 4.4 9.6 1.8 0 0 1.9-2.4-4.5-3.5 0 0-13.9-16.1-14.4-23.8 0 0 8.2 2.3 2.7-3.4 0 0-7.6-8-7.3-16.7 0 0 5.3 4.1 3.4-1 0 0-8.4-15.1-7.9-18.7 0 0 7.4-0.9 0.5-8.3 0 0-4.9-13.4-6.8-23.7 4.6-1.5 7.8-3.6 7.8-3.6 -3.1-27.9-10.1-43.3-16.1-51.7 1.3-1 2.4-2.3 3.1-3.9 0 0-8.3-22.2-22-47.7 7.3 3.1 15 4.1 22 0.7 0 0 14.8 38.3 22.7 42.7 0 0 3.6 0 7.5-0.9 2.2 3.8 3.1 7.7 3.1 7.7 -0.2 6.2 5.2 2.2 5.2 2.2 5.8 22.8 10 14.9 10 14.9 2.8 1.7 3.7 5.1 3.7 5.1 1.3 8.2 5.9 5 5.9 5 0 2.4 9.4 9 9.4 9 -0.2 0.8-2.4 2.4-2.4 2.4 -0.8 4 3.6 2.4 3.6 2.4 10.2-8 7.8-12.4 7.8-12.4 -3.6-2.6-5 3.6-5 3.6 -4.6-1.8-9-7.8-9-7.8 6-1.8 2.8-4.2 2.8-4.2 -3.2-0.6-12-6-12-6 5.4-0.6 2.6-3.6 2.6-3.6 -7.4-3-13.4-9-13.4-9 6.8 0 3.8-3.2 3.8-3.2 -5.3-1.6-8.7-5.6-10.4-8.1 1.5-0.9 2.8-2 3.5-3.5 0 0-13.2-34-28-44 0 0-2.8-2.1-7.2-5.1 2.7 1.4 5.6 3 8.7 4.9 0 0 7.2 6.1 25.2 1.9 0 0 22.7-2 29.4-9.2 0 0 1.2-2.5 7.4-4.9 -10.1-3.8-21.2-2.5-32-1.2 -4.3 0.5-8.7 1.2-13 0.6 -5.7-0.8-10.7-4.2-15.4-7.3 -6.1-3.9-12.3-7.5-18.6-11.1 -6-3.3-12.1-7.7-19.2-7.9 -6.1-0.1-12.6 1-18.5 1.9 -1.2 0.2-2.3 0.4-3.5 0.6 0.1-1.2 0.1-2.4 0.2-3.6 7.1-1.3 14.4-2.1 21.2-2.1 5.9-0.1 11 2.3 16.1 5.2 6.7 3.7 13.4 7.4 19.9 11.4 6 3.7 12.3 9.2 19.5 9.8 4.1 0.3 8.2-0.3 12.3-0.8 -2.2-0.9-4.2-2-5.9-3.4 -4.1-3.5-5.6-9.3-10.3-12.2 -10.9-0.4-21.7-1.6-32.1-4.8 -9.7-2.9-18.2-8.1-27.3-12.5 -4.3-2-8.9-3.6-13.7-4.5 -0.1-1.5-0.3-3-0.5-4.5 3.1 0.5 6.1 1.3 9.1 2.3 9.9 3.4 18.4 9.7 28.2 13.3 19.1 7 39.9 6.8 60 6.1l-0.1-0.1c-3.5-2.7-7-5.4-10.4-8.1 -3.8-2.9-7.4-5.5-10-9.5 -0.1-0.2-0.3-0.4-0.4-0.6 2.1-0.2 3.3-0.4 3.3-0.4 0.2-0.1 0.5-0.2 0.7-0.3 0.3 0.8 0.7 1.5 1.2 2.1 1.8 2.1 4.4 3.7 6.5 5.4 3.8 2.9 7.5 5.8 11.3 8.7 3.5-0.3 6.8-1.4 10.2-1.8 3.7-0.4 6.1-0.5 9.1-2.8 3-2.2 6-4 9.3-5.5 -0.6-0.1-1.1-0.1-1.7-0.2 0 0-16.8-5.2-38.5-6.5l-4.5-0.6c16.8-6.8 26.1-6.2 35.3-4.9 16.8 2.4 35.8 0 35.8 0 15-1 35.1-25.8 43.1-36.4C556.9 131.4 546.7 132.4 536.9 133.8zM335.5 87.9c1.3-3.2 3.6-1.2 3.6-1.2 1.1 1.1-0.2 3.7-0.2 3.7s-1.6 2.2-2.8 0.9C334.9 90 335.5 87.9 335.5 87.9zM263.1 90c0.2-6.1 6.4-8.2 6.4-8.2 5.5-1.4 3.3 5 3.3 5 0 1.6-5.1 4.8-7.1 5.2C263.7 92.4 263.1 90 263.1 90zM258.3 123.2c0 0 2.6-18.2 48.5-17.3 24.9 0.5 37.4 3.3 43.8 6.7 5.7 3 6.6 6.4 7.2 8.9 0 0 0.6 2.7 0.6 6 0 4.6-1.1 10.2-6.6 10.8 0 0-15 0.8-45.1-3.5 0 0-12.5-1.1-20.6 0.8 0 0-22.9 5.2-25.9 1.6S258.3 123.2 258.3 123.2zM342 164.9c0.1 0.1 0.1 0.3 0.2 0.4 0.1 0.1 0.1 0.3 0.2 0.4 0.1 0.1 0.1 0.3 0.2 0.4v0.1c0 0.1 0 0.3-0.1 0.6 -0.1 0.3-0.1 0.5-0.1 0.8 0 0.3-0.1 0.5-0.1 0.7s-0.1 0.4-0.1 0.4 -0.1 0.1-0.1 0.3c0 0.1 0 0.2 0 0.3 0 0.1 0 0.2 0.1 0.2v1.7c0 0.4 0 0.8-0.1 1.2 -0.1 0.4-0.2 0.7-0.4 1v3.4c0 0.2 0 0.5 0 0.8s0 0.6-0.1 0.9c0 0.3-0.1 0.6-0.2 0.8 -0.1 0.3-0.2 0.5-0.3 0.7v0.8c0 0.7 0 1.5-0.1 2.2 -0.1 0.7-0.1 1.4-0.2 2.2 0 0.4-0.1 0.7-0.2 1.1 -0.1 0.3-0.2 0.7-0.2 1.1 0 0.4 0 0.8 0 1.3s0 0.9 0 1.4 0.1 1 0.1 1.4c0.1 0.5 0.1 0.9 0.2 1.2 0.1 0.4 0.2 0.7 0.3 1 0.1 0.3 0.1 0.6 0.2 0.9 0 0.3 0.1 0.6 0.1 0.9s0 0.7 0 1.1v1.4c-0.2 0.3-0.4 0.5-0.7 0.5 -0.3 0-0.7-0.1-1.1-0.4 -0.4-0.2-0.8-0.6-1.2-1 -0.4-0.4-0.8-0.8-1.2-1.3s-0.8-1-1.2-1.5 -0.8-0.9-1.2-1.4c-0.4-0.4-0.7-0.8-1-1.1 0-0.1-0.1-0.2-0.2-0.5 -0.1-0.3-0.1-0.4-0.2-0.5 -0.3-0.3-0.6-0.7-0.9-1.1 -0.3-0.4-0.7-0.8-1-1.1 -0.4-0.3-0.7-0.6-1.1-0.9 -0.3-0.3-0.6-0.6-0.9-1 -0.3-0.3-0.6-0.7-0.8-1 -0.3-0.4-0.5-0.7-0.8-1.1 -0.1-0.1-0.2-0.3-0.4-0.4 -0.1-0.1-0.3-0.2-0.5-0.3 -0.2-0.1-0.3-0.2-0.4-0.3 -0.1-0.1-0.2-0.2-0.3-0.4 -0.6-0.9-1.3-1.7-1.9-2.4 -0.6-0.7-1.4-1.3-2.2-1.9 -0.1-0.1-0.3-0.2-0.3-0.3 0-0.1-0.2-0.2-0.2-0.4 -0.1-0.1-0.2-0.2-0.3-0.4 -0.1-0.1-0.3-0.2-0.4-0.3 0-0.1-0.1-0.2-0.2-0.4 -0.1-0.2-0.3-0.4-0.4-0.6 -0.1-0.2-0.3-0.5-0.4-0.7 -0.1-0.2-0.2-0.3-0.2-0.4l-0.3-0.3c-0.1-0.4-0.2-0.7-0.3-1s-0.3-0.5-0.5-0.7c-0.2-0.2-0.4-0.5-0.7-0.7 -0.2-0.2-0.5-0.5-0.8-0.9l-0.2-0.4c-0.1-0.3-0.2-0.5-0.4-0.7 -0.2-0.2-0.4-0.4-0.6-0.5 -0.2-0.2-0.4-0.3-0.7-0.5 -0.3-0.2-0.4-0.3-0.6-0.5 -0.1-0.1-0.2-0.3-0.3-0.4 -0.1-0.1-0.1-0.3-0.2-0.4 -0.1-0.1-0.1-0.2-0.2-0.3 -0.1-0.1-0.3-0.1-0.6-0.2 -0.1 0-0.3 0.1-0.5 0.2 -0.2 0.1-0.3 0.3-0.3 0.4l0.1 0.8c0 0.2 0 0.5-0.1 0.7 -0.1 0.2-0.1 0.6-0.1 0.9l0.3 0.9 -0.3 0.8c0 0.3 0 0.6 0.1 1 0.1 0.4 0.2 0.7 0.4 0.9 0.1 0.3 0.2 0.6 0.2 0.9s0.1 0.7 0.1 1c0 0.4 0 0.8-0.1 1.2 0 0.4-0.1 0.7-0.2 1 0.1 0.2 0.2 0.3 0.2 0.4 0 0.3 0 0.6-0.1 0.9 -0.1 0.3-0.1 0.5-0.2 0.7 -0.1 0.2-0.1 0.5-0.2 0.7 -0.1 0.2-0.1 0.5-0.1 0.7v0.9c0 0.2 0 0.5 0 0.8s0 0.6 0.1 0.8c0 0.3 0.1 0.5 0.1 0.7s0.1 0.4 0.2 0.5c-0.1 0.2-0.2 0.4-0.2 0.6 -0.1 0.2-0.1 0.3-0.1 0.5 0 0.1-0.1 0.3-0.1 0.4 0 0.1 0 0.3 0 0.5 0 0.6 0.1 1.1 0.2 1.7 0.1 0.6 0.3 1.1 0.5 1.7 0.2 0.5 0.5 1.1 0.9 1.5 0.4 0.5 0.8 0.9 1.3 1.2 0.1 0.1 0.3 0.2 0.5 0.2s0.4 0.1 0.5 0.1c0.1 0 0.3 0.1 0.5 0.2 0.2 0.1 0.3 0.2 0.4 0.4 0.3 0 0.6 0 0.9 0s0.7 0.1 1 0.1c0.3 0.1 0.6 0.1 0.8 0.2 0.3 0.1 0.5 0.2 0.6 0.4 0.1 0.3 0.3 0.6 0.4 0.9 0.1 0.3 0.2 0.7 0.2 1.1 -0.3 0.4-0.6 0.7-1 1 -0.3 0.2-0.8 0.3-1.3 0.3h-0.5l-1.1-0.6c-0.6-0.1-1.2-0.2-2-0.2 -0.8-0.1-1.6-0.1-2.3-0.1h-1.9c-0.2 0-0.4 0-0.6 0s-0.4 0.1-0.7 0.2h-4.4c-0.1-0.2-0.2-0.3-0.3-0.3 -0.2 0-0.3-0.1-0.5-0.1s-0.3 0-0.4-0.1c-0.1 0-0.2-0.1-0.2-0.3 0-0.4 0.1-0.8 0.3-1 0.2-0.3 0.4-0.5 0.7-0.7 0.3-0.2 0.6-0.3 1-0.4 0.1 0 0.1 0 0.2-0.1v-0.1h0.9c-0.3 0-0.6 0.1-0.9 0.1v0.9l0.4-0.1c0.1-0.1 0.3-0.2 0.4-0.3 0.1-0.1 0.2-0.3 0.3-0.5 0.1-0.2 0.2-0.4 0.3-0.6s0.3-0.4 0.4-0.5c0-0.2 0-0.4-0.1-0.4 -0.1-0.1-0.1-0.2-0.1-0.3l0.9-1.1 0.8-6.6c0.2-0.3 0.4-0.6 0.4-1 0-0.4 0.1-0.7 0.1-1l-0.1-3.3c0-0.3 0-0.5 0.1-0.7 0-0.2 0.1-0.4 0.2-0.7 0.1-0.2 0.1-0.4 0.2-0.6 0-0.2 0.1-0.5 0.1-0.7v-2.6c0-0.1 0-0.2 0.1-0.3 0.1-0.1 0.1-0.2 0.1-0.2V171l0.1-1.6c0 0 0-0.1 0.1-0.3 0.1-0.2 0.1-0.3 0.1-0.3 -0.2-0.6-0.3-1.2-0.4-1.8 -0.1-0.6-0.3-1.1-0.6-1.6 0 0-0.1 0-0.1-0.1 0 0 0 0-0.1-0.1l-1.1-0.5 -1.4-1.4c-0.2-0.1-0.4-0.2-0.6-0.3 -0.3 0-0.5-0.1-0.8-0.1s-0.5-0.1-0.8-0.1 -0.5-0.1-0.6-0.3l-0.9-0.7c-0.1-0.1-0.2-0.1-0.3-0.2 -0.1-0.1-0.3 0-0.5 0h-0.7c-0.3-0.1-0.5-0.2-0.7-0.5 -0.2-0.2-0.3-0.5-0.5-0.8 0-0.3 0.1-0.6 0.4-0.8 0.3-0.2 0.6-0.3 1-0.4 0.4-0.1 0.7-0.1 1.1-0.2 0.4 0 0.7 0 0.9 0 0.4 0.1 0.8 0.2 1.1 0.3 0.4 0 0.7 0.1 1.1 0.1 0.4 0 0.8 0 1.1 0 0.4 0 0.8 0 1.2 0.1 0 0 0.1 0 0.2 0.1 0.1 0 0.3 0.1 0.5 0.1s0.3 0.1 0.5 0.1 0.3 0.1 0.3 0.1h0.4l2-0.6c0.1 0 0.3 0 0.5 0.1 0.2 0.1 0.4 0.2 0.6 0.3 0.2 0.1 0.4 0.2 0.6 0.4 0.2 0.1 0.3 0.2 0.4 0.3l0.2 0.2c0.2 0.3 0.4 0.7 0.7 1.2s0.6 0.9 1 1.4c0.3 0.5 0.7 0.9 1 1.3 0.3 0.4 0.7 0.7 1 0.9l1.3 0.7c0.1 0 0.2 0.1 0.3 0.3 0.1 0.1 0.2 0.2 0.2 0.2l0.2 0.7c0.1 0.2 0.2 0.4 0.3 0.5 0.1 0.1 0.2 0.2 0.2 0.3 0.1 0.1 0.2 0.1 0.3 0.2 0.1 0.1 0.2 0.2 0.4 0.3 0.4 0.4 0.7 0.6 0.9 0.9 0.2 0.2 0.5 0.5 0.6 0.7 0.1 0.2 0.3 0.5 0.5 0.8 0.1 0.3 0.3 0.7 0.5 1.2 0 0 0.2 0.1 0.4 0.3 0.2 0.2 0.5 0.4 0.8 0.7 0.3 0.2 0.5 0.5 0.8 0.7s0.3 0.3 0.3 0.3l0.3 0.7c0 0.1 0 0.1 0.1 0.2 0.1 0.1 0.1 0.2 0.2 0.3 0.1 0.1 0.1 0.2 0.2 0.3 0.1 0.1 0.1 0.2 0.2 0.2l0.6 0.3c0.4 0.4 0.8 0.7 1.2 1.2 0.4 0.4 0.8 0.9 1.2 1.3 0.4 0.5 0.7 0.9 1 1.4s0.5 0.9 0.7 1.4l2.8 2.6c0.3 0.8 0.7 1.5 1.4 2s1.4 0.8 2.2 0.8v-1.1c0-0.2 0-0.4 0-0.6s0-0.4 0.1-0.6c0 0 0-0.1 0.1-0.2 0-0.1 0.1-0.2 0.1-0.3 0-0.1 0.1-0.3 0.1-0.4 0-0.1 0.1-0.2 0.1-0.3 0-0.2 0-0.3-0.1-0.4 -0.1-0.1-0.1-0.2-0.1-0.3l0.3-1.6c0-0.5 0-1.1-0.1-1.7 -0.1-0.6-0.1-1.2-0.2-1.7 0 0 0-0.1 0-0.2s0-0.2 0-0.4c0-0.1 0-0.2-0.1-0.4 0-0.1 0-0.2 0-0.2v-0.1c0-0.2 0-0.3 0.1-0.4 0-0.1 0-0.1 0.1-0.1l0.2-0.5 0.5-2.6c-0.1-0.2-0.2-0.4-0.2-0.6s-0.1-0.4-0.1-0.5l0.2-2.6 -0.2-2.7c0-0.2 0-0.4 0.1-0.5 0.1-0.1 0.2-0.3 0.4-0.4v-0.7c0-0.2-0.1-0.5-0.2-0.7 -0.1-0.3-0.3-0.5-0.4-0.8 -0.2-0.3-0.4-0.5-0.6-0.7 -0.2-0.2-0.5-0.3-0.7-0.4 0 0-0.1 0-0.2 0 -0.1 0-0.2 0-0.4-0.1 -0.1 0-0.3-0.1-0.4-0.1 -0.1 0-0.2 0-0.2-0.1l-0.6-0.4c0 0-0.2 0-0.4-0.1 -0.2 0-0.4-0.1-0.4-0.1 -0.4-0.1-0.7-0.3-1-0.4 -0.3-0.1-0.5-0.3-0.7-0.5 -0.2-0.2-0.4-0.4-0.6-0.6s-0.4-0.5-0.6-0.8c-0.1-0.1-0.2-0.2-0.3-0.2s-0.2-0.1-0.3-0.3c0-0.1 0.2-0.2 0.3-0.3 0.2-0.1 0.4-0.1 0.6-0.2 0.2 0 0.4-0.1 0.7-0.1 0.2 0 0.3 0 0.4 0 0.1 0 0.1 0 0.1 0 0.1 0 0.2 0 0.4 0.1 0.2 0 0.3 0.1 0.4 0.1 1.2 0.1 2.3 0.2 3.3 0.4 1 0.1 2.1 0.2 3.2 0.2l4.2-0.4c0.2 0 0.5 0 0.8 0s0.5 0.1 0.7 0.2 0.4 0.2 0.6 0.4c0.1 0.2 0.2 0.4 0.2 0.7 0 0.5-0.2 0.9-0.5 1.1s-0.8 0.4-1.2 0.6c-0.5 0.1-1 0.2-1.5 0.3 -0.5 0.1-0.9 0.2-1.2 0.4l-0.3 0.9L342 164c0 0-0.1 0.1-0.1 0.2s0 0.2 0 0.3C341.9 164.6 342 164.7 342 164.9zM256.5 182.6c0-0.1 0-0.3 0.1-0.4 0-0.1 0.1-0.2 0.2-0.4l-0.3-5.5 0.1-1.6c0-0.1 0.1-0.1 0.1-0.2s0.1-0.1 0.1-0.2c0 0 0-0.1 0.1-0.1 0.2-0.4 0.3-0.8 0.4-1.1 0.1-0.4 0.2-0.7 0.3-1.1s0.1-0.7 0.1-1.1c0-0.4 0.1-0.7 0.2-1 0.2-0.6 0.5-1.1 0.8-1.6s0.7-1.1 1.1-1.8c0-0.1 0.1-0.1 0.1-0.2s0.1-0.1 0.1-0.2c0.2-0.2 0.3-0.5 0.5-0.8s0.3-0.5 0.3-0.5c0.2-0.3 0.4-0.6 0.7-0.7 0.2-0.2 0.5-0.4 0.8-0.7 0.6-0.5 1.2-0.9 1.7-1.3 0.5-0.4 1.1-0.8 1.7-1.2l0.7-0.3c0.2-0.1 0.4-0.1 0.6-0.2 0.2-0.1 0.4-0.2 0.6-0.3 0.2-0.1 0.4-0.2 0.6-0.3 0.2-0.1 0.4-0.2 0.6-0.2l2.8-0.4c0.1 0 0.2 0 0.4-0.1 0.2-0.1 0.3-0.1 0.4-0.2 0.8 0 1.4 0 1.9-0.1 0.5 0 0.9 0 1.4 0 0.6 0 1.1 0 1.7 0 0.6 0 1.1 0 1.7 0.1 0.4 0.1 0.6 0.2 0.9 0.2 0.2 0 0.4 0.1 0.5 0.1 0.1 0 0.2 0 0.3 0s0.1 0 0.2 0c0.2 0 0.4 0 0.5 0 0.1 0 0.3 0 0.4 0 0.1 0 0.3 0 0.4 0 0.1 0 0.3 0 0.6 0 0.2 0.1 0.4 0.3 0.7 0.5 0.2 0.2 0.5 0.3 0.7 0.3 0.1 0 0.1 0 0.2-0.1 0.1-0.1 0.1-0.1 0.2-0.1h1.6c0.2 0 0.5-0.1 0.7-0.2s0.4-0.2 0.6-0.4c0.2-0.1 0.4-0.3 0.6-0.4s0.4-0.2 0.7-0.2c0.3 0 0.6 0.1 0.8 0.3 0.2 0.2 0.3 0.5 0.3 0.8v4.6c0 0.1 0 0.2 0.1 0.4 0 0.2 0.1 0.4 0.1 0.4 0.2 0.9 0.4 1.8 0.6 2.7 0.2 0.9 0.3 1.8 0.3 2.7 0 0.1-0.1 0.2-0.1 0.4 -0.1 0.1-0.2 0.2-0.3 0.4 -0.1 0.1-0.2 0.2-0.3 0.3 -0.1 0.1-0.2 0.1-0.2 0.1s-0.1 0.1-0.2 0.1c-0.4 0-0.7-0.1-1-0.2 -0.3-0.2-0.5-0.4-0.7-0.6 -0.2-0.3-0.3-0.5-0.4-0.8 -0.1-0.3-0.2-0.6-0.2-0.8v-1.2c0-0.3-0.1-0.5-0.2-0.6 -0.1-0.2-0.1-0.3-0.2-0.4 -0.1-0.1-0.2-0.2-0.3-0.4 -0.1-0.1-0.3-0.3-0.4-0.5 -0.2-0.2-0.3-0.4-0.4-0.7 0-0.2-0.1-0.5-0.3-0.8 0-0.1-0.1-0.1-0.2-0.2 -0.1-0.1-0.2-0.1-0.2-0.1l-1.8-1.3c0 0 0-0.1-0.1-0.2 -0.1-0.1-0.2-0.2-0.3-0.3 -0.1-0.1-0.2-0.2-0.3-0.3 -0.1-0.1-0.1-0.2-0.2-0.2 -0.2-0.1-0.3-0.2-0.3-0.2s-0.2 0.1-0.4 0.1c-0.1 0-0.2 0-0.2-0.1 -0.4-0.1-0.8-0.2-1.1-0.4 -0.4-0.2-0.7-0.3-1-0.5l-3.4-0.1c-0.1-0.1-0.3-0.2-0.4-0.3 -0.1 0-0.3-0.1-0.5-0.1 -0.6 0-1.2 0.1-1.6 0.2 -0.4 0.1-0.9 0.3-1.2 0.5 0 0 0 0.1-0.1 0.1l-0.1 0.1c-0.3 0.2-0.5 0.4-0.8 0.5 -0.3 0.1-0.6 0.2-0.9 0.3 -0.3 0.1-0.6 0.2-0.9 0.3 -0.3 0.1-0.6 0.3-0.8 0.5L268 164c0 0-0.1 0.1-0.3 0.2 -0.2 0.1-0.3 0.2-0.3 0.3 -0.1 0.2-0.2 0.4-0.5 0.6s-0.4 0.3-0.4 0.3c-0.1 0.2-0.3 0.4-0.3 0.7 -0.1 0.2-0.1 0.4-0.2 0.4l-0.6 0.9 -0.8 1.8 -0.4 1.6c0 0-0.1 0.1-0.1 0.2 -0.1 0.1-0.1 0.2-0.2 0.3 -0.1 0.1-0.2 0.2-0.2 0.3 0 0.1-0.1 0.1-0.2 0.1 0 0 0 0.1 0 0.2s0 0.3 0 0.5 0 0.4 0 0.5c0 0.2 0 0.3 0 0.4v0.7l0.1 2.8 0.3 1.4 -0.3 1.5c0 0.9 0.1 1.8 0.4 2.7 0.3 0.9 0.5 1.7 0.8 2.6 0 0 0.2 0.2 0.5 0.7l0.3 0.8c0.1 0.1 0.1 0.3 0.2 0.4 0.1 0.1 0.2 0.3 0.4 0.4 0.2 0.1 0.3 0.2 0.4 0.4 0.1 0.2 0.2 0.2 0.3 0.3 0.1 0.3 0.2 0.6 0.2 0.7 0 0.1 0.1 0.2 0.1 0.3l0.1 0.1c0.1 0 0.1 0.1 0.3 0.2 0.1 0.1 0.2 0.1 0.3 0.3 0.1 0.1 0.2 0.3 0.2 0.4 0.1 0.1 0.1 0.3 0.2 0.4 0.1 0.1 0.2 0.3 0.3 0.4 0.4 0.1 0.7 0.1 0.9 0.1 0.2 0 0.5 0.1 0.7 0.3 0.4 0.4 0.9 0.7 1.2 1 0.3 0.3 0.8 0.5 1.2 0.7 0.4 0.2 0.8 0.4 1.3 0.5 0.4 0.1 0.9 0.3 1.5 0.3l1.4 0.4c0.5 0 0.9-0.1 1.2-0.2 0.3-0.1 0.6-0.2 0.9-0.2s0.5 0.1 0.8 0.3 0.5 0.3 0.8 0.3c0.2 0 0.4-0.1 0.6-0.2 0.2-0.2 0.4-0.3 0.6-0.3 0 0 0.2 0 0.3-0.1 0.2 0 0.3-0.1 0.4-0.1 0.1 0 0.2 0 0.4-0.1 0.2-0.1 0.3-0.2 0.4-0.2 0.6-0.1 1-0.2 1.2-0.2 0.2-0.1 0.3-0.1 0.3-0.1l0.1-0.1c0.1-0.1 0.2-0.1 0.2-0.2 0.1-0.1 0.2-0.2 0.2-0.2 0.1-0.1 0.1-0.1 0.2-0.2 0.1 0 0.2 0 0.4-0.1 0.2-0.1 0.3-0.2 0.5-0.3 0.2-0.1 0.4-0.3 0.6-0.4 0.2-0.1 0.4-0.2 0.5-0.3 0.1-0.1 0.2-0.1 0.2-0.2 0-0.1 0.1-0.2 0.2-0.3 0.3-0.4 0.6-0.7 0.8-0.9 0.3-0.2 0.6-0.5 0.9-0.9 0.1-0.1 0.2-0.2 0.3-0.3 0.1-0.2 0.2-0.3 0.3-0.4 0 0 0.1-0.2 0.1-0.3 0.1-0.2 0.1-0.3 0.2-0.3 0.2-0.2 0.5-0.3 0.7-0.4 0.2-0.1 0.5-0.1 0.7-0.1 0.1 0 0.2 0.1 0.3 0.2s0.2 0.2 0.2 0.4c0.1 0.1 0.1 0.3 0.2 0.5 0 0.2 0.1 0.3 0.1 0.4 0 0.4-0.1 0.7-0.2 1 -0.2 0.3-0.4 0.6-0.6 0.8 -0.2 0.3-0.4 0.5-0.6 0.8 -0.2 0.3-0.3 0.6-0.4 0.9 -0.1 0.1-0.2 0.2-0.4 0.3 -0.2 0.1-0.3 0.3-0.5 0.5s-0.3 0.3-0.5 0.5c-0.1 0.2-0.2 0.3-0.3 0.3 -0.4 0.5-0.8 0.9-1.1 1.1 -0.3 0.2-0.6 0.4-0.9 0.7 -0.1 0.2-0.2 0.3-0.3 0.5 -0.1 0.2-0.2 0.3-0.4 0.4 -0.3 0.1-0.6 0.3-0.9 0.4 -0.3 0.1-0.7 0.2-1 0.3 -0.6 0.4-1.1 0.6-1.6 0.7 -0.5 0.1-0.9 0.3-1.4 0.4l-1.1 0.6c-1 0.1-1.7 0.1-2 0.2 -0.4 0.1-0.6 0.2-0.7 0.2 -0.6 0-1-0.1-1.2-0.2 -0.2-0.1-0.4-0.1-0.4-0.1l-1.7 0.6c-0.2 0-0.4 0-0.7-0.1 -0.3-0.1-0.5 0-0.7-0.1 -0.2-0.1-0.4-0.1-0.6-0.1s-0.3-0.1-0.4-0.2c-0.5-0.1-1-0.2-1.6-0.3 -0.5-0.1-1.1-0.2-1.6-0.4l-2.1-0.8c0 0-0.1-0.1-0.3-0.1s-0.3-0.1-0.4-0.1c-0.5-0.7-0.8-1.1-0.9-1.1h-0.7c-0.1-0.1-0.3-0.3-0.5-0.5 -0.2-0.3-0.4-0.6-0.6-0.9 0-0.2-0.1-0.4-0.4-0.4s-0.5-0.1-0.7-0.1c-0.1-0.1-0.2-0.1-0.2-0.2 0-0.1-0.1-0.2-0.1-0.3 0-0.1-0.1-0.2-0.1-0.4 0-0.1-0.1-0.2-0.2-0.3 0-0.1-0.1-0.2-0.3-0.4 -0.1-0.2-0.3-0.3-0.4-0.4 -0.1-0.1-0.2-0.1-0.3-0.2 -0.1 0-0.1-0.1-0.2-0.1 -0.1 0-0.1-0.1-0.2-0.1 -0.1-0.1-0.1-0.2-0.2-0.3l-0.7-1.1 -0.6-0.7c0-0.6 0-1.1-0.1-1.4 -0.1-0.3-0.2-0.4-0.2-0.4 0-0.1 0-0.2-0.1-0.5 0-0.2-0.1-0.4-0.1-0.4 -0.4-0.2-0.6-0.3-0.7-0.4 -0.1-0.1-0.1-0.1-0.2-0.1l-0.5-2.5c0-0.1 0-0.1 0-0.2 0-0.1-0.1-0.2-0.1-0.3 0-0.1-0.1-0.2-0.1-0.3 0-0.1 0-0.2 0-0.2 0-0.1-0.1-0.2-0.1-0.3C256.5 182.7 256.5 182.7 256.5 182.6zM306.5 415.7c-0.2 0-0.3 0-0.5 0 -52.6-4.9-72-48.9-72-48.9 -2.7-7.2 4.8-5.1 4.8-5.1 67.4 10.5 45.9 4.1 73.1 5.1 27.1 1 61.8-12.8 66.6-14.4 4.9-1.5 5.2 3.5 5.2 3.5C375 411 311.4 415.7 306.5 415.7zM382.6 305.1c0.4 1.9 0.5 1.8-0.3 3.8 -1.2 2.4-3.6 2-5.8 3.5 -16.5 10.9-33.5 22-52.8 26.8 -19.1 4.8-39.3 3-58.6-1 -8.5-1.8-21.2-2.8-28.5-7.4 -8.5-5.3-6.6-7.1-6-17.3 1.6-24.7 19.4-21.3 28.7-22.9 26.6-1.3 14.3-2.7 61.6-1.7 8.6 0.2 7.4-0.6 13.3-0.5 13.6 0.1 14.4 0 23.5-0.1C381.7 288.1 377.1 287.5 382.6 305.1zM364.5 255.1c0.4 1.3 0.8 2.6-0.4 3.9 -1 1.1-2.8 1.7-4.6 2.3 -18.3 6.4-28.2 9.6-42.3 11.5 -15.3 2-31.5 1.3-47-0.4 -6.8-0.8-17-1.2-22.8-3.2 -6.8-2.3-5.3-6-4.7-10.4 1.4-10.5 10.3-20.5 23.7-29 6-2.8 10.8-4.3 48.7-3.9 7 0.1 6.2 0.2 10.8 0.7 7.3 0.7 7.2 0.6 11.4 2.4 2.1 1 3.8 1.1 6.2 3.3C352.4 240.4 361.5 245.8 364.5 255.1z"/><path class="st0" d="M286.1 334.5c3.2 0 3.2-5 0-5S282.9 334.5 286.1 334.5L286.1 334.5z"/><path class="st0" d="M332.4 297.7c3.2 0 3.2-5 0-5C329.2 292.7 329.2 297.7 332.4 297.7L332.4 297.7z"/><path class="st0" d="M321.4 261.3c3.2 0 3.2-5 0-5C318.2 256.3 318.2 261.3 321.4 261.3L321.4 261.3z"/><path class="st0" d="M287.8 257.3c3.2 0 3.2-5 0-5C284.5 252.3 284.5 257.3 287.8 257.3L287.8 257.3z"/><path class="st0" d="M265.8 249.3c3.2 0 3.2-5 0-5C262.5 244.3 262.5 249.3 265.8 249.3L265.8 249.3z"/><path class="st0" d="M238.8 320.9c3.2 0 3.2-5 0-5C235.5 315.9 235.5 320.9 238.8 320.9L238.8 320.9z"/><path class="st0" d="M301.8 237.3c3.2 0 3.2-5 0-5C298.5 232.3 298.5 237.3 301.8 237.3L301.8 237.3z"/><path class="st0" d="M356.5 298.3c3.2 0 3.2-5 0-5S353.3 298.3 356.5 298.3L356.5 298.3z"/><path class="st0" d="M332.4 235.9c3.2 0 3.2-5 0-5C329.2 230.9 329.2 235.9 332.4 235.9L332.4 235.9z"/><path class="st0" d="M287.8 321.2c3.2 0 3.2-5 0-5C284.5 316.2 284.5 321.2 287.8 321.2L287.8 321.2z"/><path class="st0" d="M343.8 312c3.2 0 3.2-5 0-5C340.5 307 340.5 312 343.8 312L343.8 312z"/><path class="st0" d="M256.4 380.6c3.2 0 3.2-5 0-5C253.2 375.6 253.2 380.6 256.4 380.6L256.4 380.6z"/><path class="st0" d="M280.4 397.3c3.2 0 3.2-5 0-5C277.2 392.3 277.2 397.3 280.4 397.3L280.4 397.3z"/><path class="st0" d="M292.4 380.6c3.2 0 3.2-5 0-5C289.2 375.6 289.2 380.6 292.4 380.6L292.4 380.6z"/><path class="st0" d="M309.1 405.3c3.2 0 3.2-5 0-5S305.9 405.3 309.1 405.3L309.1 405.3z"/><path class="st0" d="M358.4 375.4c3.2 0 3.2-5 0-5C355.1 370.4 355.1 375.4 358.4 375.4L358.4 375.4z"/><path class="st0" d="M329.1 385.3c3.2 0 3.2-5 0-5S325.9 385.3 329.1 385.3L329.1 385.3z"/><path class="st0" d="M343.8 402.6c3.2 0 3.2-5 0-5C340.5 397.6 340.5 402.6 343.8 402.6L343.8 402.6z"/><path class="st0" d="M371.8 368.6c3.2 0 3.2-5 0-5C368.5 363.6 368.5 368.6 371.8 368.6L371.8 368.6z"/><path class="st0" d="M279.4 123.9c3.2 0 3.2-5 0-5C276.2 118.9 276.2 123.9 279.4 123.9L279.4 123.9z"/><path class="st0" d="M329.4 127.3c3.2 0 3.2-5 0-5C326.2 122.3 326.2 127.3 329.4 127.3L329.4 127.3z"/><path class="st0" d="M311.4 115.3c3.2 0 3.2-5 0-5C308.2 110.3 308.2 115.3 311.4 115.3L311.4 115.3z"/><path class="st0" d="M299.4 130.3c3.2 0 3.2-5 0-5C296.2 125.3 296.2 130.3 299.4 130.3L299.4 130.3z"/><path class="st0" d="M349.4 123.3c3.2 0 3.2-5 0-5C346.2 118.3 346.2 123.3 349.4 123.3L349.4 123.3z"/><path class="st0" d="M267.4 134.9c3.2 0 3.2-5 0-5C264.2 129.9 264.2 134.9 267.4 134.9L267.4 134.9z"/><path class="st1" d="M272.8 86.7c0 0 2.2-6.4-3.3-5 0 0-6.2 2.1-6.4 8.2 0 0 0.6 2.4 2.6 2C267.7 91.6 272.8 88.4 272.8 86.7z"/><path class="st1" d="M338.9 90.5c0 0 1.3-2.6 0.2-3.7 0 0-2.2-2.1-3.6 1.2 0 0-0.7 2.1 0.6 3.5C337.3 92.7 338.9 90.5 338.9 90.5z"/><path class="st1" d="M350.6 112.7L350.6 112.7c-6.4-3.4-18.9-6.3-43.8-6.8 -45.9-0.9-48.5 17.3-48.5 17.3s-1.1 10.4 1.9 14 25.9-1.6 25.9-1.6c8.1-1.8 20.6-0.8 20.6-0.8 30.1 4.2 45.1 3.5 45.1 3.5 5.5-0.7 6.6-6.3 6.6-10.8C355.3 125.7 350.2 121.4 350.6 112.7z"/><path class="st0" d="M274.1 316c3.2 0 3.2-5 0-5S270.9 316 274.1 316L274.1 316z"/><path class="st0" d="M250.2 304.5c3.2 0 3.2-5 0-5S247 304.5 250.2 304.5L250.2 304.5z"/><path class="st0" d="M309.1 334.1c3.2 0 3.2-5 0-5C305.8 329.1 305.8 334.1 309.1 334.1L309.1 334.1z"/><path class="st0" d="M311.3 303.2c3.2 0 3.2-5 0-5C308.1 298.2 308.1 303.2 311.3 303.2L311.3 303.2z"/><path class="st0" d="M329.1 325.3c3.2 0 3.2-5 0-5S325.9 325.3 329.1 325.3L329.1 325.3z"/><path class="st0" d="M260.1 330.5c3.2 0 3.2-5 0-5S256.9 330.5 260.1 330.5L260.1 330.5z"/><path class="st0" d="M257.1 318c3.2 0 3.2-5 0-5S253.9 318 257.1 318L257.1 318z"/><path class="st0" d="M273.3 300.6c3.2 0 3.2-5 0-5C270.1 295.6 270.1 300.6 273.3 300.6L273.3 300.6z"/><path class="st0" d="M308.5 318.1c3.2 0 3.2-5 0-5S305.3 318.1 308.5 318.1L308.5 318.1z"/><path class="st0" d="M289.5 301.8c3.2 0 3.2-5 0-5S286.3 301.8 289.5 301.8L289.5 301.8z"/><path class="st0" d="M329.4 310.4c3.2 0 3.2-5 0-5C326.1 305.4 326.1 310.4 329.4 310.4L329.4 310.4z"/><path class="st0" d="M349.1 324.2c3.2 0 3.2-5 0-5S345.9 324.2 349.1 324.2L349.1 324.2z"/><path class="st0" d="M368.2 311.2c3.2 0 3.2-5 0-5S365 311.2 368.2 311.2L368.2 311.2z"/><path class="st0" d="M244.9 372.9c3.2 0 3.2-5 0-5S241.7 372.9 244.9 372.9L244.9 372.9z"/><path class="st0" d="M272.2 381.6c3.2 0 3.2-5 0-5S269 381.6 272.2 381.6L272.2 381.6z"/><path class="st0" d="M266.8 396.7c3.2 0 3.2-5 0-5C263.6 391.7 263.6 396.7 266.8 396.7L266.8 396.7z"/><path class="st0" d="M291.9 407.4c3.2 0 3.2-5 0-5C288.7 402.4 288.6 407.4 291.9 407.4L291.9 407.4z"/><path class="st0" d="M302.1 390.9c3.2 0 3.2-5 0-5S298.9 390.9 302.1 390.9L302.1 390.9z"/><path class="st0" d="M315.4 379.4c3.2 0 3.2-5 0-5C312.1 374.4 312.1 379.4 315.4 379.4L315.4 379.4z"/><path class="st0" d="M325.1 401c3.2 0 3.2-5 0-5C321.8 396 321.8 401 325.1 401L325.1 401z"/><path class="st0" d="M355 389.6c3.2 0 3.2-5 0-5S351.8 389.6 355 389.6L355 389.6z"/><path class="st0" d="M340 374.8c3.2 0 3.2-5 0-5S336.8 374.8 340 374.8L340 374.8z"/><path class="st0" d="M269 265.1c3.2 0 3.2-5 0-5S265.8 265.1 269 265.1L269 265.1z"/><path class="st0" d="M279.8 238.2c3.2 0 3.2-5 0-5C276.6 233.2 276.6 238.2 279.8 238.2L279.8 238.2z"/><path class="st0" d="M307.8 252.2c3.2 0 3.2-5 0-5C304.6 247.2 304.6 252.2 307.8 252.2L307.8 252.2z"/><path class="st0" d="M345.5 251.1c3.2 0 3.2-5 0-5S342.3 251.1 345.5 251.1L345.5 251.1z"/><path class="st0" d="M320.7 246.8c3.2 0 3.2-5 0-5S317.5 246.8 320.7 246.8L320.7 246.8z"/><path class="st0" d="M252.8 263c3.2 0 3.2-5 0-5S249.6 263 252.8 263L252.8 263z"/><path class="st0" d="M302.4 267.3c3.2 0 3.2-5 0-5C299.2 262.3 299.2 267.3 302.4 267.3L302.4 267.3z"/><path class="st0" d="M290.6 116.4c3.2 0 3.2-5 0-5C287.3 111.4 287.3 116.4 290.6 116.4L290.6 116.4z"/><path class="st0" d="M315.4 127.1c3.2 0 3.2-5 0-5C312.1 122.1 312.1 127.1 315.4 127.1L315.4 127.1z"/><path class="st0" d="M334.8 117.4c3.2 0 3.2-5 0-5C331.5 112.4 331.5 117.4 334.8 117.4L334.8 117.4z"/><path class="st0" d="M346.6 132.5c3.2 0 3.2-5 0-5S343.4 132.5 346.6 132.5L346.6 132.5z"/><path class="st0" d="M267.9 121.7c3.2 0 3.2-5 0-5C264.7 116.7 264.7 121.7 267.9 121.7L267.9 121.7z"/><path class="st1" d="M334.2 288.4c-5.9-0.1-4.6 0.7-13.3 0.5 -47.3-1-35 0.4-61.6 1.7 -9.3 1.6-27.1-1.8-28.7 22.9 -0.7 10.2-2.5 12 6 17.3 7.3 4.6 20.1 5.6 28.5 7.4 19.3 4 39.5 5.8 58.6 1 19.3-4.8 36.3-15.9 52.8-26.8 2.2-1.5 4.6-1.1 5.8-3.5 0.8-2.1 0.7-2 0.3-3.8 -5.5-17.5-0.9-17-24.9-16.7C348.6 288.4 347.8 288.5 334.2 288.4z"/><path class="st1" d="M378.5 352.4c-4.8 1.6-39.5 15.3-66.6 14.4 -27.1-1-5.7 5.5-73.1-5.1 0 0-7.5-2.1-4.8 5.1 0 0 19.5 44 72 48.9 0.2 0 0.3 0 0.5 0 4.9 0 68.6-4.7 77.2-59.7C383.7 356 383.4 350.9 378.5 352.4z"/><path class="st1" d="M286.1 135.6c8.1-1.9 20.6-0.8 20.6-0.8 30.1 4.3 45.1 3.5 45.1 3.5 5.5-0.6 6.6-6.2 6.6-10.8 0-3.3-0.6-6-0.6-6 -0.6-2.5-1.5-5.9-7.2-8.9 -6.4-3.4-18.9-6.2-43.8-6.7 -45.9-0.9-48.5 17.3-48.5 17.3s-1.1 10.4 1.9 14S286.1 135.6 286.1 135.6z"/><path class="st1" d="M272.8 86.8c0 0 2.2-6.4-3.3-5 0 0-6.2 2.1-6.4 8.2 0 0 0.6 2.4 2.6 2C267.7 91.6 272.8 88.4 272.8 86.8z"/><path class="st1" d="M343.5 232.3c-2.4-2.2-4.1-2.3-6.2-3.3 -4.2-1.8-4.1-1.7-11.4-2.4 -4.6-0.5-3.9-0.6-10.8-0.7 -37.9-0.5-42.7 1.1-48.7 3.9 -13.3 8.5-22.3 18.5-23.7 29 -0.6 4.4-2 8.1 4.7 10.4 5.8 2 16 2.4 22.8 3.2 15.5 1.6 31.7 2.4 47 0.4 14.1-1.8 24-5.1 42.3-11.5 1.8-0.6 3.7-1.3 4.6-2.3 1.2-1.3 0.8-2.6 0.4-3.9C361.5 245.8 352.4 240.4 343.5 232.3z"/><path class="st1" d="M338.9 90.4c0 0 1.3-2.6 0.2-3.7 0 0-2.3-2-3.6 1.2 0 0-0.6 2.1 0.6 3.4C337.3 92.6 338.9 90.4 338.9 90.4z"/><path class="st1" d="M369.3 194.9l-0.1-0.1C369.2 194.9 369.3 194.9 369.3 194.9z"/><path class="st0" d="M274 39.6L274 39.6 274 39.6z"/><path class="st1" d="M286.1 135.6c8.1-1.9 20.6-0.8 20.6-0.8 30.1 4.3 45.1 3.5 45.1 3.5 5.5-0.6 6.6-6.2 6.6-10.8 0-3.3-0.6-6-0.6-6 -0.6-2.5-1.5-5.9-7.2-8.9 -6.4-3.4-18.9-6.2-43.8-6.7 -45.9-0.9-48.5 17.3-48.5 17.3s-1.1 10.4 1.9 14S286.1 135.6 286.1 135.6z"/><path class="st1" d="M378.5 352.4c-4.8 1.6-39.5 15.4-66.6 14.4 -27.2-1-5.7 5.4-73.1-5.1 0 0-7.5-2.1-4.8 5.1 0 0 19.4 44 72 48.9 0.2 0 0.3 0 0.5 0 4.9 0 68.5-4.7 77.2-59.8C383.7 355.9 383.4 350.9 378.5 352.4z"/><path class="st1" d="M272.8 86.8c0 0 2.2-6.4-3.3-5 0 0-6.2 2.1-6.4 8.2 0 0 0.6 2.4 2.6 2C267.7 91.6 272.8 88.4 272.8 86.8z"/><path class="st1" d="M338.9 90.4c0 0 1.3-2.6 0.2-3.7 0 0-2.3-2-3.6 1.2 0 0-0.6 2.1 0.6 3.4C337.3 92.6 338.9 90.4 338.9 90.4z"/><path class="st1" d="M343.5 232.3c-2.4-2.2-4.1-2.3-6.2-3.3 -4.2-1.8-4.1-1.7-11.4-2.4 -4.6-0.5-3.8-0.6-10.8-0.7 -37.9-0.4-42.7 1.1-48.7 3.9 -13.4 8.5-22.3 18.5-23.7 29 -0.6 4.4-2.1 8.1 4.7 10.4 5.8 2 16 2.4 22.8 3.2 15.5 1.7 31.7 2.4 47 0.4 14.1-1.9 24-5.1 42.3-11.5 1.8-0.6 3.6-1.2 4.6-2.3 1.2-1.3 0.8-2.6 0.4-3.9C361.5 245.8 352.4 240.4 343.5 232.3z"/><path class="st1" d="M334.2 288.4c-5.9-0.1-4.7 0.7-13.3 0.5 -47.3-1-35 0.4-61.6 1.7 -9.3 1.6-27.1-1.8-28.7 22.9 -0.6 10.2-2.5 12 6 17.3 7.3 4.6 20 5.6 28.5 7.4 19.3 4 39.5 5.8 58.6 1 19.3-4.8 36.3-15.9 52.8-26.8 2.2-1.5 4.6-1.1 5.8-3.5 0.8-2 0.7-1.9 0.3-3.8 -5.5-17.6-0.9-17-24.9-16.8C348.6 288.4 347.8 288.5 334.2 288.4z"/><path class="st1" d="M342 164l1.3-1.2 0.3-0.9c0.3-0.2 0.7-0.3 1.2-0.4 0.5-0.1 1-0.2 1.5-0.3 0.4-0.2 0.9-0.4 1.2-0.6s0.5-0.6 0.5-1.1c0-0.3-0.1-0.5-0.2-0.7 -0.2-0.2-0.4-0.3-0.6-0.4 -0.2-0.1-0.4-0.2-0.7-0.2s-0.6 0-0.8 0l-4.2 0.4c-1.1 0-2.2-0.1-3.2-0.2 -1-0.2-2.1-0.3-3.3-0.4 -0.1 0-0.2-0.1-0.4-0.1 -0.2-0.1-0.3-0.1-0.4-0.1 0 0 0 0-0.1 0s-0.2 0-0.4 0c-0.3 0-0.5 0.1-0.7 0.1 -0.2 0.1-0.4 0.1-0.6 0.2 -0.1 0.1-0.3 0.2-0.3 0.3 0.1 0.2 0.2 0.3 0.3 0.3 0.1 0 0.2 0.1 0.3 0.2 0.2 0.3 0.4 0.6 0.6 0.8s0.4 0.4 0.6 0.6 0.4 0.4 0.7 0.5 0.6 0.3 1 0.4c0 0 0.2 0.1 0.4 0.1 0.2 0.1 0.4 0.1 0.4 0.1l0.6 0.4c0 0.1 0.1 0.1 0.2 0.1s0.3 0.1 0.4 0.1c0.2 0.1 0.3 0.1 0.4 0.1s0.2 0 0.2 0c0.2 0.1 0.5 0.2 0.7 0.4s0.4 0.4 0.6 0.7c0.1 0.3 0.3 0.5 0.4 0.8 0.1 0.2 0.2 0.5 0.2 0.7v0.7c-0.2 0.1-0.3 0.3-0.4 0.4 -0.1 0.1-0.1 0.3-0.1 0.5l0.2 2.7 -0.2 2.6c0 0.1 0.1 0.3 0.1 0.5s0.1 0.4 0.2 0.6l-0.5 2.6 -0.2 0.5c-0.1 0-0.1 0-0.1 0.1 -0.1 0.1-0.1 0.2-0.1 0.4v0.1c0 0 0 0.1 0 0.2 0.1 0.2 0.1 0.3 0.1 0.4 0 0.2 0 0.3 0 0.4 0 0.1 0 0.2 0 0.2 0.1 0.5 0.1 1.1 0.2 1.7 0.1 0.6 0.1 1.2 0.1 1.7l-0.3 1.6c0 0.1 0 0.2 0.1 0.3s0.1 0.2 0.1 0.4c0 0.1-0.1 0.2-0.1 0.3s-0.1 0.3-0.1 0.4c0 0.1-0.1 0.2-0.1 0.3 -0.1 0.1-0.1 0.2-0.1 0.2 -0.1 0.2-0.1 0.4-0.1 0.6s0 0.4 0 0.6v1.1c-0.8 0-1.5-0.3-2.2-0.8s-1.1-1.2-1.4-2l-2.8-2.6c-0.2-0.5-0.4-0.9-0.7-1.4s-0.6-0.9-1-1.4c-0.4-0.4-0.8-0.9-1.2-1.3 -0.4-0.5-0.8-0.8-1.2-1.2l-0.6-0.3c-0.1 0-0.1-0.1-0.2-0.2 -0.1-0.1-0.1-0.2-0.2-0.3s-0.1-0.2-0.2-0.3 -0.1-0.1-0.1-0.2l-0.3-0.7c0 0 0-0.1-0.3-0.3s-0.5-0.5-0.8-0.7c-0.3-0.3-0.6-0.5-0.8-0.7s-0.4-0.3-0.4-0.3c-0.2-0.5-0.4-0.9-0.5-1.2 -0.2-0.3-0.4-0.6-0.5-0.8s-0.4-0.5-0.6-0.7c-0.2-0.3-0.5-0.5-0.9-0.9 -0.2-0.1-0.3-0.2-0.4-0.3s-0.2-0.1-0.3-0.2c0-0.1-0.1-0.2-0.2-0.3s-0.2-0.3-0.3-0.5l-0.2-0.7c0 0-0.1-0.1-0.2-0.2 -0.1-0.2-0.2-0.3-0.3-0.3l-1.3-0.7c-0.3-0.2-0.7-0.5-1-0.9s-0.7-0.8-1-1.3c-0.4-0.5-0.7-0.9-1-1.4s-0.5-0.9-0.7-1.2l-0.2-0.2c-0.1-0.1-0.2-0.2-0.4-0.3 -0.2-0.2-0.4-0.3-0.6-0.4 -0.2-0.1-0.4-0.2-0.6-0.3s-0.4-0.1-0.5-0.1l-2 0.6h-0.4c0 0-0.1-0.1-0.3-0.1s-0.3-0.1-0.5-0.1 -0.4-0.1-0.5-0.1c-0.1-0.1-0.2-0.1-0.2-0.1 -0.4-0.1-0.8-0.1-1.2-0.1 -0.3 0-0.7 0-1.1 0s-0.7-0.1-1.1-0.1c-0.3-0.1-0.7-0.2-1.1-0.3 -0.2 0-0.5 0-0.9 0 -0.4 0.1-0.7 0.1-1.1 0.2 -0.4 0.1-0.7 0.2-1 0.4s-0.4 0.5-0.4 0.8c0.2 0.3 0.3 0.6 0.5 0.8 0.2 0.3 0.4 0.4 0.7 0.5h0.7c0.2 0 0.4-0.1 0.5 0s0.2 0.1 0.3 0.2l0.9 0.7c0.1 0.2 0.3 0.3 0.6 0.3s0.5 0.1 0.8 0.1 0.5 0.1 0.8 0.1c0.2 0.1 0.4 0.2 0.6 0.3l1.4 1.4 1.1 0.5c0.1 0.1 0.1 0.1 0.1 0.1 0 0.1 0.1 0.1 0.1 0.1 0.3 0.5 0.5 1 0.6 1.6s0.2 1.2 0.4 1.8c0 0 0 0.1-0.1 0.3s-0.1 0.3-0.1 0.3l-0.1 1.6v3.4c0 0 0 0.1-0.1 0.2 -0.1 0.1-0.1 0.2-0.1 0.3v2.6c0 0.2-0.1 0.5-0.1 0.7 -0.1 0.2-0.1 0.4-0.2 0.6 -0.1 0.3-0.2 0.5-0.2 0.7 -0.1 0.2-0.1 0.4-0.1 0.7l0.1 3.3c0 0.3-0.1 0.6-0.1 1s-0.2 0.7-0.4 1l-0.8 6.6 -0.9 1.1c0 0.1 0 0.2 0.1 0.3 0.1 0 0.1 0.2 0.1 0.4 -0.1 0.1-0.3 0.3-0.4 0.5s-0.2 0.4-0.3 0.6c-0.1 0.2-0.2 0.4-0.3 0.5 -0.1 0.1-0.3 0.2-0.4 0.3l-0.4 0.1V195c-0.1 0-0.1 0-0.2 0.1 -0.4 0.1-0.7 0.2-1 0.4s-0.5 0.4-0.7 0.7c-0.2 0.2-0.3 0.6-0.3 1 0 0.2 0.1 0.3 0.2 0.3 0.1 0.1 0.2 0.1 0.4 0.1s0.3 0.1 0.5 0.1c0.1 0 0.2 0.1 0.3 0.3h4.4c0.3-0.1 0.5-0.2 0.7-0.2s0.4 0 0.6 0h1.9c0.7 0 1.5 0 2.3 0.1 0.8 0 1.4 0.1 2 0.2l1.1 0.6h0.5c0.5 0 1-0.1 1.3-0.3 0.4-0.3 0.7-0.6 1-1 0-0.4-0.1-0.8-0.2-1.1s-0.3-0.6-0.4-0.9c-0.1-0.2-0.3-0.3-0.6-0.4 -0.2-0.1-0.5-0.1-0.8-0.2 -0.3 0-0.7-0.1-1-0.1s-0.6 0-0.9 0c-0.1-0.2-0.2-0.3-0.4-0.4s-0.4-0.2-0.5-0.2 -0.3-0.1-0.5-0.1 -0.4-0.1-0.5-0.2c-0.5-0.3-0.9-0.7-1.3-1.2 -0.4-0.4-0.7-1-0.9-1.5 -0.2-0.6-0.4-1.1-0.5-1.7 -0.1-0.6-0.2-1.1-0.2-1.7 0-0.2 0-0.4 0-0.5s0.1-0.3 0.1-0.4c0-0.2 0-0.3 0.1-0.5 0-0.2 0.1-0.4 0.2-0.6 -0.1-0.1-0.2-0.3-0.2-0.5s-0.1-0.4-0.1-0.7c-0.1-0.2-0.1-0.5-0.1-0.8s0-0.6 0-0.8V182c0-0.2 0-0.5 0.1-0.7s0.1-0.5 0.2-0.7 0.1-0.4 0.2-0.7 0.1-0.6 0.1-0.9c0-0.1-0.1-0.2-0.2-0.4 0.1-0.3 0.2-0.6 0.2-1 0.1-0.4 0.1-0.8 0.1-1.2 0-0.3-0.1-0.7-0.1-1s-0.1-0.6-0.2-0.9c-0.2-0.2-0.3-0.5-0.4-0.9s-0.1-0.7-0.1-1l0.3-0.8 -0.3-0.9c0-0.3 0-0.7 0.1-0.9s0.1-0.5 0.1-0.7l-0.1-0.8c0-0.1 0.1-0.3 0.3-0.4s0.4-0.2 0.5-0.2c0.3 0.1 0.5 0.1 0.6 0.2 0.1 0.1 0.1 0.2 0.2 0.3s0.1 0.3 0.2 0.4c0.1 0.1 0.2 0.3 0.3 0.4 0.2 0.2 0.3 0.3 0.6 0.5 0.3 0.2 0.5 0.3 0.7 0.5 0.2 0.1 0.4 0.3 0.6 0.5s0.3 0.4 0.4 0.7l0.2 0.4c0.3 0.4 0.6 0.7 0.8 0.9 0.3 0.2 0.5 0.5 0.7 0.7s0.4 0.4 0.5 0.7 0.2 0.6 0.3 1l0.3 0.3c0 0.1 0.1 0.2 0.2 0.4s0.3 0.5 0.4 0.7 0.3 0.4 0.4 0.6c0.1 0.2 0.2 0.3 0.2 0.4 0.1 0.1 0.3 0.2 0.4 0.3 0.1 0.2 0.2 0.3 0.3 0.4 0 0.2 0.2 0.3 0.2 0.4 0 0.1 0.2 0.2 0.3 0.3 0.8 0.6 1.6 1.2 2.2 1.9s1.3 1.5 1.9 2.4c0.1 0.2 0.2 0.3 0.3 0.4 0.1 0.1 0.2 0.2 0.4 0.3 0.2 0.1 0.4 0.2 0.5 0.3 0.2 0.1 0.3 0.3 0.4 0.4 0.3 0.4 0.5 0.7 0.8 1.1 0.2 0.3 0.5 0.7 0.8 1 0.3 0.4 0.6 0.7 0.9 1 0.4 0.3 0.7 0.6 1.1 0.9 0.3 0.3 0.7 0.7 1 1.1 0.3 0.4 0.6 0.8 0.9 1.1 0.1 0.1 0.1 0.2 0.2 0.5s0.2 0.4 0.2 0.5c0.3 0.3 0.6 0.7 1 1.1 0.4 0.5 0.8 0.9 1.2 1.4 0.4 0.5 0.8 1 1.2 1.5s0.8 0.9 1.2 1.3c0.4 0.4 0.8 0.8 1.2 1 0.4 0.3 0.8 0.4 1.1 0.4s0.5-0.2 0.7-0.5v-1.4c0-0.4 0-0.8 0-1.1s-0.1-0.6-0.1-0.9c-0.1-0.3-0.1-0.6-0.2-0.9 -0.1-0.3-0.2-0.6-0.3-1 -0.1-0.3-0.1-0.7-0.2-1.2 0-0.4-0.1-0.9-0.1-1.4s0-0.9 0-1.4 0-0.9 0-1.3 0.1-0.8 0.2-1.1c0.1-0.4 0.2-0.7 0.2-1.1 0.1-0.8 0.1-1.5 0.2-2.2s0.1-1.5 0.1-2.2V180c0.1-0.2 0.2-0.4 0.3-0.7 0.1-0.2 0.2-0.5 0.2-0.8 0.1-0.3 0.1-0.6 0.1-0.9 0-0.3 0-0.6 0-0.8v-3.4c0.2-0.3 0.3-0.6 0.4-1s0.1-0.8 0.1-1.2v-1.7c-0.1 0-0.1-0.1-0.1-0.2 0-0.1 0-0.2 0-0.3 0-0.2 0.1-0.3 0.1-0.3s0.1-0.2 0.1-0.4 0.1-0.4 0.1-0.7 0-0.5 0.1-0.8 0.1-0.5 0.1-0.6v-0.1c-0.1-0.1-0.1-0.3-0.2-0.4 -0.1-0.1-0.1-0.3-0.2-0.4 -0.1-0.1-0.1-0.3-0.2-0.4 0-0.2-0.1-0.3-0.1-0.4 0-0.1 0-0.2 0-0.3C341.9 164.1 342 164 342 164z"/><path class="st1" d="M286.1 135.6c8.1-1.9 20.6-0.8 20.6-0.8 30.1 4.3 45.1 3.5 45.1 3.5 5.5-0.6 6.6-6.2 6.6-10.8 0-3.3-0.6-6-0.6-6 -0.6-2.5-1.5-5.9-7.2-8.9 -6.4-3.4-18.9-6.2-43.8-6.7 -45.9-0.9-48.5 17.3-48.5 17.3s-1.1 10.4 1.9 14S286.1 135.6 286.1 135.6z"/><path class="st1" d="M256.6 183.3c0 0.1 0.1 0.2 0.1 0.3s0.1 0.2 0.1 0.3 0 0.1 0 0.2l0.5 2.5c0.1 0 0.1 0 0.2 0.1s0.3 0.2 0.7 0.4c0 0 0.1 0.2 0.1 0.4 0.1 0.3 0.1 0.4 0.1 0.5 0 0 0.1 0.1 0.2 0.4 0.1 0.3 0.1 0.8 0.1 1.4l0.6 0.7 0.7 1.1c0.1 0.1 0.1 0.2 0.2 0.3 0.1 0 0.1 0.1 0.2 0.1s0.1 0.1 0.2 0.1c0.1 0.1 0.2 0.1 0.3 0.2 0.1 0.1 0.3 0.2 0.4 0.4 0.2 0.2 0.3 0.3 0.3 0.4 0.1 0.1 0.2 0.2 0.2 0.3 0 0.2 0.1 0.3 0.1 0.4 0 0.1 0.1 0.2 0.1 0.3s0.1 0.1 0.2 0.2c0.2 0 0.4 0.1 0.7 0.1s0.4 0.2 0.4 0.4c0.2 0.3 0.4 0.6 0.6 0.9 0.2 0.2 0.4 0.4 0.5 0.5h0.7c0.1 0 0.4 0.4 0.9 1.1 0.1 0 0.2 0.1 0.4 0.1 0.2 0 0.3 0.1 0.3 0.1l2.1 0.8c0.5 0.2 1.1 0.3 1.6 0.4 0.6 0.1 1.1 0.2 1.6 0.3 0.1 0.1 0.2 0.2 0.4 0.2s0.4 0 0.6 0.1 0.4 0 0.7 0.1c0.3 0.1 0.5 0.1 0.7 0.1l1.7-0.6c0 0 0.2 0 0.4 0.1 0.2 0.1 0.6 0.2 1.2 0.2 0.1 0 0.3-0.1 0.7-0.2 0.3-0.1 1-0.1 2-0.2l1.1-0.6c0.5-0.1 0.9-0.3 1.4-0.4 0.5-0.1 1-0.3 1.6-0.7 0.3-0.1 0.7-0.2 1-0.3s0.6-0.3 0.9-0.4c0.2-0.1 0.3-0.2 0.4-0.4s0.2-0.3 0.3-0.5c0.3-0.3 0.6-0.5 0.9-0.7s0.7-0.6 1.1-1.1c0.1 0 0.2-0.1 0.3-0.3 0.2-0.2 0.3-0.3 0.5-0.5s0.3-0.4 0.5-0.5 0.3-0.2 0.4-0.3c0.1-0.3 0.2-0.6 0.4-0.9 0.2-0.3 0.4-0.5 0.6-0.8 0.2-0.2 0.4-0.5 0.6-0.8 0.1-0.3 0.2-0.6 0.2-1 0-0.1-0.1-0.2-0.1-0.4 -0.1-0.2-0.1-0.4-0.2-0.5 0-0.2-0.1-0.3-0.2-0.4s-0.2-0.2-0.3-0.2c-0.2 0-0.5 0-0.7 0.1s-0.5 0.2-0.7 0.4c-0.1 0-0.1 0.1-0.2 0.3 0 0.1-0.1 0.3-0.1 0.3 -0.1 0.1-0.2 0.2-0.3 0.4 -0.1 0.1-0.2 0.2-0.3 0.3 -0.3 0.4-0.6 0.7-0.9 0.9 -0.2 0.2-0.5 0.5-0.8 0.9 -0.1 0.1-0.2 0.2-0.2 0.3s-0.1 0.1-0.2 0.2c-0.1 0.1-0.3 0.2-0.5 0.3s-0.4 0.3-0.6 0.4c-0.2 0.1-0.3 0.2-0.5 0.3s-0.3 0.1-0.4 0.1c-0.1 0.1-0.1 0.1-0.2 0.2 0 0-0.1 0.1-0.2 0.2 0 0.1-0.1 0.1-0.2 0.2l-0.1 0.1c0 0-0.1 0-0.3 0.1 -0.2 0-0.6 0.1-1.2 0.2 -0.1 0-0.2 0.1-0.4 0.2 -0.2 0.1-0.3 0.1-0.4 0.1s-0.2 0.1-0.4 0.1c-0.1 0.1-0.3 0.1-0.3 0.1 -0.2 0-0.4 0.1-0.6 0.3 -0.2 0.1-0.4 0.2-0.6 0.2 -0.3 0-0.5-0.1-0.8-0.3s-0.5-0.3-0.8-0.3 -0.6 0.1-0.9 0.2c-0.3 0.1-0.7 0.2-1.2 0.2l-1.4-0.4c-0.6 0-1.1-0.2-1.5-0.3 -0.5-0.1-0.9-0.3-1.3-0.5s-0.9-0.4-1.2-0.7c-0.3-0.3-0.8-0.6-1.2-1 -0.2-0.2-0.5-0.3-0.7-0.3s-0.5 0-0.9-0.1c-0.1-0.1-0.2-0.3-0.3-0.4 -0.1-0.1-0.1-0.3-0.2-0.4 0-0.1-0.1-0.3-0.2-0.4 -0.1-0.2-0.2-0.2-0.3-0.3 -0.2-0.1-0.2-0.2-0.3-0.2l-0.1-0.1c0-0.1-0.1-0.2-0.1-0.3s-0.1-0.4-0.2-0.7c-0.1-0.1-0.2-0.1-0.3-0.3 -0.1-0.2-0.2-0.3-0.4-0.4 -0.2-0.1-0.3-0.3-0.4-0.4 -0.1-0.1-0.1-0.3-0.2-0.4l-0.3-0.8c-0.3-0.5-0.5-0.7-0.5-0.7 -0.3-0.9-0.5-1.7-0.8-2.6 -0.3-0.9-0.4-1.8-0.4-2.7l0.3-1.5 -0.3-1.4 -0.1-2.8v-0.7c0-0.1 0-0.2 0-0.4 0-0.1 0-0.3 0-0.5s0-0.4 0-0.5 0-0.2 0-0.2c0.1 0 0.2 0 0.2-0.1s0.1-0.2 0.2-0.3 0.1-0.2 0.2-0.3c0-0.1 0.1-0.2 0.1-0.2l0.4-1.6 0.8-1.8 0.6-0.9c0.1 0 0.1-0.2 0.2-0.4 0-0.3 0.2-0.5 0.3-0.7 0 0 0.1-0.1 0.4-0.3s0.4-0.4 0.5-0.6c0-0.1 0.1-0.2 0.3-0.3s0.3-0.2 0.3-0.2l1.1-0.9c0.2-0.2 0.5-0.4 0.8-0.5s0.6-0.2 0.9-0.3 0.6-0.2 0.9-0.3 0.5-0.3 0.8-0.5l0.1-0.1c0.1 0 0.1-0.1 0.1-0.1 0.3-0.2 0.8-0.4 1.2-0.5 0.4-0.1 1-0.2 1.6-0.2 0.2 0 0.4 0.1 0.5 0.1 0.1 0.1 0.3 0.2 0.4 0.3l3.4 0.1c0.3 0.2 0.6 0.3 1 0.5 0.3 0.2 0.7 0.3 1.1 0.4 0 0.1 0.1 0.1 0.2 0.1 0.2 0 0.4-0.1 0.4-0.1s0.1 0.1 0.3 0.2c0.1 0 0.1 0.1 0.2 0.2 0.1 0.1 0.2 0.2 0.3 0.3 0.1 0.1 0.2 0.2 0.3 0.3 0.1 0.1 0.1 0.2 0.1 0.2l1.8 1.3c0 0 0.1 0 0.2 0.1s0.2 0.1 0.2 0.2c0.2 0.3 0.3 0.6 0.3 0.8 0.1 0.3 0.2 0.5 0.4 0.7 0.1 0.2 0.3 0.4 0.4 0.5 0.1 0.2 0.2 0.3 0.3 0.4 0.1 0.1 0.1 0.2 0.2 0.4 0.1 0.1 0.2 0.3 0.2 0.6v1.2c0 0.2 0.1 0.5 0.2 0.8s0.2 0.5 0.4 0.8c0.2 0.2 0.4 0.4 0.7 0.6 0.3 0.1 0.6 0.2 1 0.2 0.1 0 0.2-0.1 0.2-0.1s0.1 0 0.2-0.1 0.2-0.2 0.3-0.3c0.1-0.2 0.2-0.3 0.3-0.4 0-0.2 0.1-0.3 0.1-0.4 0-0.9-0.1-1.8-0.3-2.7 -0.2-0.9-0.4-1.8-0.6-2.7 0 0-0.1-0.2-0.1-0.4 -0.1-0.2-0.1-0.3-0.1-0.4v-4.6c0-0.3-0.1-0.6-0.3-0.8 -0.2-0.2-0.5-0.3-0.8-0.3s-0.5 0.1-0.7 0.2 -0.4 0.3-0.6 0.4c-0.2 0.2-0.4 0.3-0.6 0.4s-0.5 0.2-0.7 0.2h-1.6c-0.1 0-0.1 0-0.2 0.1s-0.1 0.1-0.2 0.1c-0.2 0-0.5-0.1-0.7-0.3 -0.3-0.2-0.5-0.4-0.7-0.5 -0.3 0-0.5 0-0.6 0s-0.3 0-0.4 0 -0.3 0-0.4 0 -0.3 0-0.5 0c-0.1 0-0.1 0-0.2 0s-0.2 0-0.3 0c-0.1 0-0.3-0.1-0.5-0.1 -0.3 0-0.5-0.1-0.9-0.2 -0.6-0.1-1.1-0.1-1.7-0.1s-1.1 0-1.7 0c-0.5 0-0.9 0-1.4 0 -0.5 0.1-1.1 0.1-1.9 0.1 -0.1 0.1-0.2 0.1-0.4 0.2 -0.2 0.1-0.3 0.1-0.4 0.1l-2.8 0.4c-0.2 0-0.4 0.1-0.6 0.2 -0.2 0.1-0.4 0.2-0.6 0.3s-0.4 0.2-0.6 0.3 -0.4 0.1-0.6 0.2l-0.7 0.3c-0.6 0.4-1.2 0.8-1.7 1.2s-1.1 0.8-1.7 1.3c-0.3 0.3-0.6 0.5-0.8 0.7 -0.3 0.1-0.5 0.4-0.7 0.7 0 0-0.1 0.2-0.3 0.5s-0.3 0.6-0.5 0.8c0 0.1-0.1 0.1-0.1 0.2s-0.1 0.1-0.1 0.2c-0.4 0.7-0.8 1.3-1.1 1.8s-0.6 1-0.8 1.6c-0.1 0.3-0.2 0.6-0.2 1s0 0.7-0.1 1.1 -0.2 0.7-0.3 1.1c-0.1 0.3-0.2 0.7-0.4 1.1 -0.1 0-0.1 0.1-0.1 0.1 0 0.1-0.1 0.1-0.1 0.2s-0.1 0.1-0.1 0.2l-0.1 1.6 0.3 5.5c-0.1 0.2-0.2 0.3-0.2 0.4 -0.1 0.1-0.1 0.3-0.1 0.4 0 0.1 0 0.1 0 0.2 0 0.1 0.1 0.2 0.1 0.3C256.6 183.1 256.6 183.2 256.6 183.3z"/><path class="st1" d="M334.2 288.4c-5.9-0.1-4.7 0.7-13.3 0.5 -47.3-1-35 0.4-61.6 1.7 -9.3 1.6-27.1-1.8-28.7 22.9 -0.6 10.2-2.5 12 6 17.3 7.3 4.6 20 5.6 28.5 7.4 19.3 4 39.5 5.8 58.6 1 19.3-4.8 36.3-15.9 52.8-26.8 2.2-1.5 4.6-1.1 5.8-3.5 0.8-2 0.7-1.9 0.3-3.8 -5.5-17.6-0.9-17-24.9-16.8C348.6 288.4 347.8 288.5 334.2 288.4z"/><path class="st1" d="M378.5 352.4c-4.8 1.6-39.5 15.4-66.6 14.4 -27.2-1-5.7 5.4-73.1-5.1 0 0-7.5-2.1-4.8 5.1 0 0 19.4 44 72 48.9 0.2 0 0.3 0 0.5 0 4.9 0 68.5-4.7 77.2-59.8C383.7 355.9 383.4 350.9 378.5 352.4z"/><path class="st1" d="M343.5 232.3c-2.4-2.2-4.1-2.3-6.2-3.3 -4.2-1.8-4.1-1.7-11.4-2.4 -4.6-0.5-3.8-0.6-10.8-0.7 -37.9-0.4-42.7 1.1-48.7 3.9 -13.4 8.5-22.3 18.5-23.7 29 -0.6 4.4-2.1 8.1 4.7 10.4 5.8 2 16 2.4 22.8 3.2 15.5 1.7 31.7 2.4 47 0.4 14.1-1.9 24-5.1 42.3-11.5 1.8-0.6 3.6-1.2 4.6-2.3 1.2-1.3 0.8-2.6 0.4-3.9C361.5 245.8 352.4 240.4 343.5 232.3z"/><path class="st1" d="M334.2 288.4c-5.9-0.1-4.7 0.7-13.3 0.5 -47.3-1-35 0.4-61.6 1.7 -9.3 1.6-27.1-1.8-28.7 22.9 -0.6 10.2-2.5 12 6 17.3 7.3 4.6 20 5.6 28.5 7.4 19.3 4 39.5 5.8 58.6 1 19.3-4.8 36.3-15.9 52.8-26.8 2.2-1.5 4.6-1.1 5.8-3.5 0.8-2 0.7-1.9 0.3-3.8 -5.5-17.6-0.9-17-24.9-16.8C348.6 288.4 347.8 288.5 334.2 288.4z"/><path class="st1" d="M378.5 352.4c-4.8 1.6-39.5 15.4-66.6 14.4 -27.2-1-5.7 5.4-73.1-5.1 0 0-7.5-2.1-4.8 5.1 0 0 19.4 44 72 48.9 0.2 0 0.3 0 0.5 0 4.9 0 68.5-4.7 77.2-59.8C383.7 355.9 383.4 350.9 378.5 352.4z"/><path class="st1" d="M343.5 232.3c-2.4-2.2-4.1-2.3-6.2-3.3 -4.2-1.8-4.1-1.7-11.4-2.4 -4.6-0.5-3.8-0.6-10.8-0.7 -37.9-0.4-42.7 1.1-48.7 3.9 -13.4 8.5-22.3 18.5-23.7 29 -0.6 4.4-2.1 8.1 4.7 10.4 5.8 2 16 2.4 22.8 3.2 15.5 1.7 31.7 2.4 47 0.4 14.1-1.9 24-5.1 42.3-11.5 1.8-0.6 3.6-1.2 4.6-2.3 1.2-1.3 0.8-2.6 0.4-3.9C361.5 245.8 352.4 240.4 343.5 232.3z"/><path class="st1" d="M334.2 288.4c-5.9-0.1-4.7 0.7-13.3 0.5 -47.3-1-35 0.4-61.6 1.7 -9.3 1.6-27.1-1.8-28.7 22.9 -0.6 10.2-2.5 12 6 17.3 7.3 4.6 20 5.6 28.5 7.4 19.3 4 39.5 5.8 58.6 1 19.3-4.8 36.3-15.9 52.8-26.8 2.2-1.5 4.6-1.1 5.8-3.5 0.8-2 0.7-1.9 0.3-3.8 -5.5-17.6-0.9-17-24.9-16.8C348.6 288.4 347.8 288.5 334.2 288.4z"/><path class="st1" d="M343.5 232.3c-2.4-2.2-4.1-2.3-6.2-3.3 -4.2-1.8-4.1-1.7-11.4-2.4 -4.6-0.5-3.8-0.6-10.8-0.7 -37.9-0.4-42.7 1.1-48.7 3.9 -13.4 8.5-22.3 18.5-23.7 29 -0.6 4.4-2.1 8.1 4.7 10.4 5.8 2 16 2.4 22.8 3.2 15.5 1.7 31.7 2.4 47 0.4 14.1-1.9 24-5.1 42.3-11.5 1.8-0.6 3.6-1.2 4.6-2.3 1.2-1.3 0.8-2.6 0.4-3.9C361.5 245.8 352.4 240.4 343.5 232.3z"/><path class="st1" d="M378.5 352.4c-4.8 1.6-39.5 15.4-66.6 14.4 -27.2-1-5.7 5.4-73.1-5.1 0 0-7.5-2.1-4.8 5.1 0 0 19.4 44 72 48.9 0.2 0 0.3 0 0.5 0 4.9 0 68.5-4.7 77.2-59.8C383.7 355.9 383.4 350.9 378.5 352.4z"/><path class="st1" d="M286.1 135.6c8.1-1.9 20.6-0.8 20.6-0.8 30.1 4.3 45.1 3.5 45.1 3.5 5.5-0.6 6.6-6.2 6.6-10.8 0-3.3-0.6-6-0.6-6 -0.6-2.5-1.5-5.9-7.2-8.9 -6.4-3.4-18.9-6.2-43.8-6.7 -45.9-0.9-48.5 17.3-48.5 17.3s-1.1 10.4 1.9 14S286.1 135.6 286.1 135.6z"/><path class="st1" d="M378.5 352.4c-4.8 1.6-39.5 15.4-66.6 14.4 -27.2-1-5.7 5.4-73.1-5.1 0 0-7.5-2.1-4.8 5.1 0 0 19.4 44 72 48.9 0.2 0 0.3 0 0.5 0 4.9 0 68.5-4.7 77.2-59.8C383.7 355.9 383.4 350.9 378.5 352.4z"/></svg>