<?xml version="1.0" encoding="utf-8"?>
<!-- Generator: Adobe Illustrator 19.2.1, SVG Export Plug-In . SVG Version: 6.00 Build 0)  -->
<svg version="1.1" id="Layer_1" xmlns="http://www.w3.org/2000/svg" xmlns:xlink="http://www.w3.org/1999/xlink" x="0px" y="0px"
	 viewBox="0 0 73.6 74" style="enable-background:new 0 0 73.6 74;" xml:space="preserve">
<style type="text/css">
	.st0{fill:#1A2039;}
</style>
<path class="st0" d="M63,73c-0.8-0.3-1.2-0.5-1.8-0.5c-2,0-3-0.1-3.9-0.2c-0.9,0-1.7-0.1-3.3-0.1c-1.8,0-2.6,0-3.5,0
	c-0.9,0-1.9,0-3.7,0c-1.3,0-1.8,0.1-2.6,0.3c-1,0.3-2.2,0.6-4.5,0.6c-1.8,0-2.7,0-3.6,0c-0.9,0-1.8,0-3.6,0c-2.3,0-3.7-0.4-4.7-0.7
	c-0.7-0.3-1.2-0.4-2.4-0.4c-1.4,0-2,0.2-2.8,0.3c-0.9,0.2-2.1,0.4-4.3,0.4s-3.4-0.2-4.4-0.4c-0.8-0.2-1.4-0.3-2.8-0.3
	c-1.8,0-2.8-0.1-3.7-0.1c-0.8-0.1-1.7-0.1-3.4-0.1c-2.2,0-4-1.8-4-4c0-2.2,1.8-4,4-4c1.8,0,2.8,0.1,3.7,0.1C8.5,64,9.4,64,11.1,64
	c2.2,0,3.4,0.2,4.4,0.4c0.8,0.2,1.4,0.3,2.8,0.3c1.4,0,2-0.2,2.8-0.3c1-0.2,2.1-0.4,4.3-0.4c2.3,0,3.7,0.4,4.7,0.7
	c0.7,0.3,1.2,0.4,2.4,0.4c1.8,0,2.7,0,3.6,0c0.9,0,1.8,0,3.6,0c1.3,0,1.8-0.1,2.6-0.3c1-0.3,2.2-0.6,4.5-0.6c1.8,0,2.6,0,3.5,0
	c0.9,0,1.9,0,3.7,0c2,0,3,0.1,3.9,0.2c0.9,0,1.7,0.1,3.3,0.1c1.6,0,2.9,0.3,3.9,0.7c-0.3-1-0.6-2.2-0.6-3.8c0-2,0-3,0.1-3.9
	c0-0.9,0.1-1.7,0.1-3.3c0-1.7,0-2.5-0.1-3.3c0-0.9-0.1-2-0.1-3.9c0-1.9,0.1-2.9,0.1-3.8c0.1-0.9,0.1-1.7,0.1-3.4
	c0-1.6-0.1-2.3-0.2-3.2s-0.2-2-0.2-4c0-2.1,0.2-3.2,0.4-4.2c0.1-0.8,0.2-1.5,0.2-2.9c0-1.3-0.1-1.8-0.3-2.6c-0.3-1-0.6-2.3-0.6-4.6
	c0-1.8,0-2.7,0-3.6s0-1.7,0-3.5s0-2.7,0-3.6s0-1.8,0-3.6c0-2.2,1.8-4,4-4c2.2,0,4,1.8,4,4c0,1.8,0,2.7,0,3.6s0,1.8,0,3.6
	s0,2.7,0,3.6s0,1.7,0,3.5c0,1.3,0.1,1.8,0.3,2.6c0.3,1,0.6,2.3,0.6,4.6c0,2.1-0.2,3.2-0.4,4.2c-0.1,0.8-0.2,1.5-0.2,2.9
	c0,1.6,0.1,2.4,0.2,3.2c0.1,0.9,0.2,2,0.2,4c0,1.9,0,2.8,0,3.7c-0.1,0.9-0.1,1.7-0.1,3.4s0,2.5,0.1,3.3c0,0.9,0.1,2,0.1,3.9
	s0,2.9-0.1,3.9c0,0.9-0.1,1.7-0.1,3.3c0,0.7,0.1,1.2,0.4,1.9c0.6,1.6,1.8,4.8-1.6,8.2c-1.7,1.7-3.4,2.2-4.9,2.2
	C65.1,73.6,63.9,73.1,63,73z"/>
</svg>
