<svg id="Layer_1" data-name="Layer 1" xmlns="http://www.w3.org/2000/svg" viewBox="0 0 285.71 123.29"><defs><style>.cls-1{fill:#f0f7fa;}</style></defs><title>waves</title><path class="cls-1" d="M714.29,24.66c-37.84,0-56.84-15.42-75.21-30.34C621.56-19.91,605-33.34,571.43-33.34S521.3-19.91,503.78-5.68c-18.37,14.92-37.37,30.34-75.21,30.34S371.73,9.23,353.36-5.68c-17.52-14.22-34.06-27.66-67.65-27.66S235.58-19.91,218.06-5.68C199.69,9.23,180.7,24.66,142.85,24.66S86,9.23,67.65-5.68C50.13-19.91,33.58-33.34,0-33.34S-50.13-19.91-67.64-5.68C-86,9.23-105,24.66-142.85,24.66S-199.69,9.23-218.06-5.68c-17.52-14.22-34.06-27.66-67.65-27.66v-12c37.84,0,56.84,15.43,75.21,30.34C-193-.78-176.44,12.66-142.85,12.66S-92.73-.78-75.21-15C-56.84-29.92-37.84-45.34,0-45.34S56.84-29.92,75.21-15C92.73-.78,109.27,12.66,142.85,12.66S193-.78,210.5-15c18.37-14.92,37.37-30.34,75.21-30.34S342.55-29.92,360.92-15C378.44-.78,395,12.66,428.57,12.66S478.7-.78,496.22-15c18.37-14.92,37.37-30.34,75.21-30.34S628.27-29.92,646.64-15c17.52,14.22,34.06,27.66,67.65,27.66v12Z"/><path class="cls-1" d="M714.29,49.31c-37.84,0-56.84-15.42-75.21-30.34C621.56,4.75,605-8.69,571.43-8.69S521.3,4.75,503.78,19c-18.37,14.92-37.37,30.34-75.21,30.34S371.73,33.89,353.36,19C335.84,4.75,319.3-8.69,285.71-8.69S235.58,4.75,218.06,19c-18.37,14.92-37.37,30.34-75.21,30.34S86,33.89,67.65,19C50.13,4.75,33.58-8.69,0-8.69S-50.13,4.75-67.64,19C-86,33.89-105,49.31-142.85,49.31S-199.69,33.89-218.06,19C-235.58,4.75-252.12-8.69-285.71-8.69v-12c37.84,0,56.84,15.43,75.21,30.34,17.52,14.22,34.06,27.66,67.65,27.66S-92.73,23.88-75.21,9.66C-56.84-5.26-37.84-20.69,0-20.69S56.84-5.26,75.21,9.66c17.52,14.22,34.06,27.66,67.65,27.66S193,23.88,210.5,9.66c18.37-14.92,37.37-30.34,75.21-30.34S342.55-5.26,360.92,9.66C378.44,23.88,395,37.31,428.57,37.31S478.7,23.88,496.22,9.66c18.37-14.92,37.37-30.34,75.21-30.34S628.27-5.26,646.64,9.66c17.52,14.22,34.06,27.66,67.65,27.66v12Z"/><path class="cls-1" d="M714.29,74c-37.84,0-56.84-15.42-75.21-30.34C621.56,29.41,605,16,571.43,16S521.3,29.41,503.78,43.63C485.41,58.55,466.41,74,428.57,74s-56.84-15.42-75.21-30.34C335.84,29.41,319.3,16,285.71,16s-50.13,13.43-67.65,27.66C199.69,58.55,180.7,74,142.85,74S86,58.55,67.65,43.63C50.13,29.41,33.58,16,0,16S-50.13,29.41-67.64,43.63C-86,58.55-105,74-142.85,74s-56.84-15.42-75.21-30.34C-235.58,29.41-252.12,16-285.71,16V4c37.84,0,56.84,15.43,75.21,30.34C-193,48.54-176.44,62-142.85,62s50.13-13.43,67.64-27.66C-56.84,19.4-37.84,4,0,4S56.84,19.4,75.21,34.31C92.73,48.54,109.27,62,142.85,62S193,48.54,210.5,34.31C228.87,19.4,247.87,4,285.71,4s56.84,15.42,75.21,30.34C378.44,48.54,395,62,428.57,62s50.13-13.43,67.65-27.66C514.59,19.4,533.58,4,571.43,4s56.84,15.42,75.21,30.34C664.16,48.54,680.71,62,714.29,62V74Z"/><path class="cls-1" d="M714.29,98.63c-37.84,0-56.84-15.42-75.21-30.34C621.56,54.06,605,40.63,571.43,40.63S521.3,54.06,503.78,68.29c-18.37,14.92-37.37,30.34-75.21,30.34s-56.84-15.43-75.21-30.34c-17.52-14.22-34.06-27.66-67.65-27.66s-50.13,13.43-67.65,27.66c-18.37,14.92-37.37,30.34-75.21,30.34S86,83.21,67.65,68.29C50.13,54.06,33.58,40.63,0,40.63S-50.13,54.06-67.64,68.29C-86,83.21-105,98.63-142.85,98.63s-56.84-15.43-75.21-30.34c-17.52-14.22-34.06-27.66-67.65-27.66v-12c37.84,0,56.84,15.43,75.21,30.34C-193,73.2-176.44,86.63-142.85,86.63S-92.73,73.2-75.21,59C-56.84,44.06-37.84,28.63,0,28.63S56.84,44.06,75.21,59c17.52,14.22,34.06,27.66,67.65,27.66S193,73.2,210.5,59c18.37-14.92,37.37-30.34,75.21-30.34S342.55,44.06,360.92,59C378.44,73.2,395,86.63,428.57,86.63S478.7,73.2,496.22,59c18.37-14.92,37.37-30.34,75.21-30.34S628.27,44.06,646.64,59c17.52,14.22,34.06,27.66,67.65,27.66v12Z"/><path class="cls-1" d="M714.29,123.29c-37.84,0-56.84-15.42-75.21-30.34C621.56,78.72,605,65.29,571.43,65.29S521.3,78.72,503.78,92.94c-18.37,14.92-37.37,30.34-75.21,30.34s-56.84-15.42-75.21-30.34c-17.52-14.22-34.06-27.66-67.65-27.66s-50.13,13.43-67.65,27.66c-18.37,14.92-37.37,30.34-75.21,30.34S86,107.86,67.65,92.95C50.13,78.72,33.58,65.29,0,65.29S-50.13,78.72-67.64,92.94C-86,107.86-105,123.29-142.85,123.29s-56.84-15.42-75.21-30.34c-17.52-14.22-34.06-27.66-67.65-27.66v-12c37.84,0,56.84,15.43,75.21,30.34,17.52,14.22,34.06,27.66,67.65,27.66s50.13-13.43,67.64-27.66C-56.84,68.71-37.84,53.29,0,53.29S56.84,68.71,75.21,83.63c17.52,14.22,34.06,27.66,67.65,27.66S193,97.85,210.5,83.63c18.37-14.92,37.37-30.34,75.21-30.34s56.84,15.42,75.21,30.34c17.52,14.22,34.06,27.66,67.65,27.66s50.13-13.43,67.65-27.66c18.37-14.92,37.37-30.34,75.21-30.34s56.84,15.42,75.21,30.34c17.52,14.22,34.06,27.66,67.65,27.66v12Z"/><path class="cls-1" d="M714.29,147.94c-37.84,0-56.84-15.42-75.21-30.34C621.56,103.38,605,89.95,571.43,89.95s-50.13,13.43-67.65,27.66c-18.37,14.92-37.37,30.34-75.21,30.34s-56.84-15.42-75.21-30.34c-17.52-14.22-34.06-27.66-67.65-27.66s-50.13,13.43-67.65,27.66c-18.37,14.92-37.37,30.34-75.21,30.34S86,132.52,67.65,117.6C50.13,103.38,33.58,89.95,0,89.95s-50.13,13.43-67.64,27.66C-86,132.52-105,147.94-142.85,147.94s-56.84-15.42-75.21-30.34c-17.52-14.22-34.06-27.66-67.65-27.66v-12c37.84,0,56.84,15.43,75.21,30.34,17.52,14.22,34.06,27.66,67.65,27.66s50.13-13.43,67.64-27.66C-56.84,93.37-37.84,77.95,0,77.95s56.84,15.43,75.21,30.34c17.52,14.22,34.06,27.66,67.65,27.66S193,122.51,210.5,108.29c18.37-14.92,37.37-30.34,75.21-30.34s56.84,15.43,75.21,30.34c17.52,14.22,34.06,27.66,67.65,27.66s50.13-13.43,67.65-27.66c18.37-14.92,37.37-30.34,75.21-30.34s56.84,15.43,75.21,30.34c17.52,14.22,34.06,27.66,67.65,27.66v12Z"/><path class="cls-1" d="M714.29,172.6c-37.84,0-56.84-15.42-75.21-30.34C621.56,128,605,114.6,571.43,114.6S521.3,128,503.78,142.26c-18.37,14.92-37.37,30.34-75.21,30.34s-56.84-15.42-75.21-30.34C335.84,128,319.3,114.6,285.71,114.6S235.58,128,218.06,142.26c-18.37,14.92-37.37,30.34-75.21,30.34S86,157.18,67.65,142.26C50.13,128,33.58,114.6,0,114.6S-50.13,128-67.64,142.26C-86,157.18-105,172.6-142.85,172.6s-56.84-15.42-75.21-30.34c-17.52-14.22-34.06-27.66-67.65-27.66v-12c37.84,0,56.84,15.42,75.21,30.34,17.52,14.22,34.06,27.66,67.65,27.66s50.13-13.43,67.64-27.66C-56.84,118-37.84,102.6,0,102.6S56.84,118,75.21,132.94c17.52,14.22,34.06,27.66,67.65,27.66S193,147.17,210.5,132.94c18.37-14.92,37.37-30.34,75.21-30.34s56.84,15.42,75.21,30.34c17.52,14.22,34.06,27.66,67.65,27.66s50.13-13.43,67.65-27.66c18.37-14.92,37.37-30.34,75.21-30.34s56.84,15.42,75.21,30.34c17.52,14.22,34.06,27.66,67.65,27.66v12Z"/></svg>
