<svg xmlns="http://www.w3.org/2000/svg" version="1.1" x="0" y="0" viewBox="0 0 52 42.5" xml:space="preserve"><style type="text/css">
	.st0{fill:#1B1B33;}
</style><path class="st0" d="M51.9 21.1c-0.9-0.6-3.2-0.4-3.2-0.4 -2-0.1-5.6 1-5.6 1 0-0.1 0-0.2 0-0.2 -0.3-0.1-2.3-1.7-2.3-1.7 -0.5-0.6-1-1.1-1.3-1.4 0.1-0.1 0.1-0.2 0.1-0.3 0.1-0.1 0.2-0.2 0.2-0.4 0.4-0.4 0.4-2 0.4-2 -0.1-0.9-0.6-0.7-0.6-0.7 -0.4 0.2-0.2 0.6-0.2 0.6 0.2 0.4-0.1 0.7-0.1 0.7 -0.3 0.4-0.3 0-0.3 0 0.2-1.8-1.1-3-1.1-3 0.3 0 0.9 0.7 1 0.9 0 0.1 0.1 0.2 0.2 0.2 0.1 0.1 0.2 0.1 0.3-0.1 0.1-0.1 0.1-0.1 0.1-0.2 -0.3-1.5-2.2-2.1-2.2-2.1 -0.1-0.1-0.3-0.1-0.5-0.2 0-0.6-0.2-1.2-0.2-1.2 -0.3-1.2-0.2-3.4-0.2-3.4 0.3-1.2 0.1-1.1 0.1-1.1 1.9-1.1 3-2.3 3-2.3 0.9-0.6 1.8-1.6 1.8-1.6 1.1-0.9 1.3-1.8 1.3-1.8 0-0.9-0.3-0.1-0.3-0.1 -0.3 1-2.4 2.8-2.4 2.8 -0.6 0.6-4 2.9-4 2.9 -0.6 0.4-0.2 2.8-0.2 2.8 0.3 0.9 0.4 2.1 0.5 2.9 -2.1-0.6-3.9-0.1-3.9-0.1 -3.3 0.8-3.9 2.3-3.9 2.3 -0.4 1 0.2 1.7 0.3 1.9 0 0.1 0.1 0.1 0.2 0.2 0.5 0.3 0.9 0.6 1 1 -0.2-0.1-0.4 0-0.6 0 -0.1 0-0.1 0-0.2-0.1 -0.1-0.2-0.6-0.2-0.7-0.3 0 0 0 0-0.1 0 -0.6-0.3-1.1-0.5-1.2-0.5H27c-0.8-0.3-1.6-0.3-2.3 0 0.1-0.4 0.3-0.8 0.3-0.8 0.1-0.4 1-1.7 1.1-1.9 0 0 0 0 0.1 0 0.3-0.3 0-0.5 0-0.5 0.8-1.9 1-3.2 0.9-3.3l0 0c0.1-0.3 0.7-2.2 0.7-2.2V7.3c0.3-0.2 0.5-0.6 0.5-0.6 -0.1 0-0.1-0.1-0.1-0.1 0.5-0.5 0.9-1.5 0.9-1.5 0.2-0.1 0.3-0.3 0.3-0.3C29.2 4.9 29 4.9 29 4.9c0.1-0.2 0.1-0.6 0.1-0.6 -0.1 0.1 0 0.3 0 0.3 -0.2 0.1-0.8 1.7-0.8 1.6 0-0.1-0.1-0.1-0.1-0.1 0 0.1-0.1 0.5-0.1 0.7l0 0H28h-0.1c-0.1 0.5-0.4 1.1-0.4 1.1 -0.2 0.2-0.3 0.8-0.3 1 0 0 0 0-0.1 0 -0.2 0-0.3 0.3-0.3 0.4l0 0c0 0.3-0.2 0.6-0.2 0.6 -0.2 0.4-0.5 1.4-0.6 1.7 0 0 0 0 0 0.1 0.1 0.3 0 0.5 0 0.6 0 0 0 0-0.1 0s-0.2 0-0.2 0l0 0c0 0.4-0.8 1.7-0.8 1.7 -0.4 0.8-0.6 1.5-0.8 1.9 -0.7 0.4-1.2 0.9-1.4 1h-0.1c-0.6 0.1-1.4 0.7-1.7 1 -0.1 0-0.2 0-0.2 0 0-0.1-0.1-0.9-0.1-0.9 0.9-2.5 0.4-4.5 0.4-4.5 -0.2 0.1-1.1-0.9-1.1-0.9 -2.1-2.1-2.8-2.1-2.8-2.1 0-0.2-1-0.8-1-0.8C15.7 8.4 15.4 8 15.4 8l-0.2-0.1c-0.1-0.2-0.5-0.8-0.5-0.8l-0.1 0.1c-0.5-0.8-1.2-1.8-1.2-1.8 0-0.1-0.1-0.3-0.1-0.3 0 0.1 0 0.3 0 0.3C13 5.7 13.1 6 13.1 6c-0.1 0-0.3 0-0.3 0 0 0.1 0.3 0.1 0.3 0.1 0 0.1 1.4 1.7 1.4 1.7l-0.1 0.1c0.3 0 0.8 0.7 0.8 0.7L15 8.7c0.4 0 2 1.5 2 1.5 0.2 0.7 3.2 2.7 3.2 2.7 -0.2 0.2 0 0.3 0 0.3 0.3 0.4-0.4 1.5-0.4 1.5 -0.7 1.6-0.1 2.8-0.1 2.8 0.1 0.8 0.6 0.9 0.6 0.9s0 0 0 0.1c-0.4 0.3-0.9 0.6-1.4 0.8 -0.2-0.1-0.3 0-0.3-0.1 -0.1-0.1-0.3 0.3-0.3 0.3h-0.2c0 0-0.3-0.5-0.4-0.6 -0.1-0.1 0.4-1.2-3.1-3.2 0 0-0.9-0.8-1.1-0.5 0 0-4.2-0.8-6.5-0.7 0 0-2.7-1.5-2.9-1.8L4 12.9c0 0-0.8-0.4-1.1-0.8l-0.1 0.1c0 0-1.2-1.1-2.1-1.5 0 0 0-0.2-0.1-0.3 0 0 0.1 0.3 0 0.3 0 0-0.2 0-0.2 0.2 0 0 0 0.1-0.3 0.3 0 0 0.3 0 0.4-0.1 0 0 1.3 0.8 2 1.3 0 0 0 0.1 0 0.2 0 0 0.6 0.2 1.1 0.5l-0.1 0.1c0 0 0.4 0.1 2.8 1.6 0 0 0.4 0.5 0.6 0.4s0.8 0.1 1.3 0.1c0.4 0 1.9 0.4 4.3 0.5 0 0 0.4 0 0.4 0.3 0 0 1 0.3 1.8 1.2 0 0 1.4 1.8 2 2.3l0.5 0.4c-0.1 0-0.1 0-0.1 0 -0.3 0.2-0.4 0.6-0.4 0.8 0 0 0 0.1-0.1 0.1 -0.2 0.1-0.4 0.1-0.5 0 0 0 0 0-0.1-0.1 -0.4-0.6-1-0.3-1-0.3 -0.3 0.2-0.2 0.9-0.1 1.4 -0.1 0-0.3 0.1-0.5 0 -0.1 0-0.1-0.1-0.1-0.2 -0.1-0.6-0.9-3.3-6.3-2.8 -0.1 0-0.1 0-0.2 0 -1 0.2-8.2 1.8-7.8 7.1 0 0.2 0.1 0.4 0.1 0.6 0.6 1.2 3.2 5.2 10.5 2.7 0.1 0 0.1 0 0.2 0 0.7-0.4 5.3-2.7 4-5.5 0-0.1 0-0.2 0.1-0.2 0.1-0.1 0.3-0.3 0.4-0.4 0.5 1.1 0.9 1 0.9 1 1.1-0.3 0.6-1.4 0.6-1.4 0-0.1 0.2-0.1 0.4-0.2 0.1 0 0.1 0 0.1 0.1 0.4 0.3 0.8 0.5 1.3 0.5v0.1c0 0-0.5 0.5-0.4 1.1 0 0-0.2 0-0.1 1.9 0 0 0 1.5-0.4 2.9 0 0-0.3 0.3-0.1 0.4 0 0-2.1 3.5-3.5 5.3 0 0-0.8 2.7-1.3 3.5 0 0-0.1 0.1 0 0.2 0 0-0.4 1-0.6 1v0.1c0.1 0-1.1 1.8-1 2.3 0 0-0.2-0.1-0.2 0h0.2c0 0 0 0.2 0.2 0.2 0 0 0.2 0.2 0.3 0.3 0 0 0-0.3-0.1-0.4 0 0 0.6-1.1 0.8-2.3h0.1c0 0 0-0.6 0.4-1.3 0 0 0.1 0 0.1 0.1 0 0 0-0.5 0.4-1.3 0 0 0.7-1.5 0.8-2 0 0 0.4-0.1 1.6-1.8 0 0 1.4-2.1 1.8-3 0 0 0.1-0.3 0.4-0.5 0 0 0.4 0 0.5-0.6 0 0 1.2-3.9 0.4-5.1 0 0 0.1-0.5-0.1-0.9 0 0 0.1-0.1 0.2 0 0 0 0.3 0.1 0.3-0.3l0 0c0.7-0.1 1.4-0.3 1.5-0.3h0.1c0.1 0 0.2 0 0.2 0 0 0.1 0.1 0.1 0.1 0.2 0 0-0.1 0.9 0.2 1.2 0 0 0.1 1 1 2.7 0 0 0.6 0.9 0.8 1.9 0 0 0.3-0.1 0.7 2.1 0 0 0.1 1.2 0.4 1.2 0 0 1.8 1.9 2.1 2 0 0 1.2 1.8 1.2 2.8 0 0-0.4 0.2-0.3 0.3 0 0 0.1-0.1 0.3-0.2 0 0 0.3 0.3 0.4-0.1 0 0 0.2 0.1 0.3 0.1 0 0.1 0-0.2-0.3-0.3 0 0-0.4-1.7-1.4-2.9 0 0 0-0.1 0.1-0.1 0 0-1.8-1.7-2-2 0 0 0.2-1-0.7-2.9 0 0 0.2-0.5 0-0.7 0 0-1.3-3.4-2-4.5 0 0 0-0.4-0.1-0.6 0 0-0.2-0.3 0-0.3 0 0 0 0 0.1-0.1 1-0.1 1.4-0.3 1.6-0.3 0.1 0 0.1 0 0.2 0 0.1 0 0.1 0 0.2 0.1 0.5 0.4 1.8 1.3 5 1.8 0 0 0.2 0.2 0.6 0 0 0 1.1 1.3 2.8 1.7 0 0 0.5 0.2 1.1 0.3 0 0 0.4 0 0.6 0.2 0 0 2.8 1.2 3 1 0 0 0.1 0.2 0.1 0.3l0.1-0.2c0 0 0.2 0 0.1-0.1 0 0 0-0.2 0.2-0.2 0 0-0.1-0.1-0.3 0.1 0 0-1.3-0.6-2.9-0.9 0 0-0.4-0.2-0.9-0.3 0 0-1.8-1.2-2.5-1.5 0 0-1.1-0.5-1.2-0.9 0 0-2.1-0.5-3.8-1.1 1.2-0.3 2.1-0.9 2.1-0.9 0.9-0.6 1.6-2.1 1.7-2.5l0.1-0.1c0.5-0.3 0.6-0.5 0.6-0.6v-0.1c0 0.2 0.1 0.5 0.1 0.6s0 0.1-0.1 0.2c-0.2 0.5-0.2 1.1-0.2 1.5 0 0.2 0.1 0.5 0.1 0.7 1.1 2 5.2 0 5.2 0 1.7-0.9 2.5-1.9 2.9-2.6 0.7 0.9 2.3 2.6 2.3 2.6 1.3 1.2 1.6 0.8 1.6 0.8 0.6-0.2 4.4-0.8 4.4-0.8 2.2-0.3 4.2 0.1 4.2 0.1C52.5 21.4 51.9 21.1 51.9 21.1zM32.8 13.3c-0.5 0-1-0.3-1-0.6 0-0.4 0.5-0.7 1-0.7s1 0.3 1 0.6C33.7 13 33.3 13.3 32.8 13.3zM35.8 20.6c-0.5 0.2-1 0.1-1.2-0.2 -0.1-0.3 0.3-0.7 0.7-0.9s1-0.1 1.2 0.2C36.6 20 36.3 20.4 35.8 20.6z"/></svg>