<svg xmlns="http://www.w3.org/2000/svg" version="1.1" x="0" y="0" viewBox="0 0 154.7 245.4" xml:space="preserve"><style type="text/css">
	.st0{fill:#45B7A9;}
	.st1{fill:#191A33;}
	.st2{fill:#FFFFFF;}
</style><path class="st0" d="M136.1 71.7l-5.6-8.5c-0.5-0.7-1.1-1.3-1.6-1.5L93.8 0.8C93.5 0.3 93.1-0.1 93 0l-0.4 0.2c-0.1 0.1 0 0.5 0.3 1.1l34.5 61.3c-0.1 0.6 0.1 1.4 0.5 2.1l4.5 9.1c0.8 1.5 2.1 2.5 2.9 2.1 0 0 0 0 0 0l0 0 1.1-0.6 0 0c0 0 0 0 0 0C137.2 74.8 137.1 73.1 136.1 71.7z"/><path class="st1" d="M146.8 168c-1.4-2.2-5.1-2.8-5.1-2.8 1.5-0.8-7.2-16.1-7.2-16.1 -4.3-12.1-8.4-12.2-8.4-12.2 -2.8-3.2-7.9-2-10.2-1.2 -0.4-2.1-1.1-4.2-2-6.3 4.4-4.7 4.9-9.7 4.9-11.7 0-0.5-0.1-1.1-0.3-1.6 -1.2-3.4-4.2-6.2-7.8-8.6 1.4-0.7 6-3.1 7.6-6.9 0 0 3.4-12.6 5.8-18.7 0 0 1.5-2.2 0.9-3.6 0 0 2.8-2.7 3.4-4.8 0 0 7.5-6.5 6.3-8.3 0 0-1.9-1.3-7.3 5.8 0 0-2.4 0.5-4.7 5.4 0 0-2-0.1-2.2 3.4 0 0-3.9 10.6-5 18 0 0-0.2 2.1-2.8 3.3 0 0-1.5-1.3-3.3 1.4 0 0-1.4 1.3-3.1 2.6 -5.7-2.8-11.8-4.6-15.2-5.5 -0.8-1.3-2.5-2.1-2.5-2.1 0.8-2-0.4-3.3-0.4-3.3 -0.8-1-3-1.2-3.1-1.1 -0.3-0.5-0.6-1-0.9-1.4l0.5-0.3c1-0.7 0.8-2.7 0.8-2.7 6.8-8.3 10.8-18.2 10.8-18.2 2.3-1.5 6-8 6-8 12.9-15 10.3-14.9 10.3-14.9 -3.2-2.1-11.2 13.1-11.2 13.1 -8.8 8.2-16.7 26.2-16.7 26.2 -1.3 0.5-2.4 2.7-2.6 3.1 -3-1.8-6.7-1.7-6.7-1.7 -3.2-0.1-5.6 0.7-7.1 1.4l-0.7-0.7c-2.2-4.7-12.6-19.3-12.6-19.3 -2.6-5.4-6.9-8.8-6.9-8.8 -5.6-12.3-10.6-13.1-10.6-13.1C35.3 48.5 47.5 62 47.5 62c-0.2 2.4 6.6 9.5 6.6 9.5 -0.5 3.3 9.9 13.8 10.4 16.2 0.3 1.5 1.2 2.7 1.9 3.4 -0.3 0.3-0.5 0.5-0.5 0.5 -0.7 0.6-1.5 1.5-1.5 1.5 -2.6-0.3-3.5 1.1-3.5 1.1 -1.6 2.1-0.6 4.4-0.6 4.4 -0.2 0.1-0.4 0.3-0.6 0.5 0 0-0.1 0-0.1 0 -3.4 0.2-6.5 0.9-9.4 1.8 -2-1.3-3.8-2.5-3.8-2.5 -2.2-2.4-3.5-1-3.5-1 -2.7-0.9-3.2-2.9-3.2-2.9 -2.1-7.2-7.4-17.2-7.4-17.2 -0.6-3.4-2.9-2-2.9-2 -2.9-4.5-6.3-4.8-6.3-4.8 -6.3-6.3-8.3-4.9-8.3-4.9 -0.9 2 7.7 6.6 7.7 6.6 0.9 2 5.3 4.1 5.3 4.1 -0.4 1.5 1.4 3.4 1.4 3.4 3.2 5.7 8.3 17.8 8.3 17.8 1.8 2.9 5.5 4.7 7.6 5.5 -4.7 2.4-8.1 5.3-10 7.1 -1.1 1.1-2 2.4-2.5 3.9 -2.3 6.8 1.3 11.9 5.5 15.3 -0.4 1.1-0.9 2.9-1.3 5.6 -2.5-0.5-6-0.6-8 1.8 0 0-4.1 0.1-8.4 12.2 0 0-8.7 15.3-7.2 16.1 0 0-3.8 0.6-5.1 2.8 0 0-10.5 5.5-7.2 9.9 0 0 6.8-8.6 8.5-7.6 0 0 4.1-0.6 5-3.3 0 0 2-1.3 2 0.4 0 0 11.5-29 13.7-27.4 0 0 1.9 1.5 6.3 0.5 0 3.1 0.2 6.9 1 11.4 0 0-3.8 14-1 28.8 -1.8 1.4-3.7 3.2-4.7 5.5 0 0-4 0.6-3.9 23.9 0 0-1.3 16.9 0.7 17.5 0 0-11.2 12.3-5.7 17.8 0 0 0.4-9.3 7.8-16.8 0 0 1.9-0.4 1.4-5.3 0 0-2.1-31.3 1.7-35.3 0 0 2.9 0.4 4.6-0.1 3.7 10.5 11.5 20.3 27.2 24.7 0 0 8.6 8.8 21.7 0 0 0 19.2-3.3 27-24.9l2.9 2c2.5 0.7 5.1-1.2 5.1-1.2 4.4 6.7 9.5 38.6 9.5 38.6 0.3 1.5 10.4 9 10.4 9 2.8 6.6 4.7 6.9 4.7 6.9 -0.4-9.5-12.1-17.2-12.1-17.2 1.9-1.6-3.2-21.2-3.2-21.2 -5.1-20.4-8.4-18.6-8.4-18.6 -1.8-3-5-4.3-7-4.8 1.7-7.8 2.1-17.5 0.2-29.5 0 0 1.1-5.3 0.5-11.9l1.7 0.7c4.6 1 6.5-0.5 6.5-0.5 2.2-1.5 13.7 27.4 13.7 27.4 0-1.7 2-0.4 2-0.4 0.9 2.7 5 3.3 5 3.3 1.8-1 8.5 7.6 8.5 7.6C157.4 173.6 146.8 168 146.8 168z"/><path class="st2" d="M48.7 131.1c-4.5-2.2-13.1-7.6-10.2-16.6 0.4-1.3 1.2-2.4 2.2-3.3 3-2.8 10.7-9.1 21.2-9.6 0.5 0 1.1 0 1.6 0.2 2.7 0.7 13.1 3.2 22.1 0.3 0.9-0.3 1.8-0.3 2.7-0.1 5 1.2 21.2 5.8 24.2 14.3 0.2 0.4 0.2 0.9 0.2 1.3 0 2.1-0.6 8.7-8.4 13.4 -1.3 0.7-2.8 0.9-4.2 0.3 -1.6-0.7-4.2-1.4-7.6-1.5 0 0-27.7-0.8-34.6-0.1 0 0-2.8 0.3-5 1.5C51.6 131.7 50 131.7 48.7 131.1z"/><path class="st1" d="M88.9 113.6c0 1.3 2.1 1.3 2.1 0C91 112.3 88.9 112.3 88.9 113.6L88.9 113.6z"/><path class="st1" d="M84.6 107.9c0 1.3 2.1 1.3 2.1 0S84.6 106.7 84.6 107.9L84.6 107.9z"/><path class="st1" d="M97.5 114.1c0 1.3 2.1 1.3 2.1 0C99.6 112.9 97.5 112.9 97.5 114.1L97.5 114.1z"/><path class="st1" d="M78.9 97.6c0 1.3 2.1 1.3 2.1 0C81 96.4 78.9 96.4 78.9 97.6L78.9 97.6z"/><path class="st1" d="M67.9 109.4c0 1.3 2.1 1.3 2.1 0C70 108.2 67.9 108.2 67.9 109.4L67.9 109.4z"/><path class="st1" d="M77.3 112.1c0 1.3 2.1 1.3 2.1 0S77.3 110.8 77.3 112.1L77.3 112.1z"/><path class="st1" d="M64.6 120.7c0 1.3 2.1 1.3 2.1 0C66.7 119.4 64.6 119.4 64.6 120.7L64.6 120.7z"/><path class="st1" d="M73.8 125.7c0 1.3 2.1 1.3 2.1 0C75.9 124.5 73.8 124.5 73.8 125.7L73.8 125.7z"/><path class="st1" d="M93.8 120.7c0 1.3 2.1 1.3 2.1 0C95.9 119.4 93.8 119.4 93.8 120.7L93.8 120.7z"/><path class="st1" d="M85.1 120.3c0 1.3 2.1 1.3 2.1 0C87.1 119 85.1 119 85.1 120.3L85.1 120.3z"/><path class="st1" d="M106.5 122.3c0 1.3 2.1 1.3 2.1 0C108.6 121.1 106.5 121.1 106.5 122.3L106.5 122.3z"/><path class="st1" d="M87 126.9c0 1.3 2.1 1.3 2.1 0C89 125.7 87 125.7 87 126.9L87 126.9z"/><path class="st1" d="M91.8 106.3c0 1.3 2.1 1.3 2.1 0S91.8 105.1 91.8 106.3L91.8 106.3z"/><path class="st1" d="M86.7 97.6c0 1.3 2.1 1.3 2.1 0C88.7 96.4 86.7 96.4 86.7 97.6L86.7 97.6z"/><path class="st1" d="M109.6 105.1c0 1.3 2.1 1.3 2.1 0S109.6 103.8 109.6 105.1L109.6 105.1z"/><path class="st1" d="M100.4 120.4c0 1.3 2.1 1.3 2.1 0C102.5 119.2 100.4 119.2 100.4 120.4L100.4 120.4z"/><path class="st1" d="M105.9 115.5c0 1.3 2.1 1.3 2.1 0S105.9 114.2 105.9 115.5L105.9 115.5z"/><path class="st1" d="M100.3 126.6c0 1.3 2.1 1.3 2.1 0C102.3 125.4 100.3 125.4 100.3 126.6L100.3 126.6z"/><path class="st1" d="M77.8 106.2c0 1.3 2.1 1.3 2.1 0C79.8 105 77.8 105 77.8 106.2L77.8 106.2z"/><path class="st1" d="M70.5 101.3c0 1.3 2.1 1.3 2.1 0C72.6 100 70.5 100 70.5 101.3L70.5 101.3z"/><path class="st1" d="M60.7 107.6c0 1.3 2.1 1.3 2.1 0C62.7 106.4 60.7 106.3 60.7 107.6L60.7 107.6z"/><path class="st1" d="M63.6 115.1c0 1.3 2.1 1.3 2.1 0S63.6 113.8 63.6 115.1L63.6 115.1z"/><path class="st1" d="M52.3 113.8c0 1.3 2.1 1.3 2.1 0S52.3 112.5 52.3 113.8L52.3 113.8z"/><path class="st1" d="M49.8 108.6c0 1.3 2.1 1.3 2.1 0C51.8 107.3 49.8 107.3 49.8 108.6L49.8 108.6z"/><path class="st1" d="M42.9 113c0 1.3 2.1 1.3 2.1 0C44.9 111.8 42.9 111.7 42.9 113L42.9 113z"/><path class="st1" d="M50.8 121.2c0 1.3 2.1 1.3 2.1 0C52.9 120 50.8 119.9 50.8 121.2L50.8 121.2z"/><path class="st1" d="M57.1 123.7c0 1.3 2.1 1.3 2.1 0C59.1 122.4 57.1 122.4 57.1 123.7L57.1 123.7z"/><path class="st1" d="M57.2 117.9c0 1.3 2.1 1.3 2.1 0S57.2 116.6 57.2 117.9L57.2 117.9z"/><path class="st1" d="M49.2 127.5c0 1.3 2.1 1.3 2.1 0C51.2 126.2 49.2 126.2 49.2 127.5L49.2 127.5z"/><path class="st1" d="M42.2 120.3c0 1.3 2.1 1.3 2.1 0C44.3 119 42.2 119 42.2 120.3L42.2 120.3z"/><path class="st1" d="M55 104.5c0 1.3 2.1 1.3 2.1 0C57.1 103.3 55 103.2 55 104.5L55 104.5z"/><path class="st1" d="M70.5 117.9c0 1.3 2.1 1.3 2.1 0C72.6 116.7 70.5 116.7 70.5 117.9L70.5 117.9z"/><path class="st1" d="M77.4 118.9c0 1.3 2.1 1.3 2.1 0C79.5 117.6 77.4 117.6 77.4 118.9L77.4 118.9z"/><path class="st1" d="M64.6 126.1c0 1.3 2.1 1.3 2.1 0C66.7 124.9 64.6 124.9 64.6 126.1L64.6 126.1z"/><path class="st2" d="M76 212.2c6.6 0 12.5-10.4 13.6-12.4 0.1-0.2 0.2-0.4 0.3-0.7 0.6-2 3.7-12.3 5.2-28.7 0-0.5-0.1-1-0.4-1.5 -0.9-1.1-2.7-3.2-3.8-3.5 0 0-1.9-0.7-11 0.5 0 0-2.8 0.9-7.7 0 -9.1-1.2-11-0.5-11-0.5 -1.2 0.3-3 2.4-3.8 3.5 -0.3 0.4-0.5 0.9-0.4 1.5 1.5 16.4 4.6 26.7 5.2 28.7 0.1 0.2 0.2 0.4 0.3 0.7C63.5 201.8 69.4 212.2 76 212.2"/><path class="st1" d="M66 182.4c1.3 0 1.3-2 0-2C64.6 180.5 64.6 182.4 66 182.4L66 182.4z"/><path class="st1" d="M71.9 172.9c1.3 0 1.3-2 0-2C70.6 170.9 70.6 172.9 71.9 172.9L71.9 172.9z"/><path class="st1" d="M77.7 185.5c1.3 0 1.3-2 0-2C76.4 183.6 76.4 185.5 77.7 185.5L77.7 185.5z"/><path class="st1" d="M85.9 177.7c1.3 0 1.3-2 0-2S84.6 177.7 85.9 177.7L85.9 177.7z"/><path class="st1" d="M90 183.9c1.3 0 1.3-2 0-2C88.6 181.9 88.6 183.9 90 183.9L90 183.9z"/><path class="st1" d="M84.3 169.1c1.3 0 1.3-2 0-2C83 167.2 83 169.1 84.3 169.1L84.3 169.1z"/><path class="st1" d="M62 170.1c1.3 0 1.3-2 0-2S60.7 170.1 62 170.1L62 170.1z"/><path class="st1" d="M64 189.3c1.3 0 1.3-2 0-2C62.7 187.3 62.7 189.3 64 189.3L64 189.3z"/><path class="st1" d="M71.9 186.5c1.3 0 1.3-2 0-2C70.6 184.6 70.5 186.5 71.9 186.5L71.9 186.5z"/><path class="st1" d="M70.7 194.7c1.3 0 1.3-2 0-2C69.4 192.7 69.3 194.7 70.7 194.7L70.7 194.7z"/><path class="st1" d="M66 199.7c1.3 0 1.3-2 0-2C64.7 197.7 64.7 199.7 66 199.7L66 199.7z"/><path class="st1" d="M69.7 203.9c1.3 0 1.3-2 0-2C68.4 202 68.3 203.9 69.7 203.9L69.7 203.9z"/><path class="st1" d="M78.3 198.7c1.3 0 1.3-2 0-2C77 196.7 77 198.7 78.3 198.7L78.3 198.7z"/><path class="st1" d="M77.7 191.8c1.3 0 1.3-2 0-2C76.4 189.8 76.4 191.8 77.7 191.8L77.7 191.8z"/><path class="st1" d="M86.9 192.7c1.3 0 1.3-2 0-2C85.6 190.8 85.6 192.7 86.9 192.7L86.9 192.7z"/><path class="st1" d="M85.3 200.7c1.3 0 1.3-2 0-2C84 198.7 83.9 200.7 85.3 200.7L85.3 200.7z"/><path class="st1" d="M77.3 206.9c1.3 0 1.3-2 0-2C76 204.9 76 206.9 77.3 206.9L77.3 206.9z"/><path class="st1" d="M74.9 179.9c1.3 0 1.3-2 0-2C73.5 178 73.5 179.9 74.9 179.9L74.9 179.9z"/><path class="st1" d="M63 175.8c1.3 0 1.3-2 0-2C61.7 173.8 61.7 175.8 63 175.8L63 175.8z"/><path class="st1" d="M78.7 174.4c1.3 0 1.3-2 0-2C77.4 172.5 77.4 174.4 78.7 174.4L78.7 174.4z"/><path class="st1" d="M84.3 183.9c1.3 0 1.3-2 0-2C82.9 181.9 82.9 183.9 84.3 183.9L84.3 183.9z"/><path class="st1" d="M90.4 173.6c1.3 0 1.3-2 0-2C89.1 171.7 89.1 173.6 90.4 173.6L90.4 173.6z"/></svg>