<svg xmlns="http://www.w3.org/2000/svg" version="1.1" x="0" y="0" viewBox="0 0 432.5 356.4" xml:space="preserve">
  <style type="text/css">
    
	.st0{fill:#191A33;}
	.st1{fill:#FFFFFF;}
	.st2{fill:#E6311F;}
	.st3{fill:#EB5842;}

  </style>
  <path class="st0" d="M394 125.1c-1.5-0.6-3.1-1.1-4.6-1.3 -10.8-1.7-57.2-8.6-79.1-8.7 -0.3 0-0.7 0-1-0.1 -4.1-0.8-31.7-6.2-37.3-9 0 0-12.8-5.1-25.4-9 7.8 1 14.4 2.6 16 3 0.2 0.1 0.4 0.1 0.7 0.2 16.4 5.8 53.4 5.7 54.8 5.7 0 0 0.1 0 0.1 0 12.9 1.1 34.8-7 41.2-9.6 1.1-0.4 3.7-2.2 4.8-2.6 10.4-4.7 10-5.7 11.8-6.2 0.4-0.1 0.8-0.2 1.2-0.3 13.1-4.8 36.2-21.2 36.2-21.2 22.7-17.2 18.9-26.2 18.9-26.2 -5.9-16.5-34.4-15.2-34.4-15.2 -12.8-1.3-59.6 16.7-59.6 16.7 -6.3 3.4-62.6 9.7-62.6 9.7 -19.5 0.7-36.5 10.2-45.5 16.2 -0.3-0.8-0.7-1.4-0.9-1.9 -0.4-0.7-0.3-1.6 0.1-2.2 6.4-9.4-2.9-18.3-5.4-20.5 -0.4-0.3-0.6-0.8-0.7-1.3 0-0.2-0.1-0.4-0.1-0.6 2.2 1.6 5.3 2.9 5.3 2.9 3.9 2 14.9 0 14.9 0 3.9 0.3 5.5-17.8 5.5-17.8 0.5-5.7 0-9.7-0.2-11.3 -0.1-0.5 0-1 0.3-1.5 1.7-2.8 5.2-9.8 5.2-9.8 1.6-2.3 0-2.7 0-2.7 -1-0.5-1.1 0.6-1.1 0.6 0.6 1.4-4.6 9.7-6.4 12.6 -0.3 0.5-0.4 1.2-0.2 1.8 1.2 4.3-1.1 20.4-1.1 20.4 -0.4 2.5-1.8 2.8-1.8 2.8 -6.9 2.4-10.7 1.9-12.8 0.7 3.6-1.5 4.6-4.4 4.8-5.1 0-0.1 0-0.2 0.1-0.3 1.4-10.8-6.3-16.5-8.7-17.9 -0.4-0.3-0.7-0.7-0.9-1.3C223.8 6.3 214.2 6 213 6c-0.1 0-0.2 0-0.2 0 -9.6 1.4-10.7 7.6-10.8 10.2 0 0.7-0.4 1.4-1 1.7 -11.8 6.5-7.6 17.3-7.6 17.3 0.6 1.8 2 3 3.7 3.8 -2.3 0.7-6.7 1.4-12.9-1.1 -0.6-0.2-1-0.8-1.1-1.5 -0.6-3.3-2.4-13.9-1.4-22.5 0.1-0.5 0-0.9-0.3-1.3 -1.4-2.4-6.3-11.2-6.4-12.5 0 0-1.1-0.7-1.4 0.3 0 0 2.8 7.2 5.1 11 0.2 0.3 0.3 0.7 0.3 1.2 -0.1 3.5-0.3 20.1 1.9 24.8 0 0 2.2 4.8 4.9 5.8 0 0 5.4 1.7 14.5 0.6 0 0 1-0.1 2.3-0.2 -9.1 8.7-5.7 15.8-4.3 18.1 0.3 0.5 0.4 1.2 0.2 1.8 -0.4 1.2-0.6 2.4-0.9 3.6 -10.7-6.6-37.9-19.1-93.6-21.3 -0.8 0-1.6-0.2-2.5-0.4 -7.7-2-49.5-13.1-59.4-17.9 -1.2-0.6-2.6-1-3.9-1.1 -5.6-0.5-19.9-1.4-30 2.7C0 32.8-2.8 44.8 3.2 52.5 8 58.5 17.1 66.6 34.3 75.8c0 0 13.7 7.9 23.5 10.1 0.5 0.1 1 0.2 1.5 0.2 1.6 0.1 6.5 1 12.1 5.7 6.9 5.8 36 15.3 52.1 14.1 0 0 50.6-4 72.6-12.2 0.8-0.3 1.6-0.7 2.3-1.2 -0.1 0.7-0.1 1.3-0.1 1.9 -22.5 8.4-69.5 22.9-77.4 25.4 -0.8 0.2-1.5 0.4-2.3 0.4 -41 3-60.2 8.4-62.9 9.2 -0.2 0.1-0.5 0.1-0.8 0.2 -30.7 6.5-43.1 16.6-48.2 23.8 -3.7 5.3-3.3 13 1.1 17.6 16.7 17.8 72.6 19.9 80.9 20.1 0.7 0 1.4 0.1 2.1 0.3 21.2 4.9 35.2 2.4 38.1 1.7 0.5-0.1 0.9-0.2 1.4-0.2 60.4-4.8 74-25.7 76.9-36.5 0.9-3.2 0.5-6.7-0.8-9.6 -3.6-7.8-3.3-14.2-2.1-18.9 1.3 8.5 3.8 13.4 3.8 13.4 4.9 8.8 2.4 17.1 2.4 17.1 -3.1 11.2-2.1 17.8-1.8 19.5 0.1 0.3 0.1 0.6 0 0.9 -1.5 7.6 0 20.7 0.3 23.2 0 0.3 0 0.5 0 0.8 -2.2 9.3-0.1 30.8 0.2 33.5 0 0.2 0 0.4 0 0.6 -2.5 14.7-1.2 24.8-1 26.4 0 0.1 0 0.3 0 0.4 -0.9 15.7 0.3 38.3 0.4 40.7 0 0.1 0 0.3 0 0.4 -1.6 10.1 0.3 20.9 0.7 23 0 0.3 0 0.5 0 0.8 -1 6.2 0.3 18.8 0.3 18.8 0.2 1.7 0.4 3.3 0.7 4.6 0.5 2.5 3.9 1.7 3.5-0.9 -0.2-0.9-0.3-1.6-0.3-1.6 -0.1-0.4-0.2-1.3-0.2-2.4 0-1.1 0.8-1.9 1.7-2 0.1 0 0.2-0.1 0.2-0.1 1.1-0.3 1.7-5.6 1.7-5.6 0.4 2.3-0.2 8.3-0.4 9.8 0 0.2-0.1 0.4-0.2 0.6 -0.7 1.6-1.1 3-1.2 4.1 -0.3 2.3 2.6 3.2 3.4 1 3.6-10.1 3.1-24.3 3-27.2 0-0.4 0.1-0.7 0.2-1 2.2-4.9 1.4-19.2 1.2-21.4 0-0.2 0-0.4 0-0.6 2.3-10.6 0.7-37.2 0.5-40.6 0-0.2 0-0.5 0.1-0.7 2.1-7.6 0.7-22.9 0.4-26 0-0.4 0-0.7 0.2-1 3.2-8.1 1.6-30.2 1.4-33.1 0-0.2 0-0.4 0.1-0.7 1.6-6.9-0.7-21.7-1.1-24.6 -0.1-0.3 0-0.7 0.1-1 1.3-4.6-2.3-16.8-2.6-17.9 0-0.1 0-0.1 0-0.2 -2-9.2 0.7-16.5 1.2-17.7 0.1-0.1 0.1-0.2 0.2-0.3 2-2.9 3-9.1 3.5-15.5 1.1 5 1.2 12.1-1.6 21.7 -0.2 0.8-0.3 1.6-0.3 2.4 0.2 5.2 2.5 24.3 26.4 30.2 0.2 0 0.3 0.1 0.5 0.1 3 1.1 36.2 12.7 66.5 11.2 0 0 17.1-0.6 25.4-5.4 1.2-0.7 2.5-1 3.9-1 10.8 0.1 56.6-1.2 79.4-25.3 0.5-0.5 0.9-1.1 1.2-1.7C429.8 153.6 432 140.7 394 125.1z"/>
  <path class="st1" d="M63.8 83.6c-1.5-0.5-2.6 0-3.2-0.1 -0.5 0-0.9-0.1-1.4-0.2 -9.3-2.1-22.3-9.6-22.3-9.6C20.6 65 11.9 58 7.3 52.2 1.6 45 4 34.6 12.1 31.2c9.6-4 23.3-1.9 28.7-1.4 1.3 0.1 2.6 0.5 3.8 1.1 9.6 4.5 44.9 13.9 52.2 15.8 0 0 4.4 1.2 4.4 1.2 1.2 0.3 1.9 1.7 1.5 3 -2.6 7.6-10.8 27.2-20.6 25.2 -2.8-0.6-5 1.5-6.5 4.3C73.1 84.8 68.3 85 63.8 83.6z"/>
  <path class="st1" d="M96.7 188c-2.1-0.2-0.2-0.2-3.4-0.5 -1.5-0.1-2.2-0.2-3-0.3 -6.9-1.2-34.2-3.1-34.2-3.1 -20.4-1.8-32.2-5.9-39.1-10 -8.7-5-9.9-17.2-2.5-24.4 8.8-8.6 24-13.3 29.9-15.3 1.4-0.5 3-0.2 4.4-0.6 31.9-7.9 58.3-7.7 66.7-9 0 0 5.1-0.8 5.1-0.8 1.4-0.2 2.6 0.9 2.6 2.5 0 9.3-10.8 9.6-9.9 24 0.3 5 3.4 20 4.3 28.5C119.2 194.5 110.8 189.5 96.7 188z"/>
  <path class="st1" d="M114.1 50.4c46.7 2.8 69.9 13.6 79.3 19.4 3.2 2-2.4 3.7-1.8 7.8v0c1 6.6 5.4 11.8-0.2 13.9C171 98.9 124.5 102 124.5 102c-11.9 0.9-31.7-4.7-42.3-9.7 -2.2-1-1.9-4.5 0.4-5.2 7-1.9 11.2-2.1 20.6-10.8 2-1.9 2.4-3.2 5.3-5.4 1.8-1.3 2.7-3.7 2.3-6.1l-1.5-8.9c0-0.1 0 0 0-0.2C109.2 55.3 109.7 50.1 114.1 50.4z"/>
  <path class="st1" d="M123.8 137.5c-1.2 2.1-0.6 9.4-1.7 12.5 -5 14.5 4.2 7 1 30.4 -0.4 2.6-0.6 6.1 1.8 6.5 10.9 1.7 27 1 38.2-3.7 2-0.8 4.1-1.4 6.2-1.8 5.7-1.1 16.8-8.1 29.8-19.3 5.6-4.8 1.3-10.7-3.9-27.5 -1.8-5.7-1.3-6.3 1.8-10.7 0.8-1.2 1.9-2.8 2.3-4.4 0.2-0.8 0.1-1.6-0.2-2.4l0 0c-0.4-1-1.1-1.8-2-2.1 -0.4-0.2-1-0.4-1.7-0.9 -1.6-1.3-1.6-2.7-1.5-3.6 0.5-2.7 0.5-5.9-2-6.6 -10.4-3.2-16.9 2.8-54.6 16.1 -4.3 1.5-5.2 3.4-9 10.9C126.7 134.2 126.6 132.6 123.8 137.5z"/>
  <path class="st2" d="M57.8 85.9"/>
  <path class="st1" d="M366.5 81.8c2.8-0.9 3.9-0.7 4.7-0.8 0.5 0 0.9-0.1 1.4-0.2 9.3-2.1 20.1-7.1 20.1-7.1 16-8.6 24.7-15.5 29.4-21.3 5.6-6.9 3.3-18-4.6-21.2 -8.5-3.5-20.1-2.3-26.5-1.6 -2.6 0.3-5.1 0.9-7.5 1.9 -11.2 4.7-42.1 14-49.1 15.9 0 0-4.4 1.2-4.4 1.2 -1.2 0.3-2 1.8-1.5 3 4.6 10.1-0.5 12.8 2 17.3 3.9 7.1 12.9 9.2 18.9 8 2.8-0.6 4.7-0.4 6.2 2.3C358 83.3 362.3 83.3 366.5 81.8z"/>
  <path class="st1" d="M319.4 50.4c-46.7 2.8-74.4 8.8-83.3 18.1 -1.7 1.8 0.8 5.3 1.6 7.8 0.2 0.6 0.2 1.2 0.2 1.9l-0.1 1c-0.9 5.7 2.3 10.3 7.2 11.9 21.2 6.9 60.2 10.9 60.2 10.9 11.9 0.9 38-4.7 48.5-9.7 2.1-1 1.9-4.5-0.3-5.1 -6.4-1.8-11.6 2.7-23.6-7.8 -1.6-1.3-2.7-3.3-2.9-5.5 -0.1-1-0.5-2-1.7-3 -1.8-1.3-2.7-3.7-2.3-6.1l1.5-8.9c0-0.1 0 0 0-0.2C324.3 54.7 323.8 50.1 319.4 50.4z"/>
  <path class="st1" d="M332.3 181.2c0.9-0.6 1.9-1 2.9-1.3 0.2-0.1 0.7-0.1 2-0.2 1.5-0.1 2.2-0.2 3-0.3 6.9-1.2 34.2-0.6 34.2-0.6 21-1.9 32.8-9.1 39.7-13.4 7.8-4.9 14.8-16.3 1.9-23.3 -10.3-5.6-17.9-10.1-29.9-14.2 -1.4-0.5-2.4-0.4-4.4-0.6 -41.6-4.1-37.1-7.1-63.3-7.7 0 0-5.1-0.8-5.1-0.8 -1.4-0.2-2.6 0.9-2.6 2.5 0 9.3 7.4 7 6.5 21.5 -0.3 5-3.4 20-4.3 28.5C310.6 192.7 327.2 184.4 332.3 181.2z"/>
  <path class="st1" d="M233.7 115.2c-0.3 0.4-0.6 0.8-0.7 1.3l-0.1 1.1c0 0 3.4 12.3 2.1 15.5 -7.2 18-5.4 25.9 0.2 30.7 13 11.2 21.9 12.5 27.6 13.6 2.1 0.4 4.2 1 6.2 1.8 11.3 4.6 21.6 4.8 32.6 3 2.4-0.4 5.8-3.3 6.4-5.9 6.9-32.2 0.4-42.9 0.4-42.9 -2.9-4.9-3-3.2-4.6-6.5 -3.7-7.6-4.7-9.4-9-10.9 -25-8.8-36.2-10-44-11.9 -8.1-1.9-6.6 7.3-12.4 8.3C238 112.6 234.9 113.9 233.7 115.2z"/>
  <path class="st0" d="M407.9 56.9c0-1.5-2.4-1.5-2.4 0C405.5 58.5 407.9 58.5 407.9 56.9L407.9 56.9z"/>
  <path class="st0" d="M398.9 55.7c0-1.5-2.4-1.5-2.4 0C396.6 57.3 398.9 57.3 398.9 55.7L398.9 55.7z"/>
  <path class="st0" d="M402.3 37.6c0-1.5-2.4-1.5-2.4 0C399.9 39.1 402.3 39.1 402.3 37.6L402.3 37.6z"/>
  <path class="st0" d="M392.4 43.8c0-1.5-2.4-1.5-2.4 0C390 45.4 392.4 45.4 392.4 43.8L392.4 43.8z"/>
  <path class="st0" d="M383 54.6c0-1.5-2.4-1.5-2.4 0C380.6 56.2 383 56.2 383 54.6L383 54.6z"/>
  <path class="st0" d="M372.6 57.2c0-1.5-2.4-1.5-2.4 0C370.2 58.8 372.6 58.8 372.6 57.2L372.6 57.2z"/>
  <path class="st0" d="M356.7 48.3c0-1.5-2.4-1.5-2.4 0C354.4 49.8 356.7 49.8 356.7 48.3L356.7 48.3z"/>
  <path class="st0" d="M362 53.4c0-1.5-2.4-1.5-2.4 0C359.6 55 362 55 362 53.4L362 53.4z"/>
  <path class="st0" d="M349.9 60.8c0-1.5-2.4-1.5-2.4 0C347.6 62.4 349.9 62.4 349.9 60.8L349.9 60.8z"/>
  <path class="st0" d="M345.6 52.8c0-1.5-2.4-1.5-2.4 0C343.2 54.4 345.6 54.4 345.6 52.8L345.6 52.8z"/>
  <path class="st0" d="M335.9 51.7c0-1.5-2.4-1.5-2.4 0C333.5 53.2 335.9 53.2 335.9 51.7L335.9 51.7z"/>
  <path class="st0" d="M340.4 63.7c0-1.5-2.4-1.5-2.4 0C338 65.2 340.4 65.2 340.4 63.7L340.4 63.7z"/>
  <path class="st0" d="M376.7 68.1c0-1.5-2.4-1.5-2.4 0C374.4 69.6 376.7 69.6 376.7 68.1L376.7 68.1z"/>
  <path class="st0" d="M375.6 76.2c0-1.5-2.4-1.5-2.4 0C373.2 77.8 375.6 77.8 375.6 76.2L375.6 76.2z"/>
  <path class="st0" d="M366.4 72.8c0-1.5-2.4-1.5-2.4 0C364.1 74.3 366.4 74.3 366.4 72.8L366.4 72.8z"/>
  <path class="st0" d="M355.2 69.2c0-1.5-2.4-1.5-2.4 0C352.8 70.8 355.2 70.8 355.2 69.2L355.2 69.2z"/>
  <path class="st0" d="M364.4 62c0-1.5-2.4-1.5-2.4 0C362 63.6 364.4 63.6 364.4 62L364.4 62z"/>
  <path class="st0" d="M346.7 71.5c0-1.5-2.4-1.5-2.4 0C344.4 73 346.7 73 346.7 71.5L346.7 71.5z"/>
  <path class="st0" d="M390.5 59.2c0-1.5-2.4-1.5-2.4 0C388.1 60.8 390.5 60.8 390.5 59.2L390.5 59.2z"/>
  <path class="st0" d="M379.9 45c0-1.6-2.4-1.6-2.4 0C377.5 46.6 379.9 46.6 379.9 45L379.9 45z"/>
  <path class="st0" d="M367.4 47c0-1.6-2.4-1.6-2.4 0C365 48.7 367.4 48.7 367.4 47L367.4 47z"/>
  <path class="st0" d="M406.7 45c0-1.5-2.4-1.5-2.4 0C404.4 46.6 406.7 46.6 406.7 45L406.7 45z"/>
  <path class="st0" d="M397.8 67.8c0-1.5-2.4-1.5-2.4 0C395.4 69.4 397.8 69.4 397.8 67.8L397.8 67.8z"/>
  <path class="st0" d="M387.4 68.6c0-1.5-2.4-1.5-2.4 0C385 70.1 387.4 70.1 387.4 68.6L387.4 68.6z"/>
  <path class="st0" d="M381.1 36.3c0-1.5-2.4-1.5-2.4 0C378.7 37.8 381.1 37.8 381.1 36.3L381.1 36.3z"/>
  <path class="st0" d="M395.4 34c0-1.5-2.4-1.5-2.4 0C393 35.5 395.4 35.5 395.4 34L395.4 34z"/>
  <path class="st0" d="M418.5 46.8c0-1.5-2.4-1.5-2.4 0C416.1 48.4 418.5 48.4 418.5 46.8L418.5 46.8z"/>
  <path class="st0" d="M413 35.7c0-1.5-2.4-1.5-2.4 0C410.7 37.3 413 37.3 413 35.7L413 35.7z"/>
  <path class="st0" d="M255.1 66.3c-0.4 1.5 1.8 2.1 2.3 0.7C257.8 65.5 255.5 64.8 255.1 66.3L255.1 66.3z"/>
  <path class="st0" d="M263.3 70c-0.4 1.5 1.8 2.1 2.3 0.7C266.1 69.2 263.8 68.5 263.3 70L263.3 70z"/>
  <path class="st0" d="M266.2 83.3c-0.4 1.5 1.8 2.1 2.3 0.7C268.9 82.5 266.6 81.8 266.2 83.3L266.2 83.3z"/>
  <path class="st0" d="M255 83.5c-0.4 1.5 1.8 2.1 2.3 0.7C257.7 82.7 255.4 82 255 83.5L255 83.5z"/>
  <path class="st0" d="M278.3 75.7c-0.4 1.5 1.8 2.1 2.3 0.7C281 74.9 278.7 74.2 278.3 75.7L278.3 75.7z"/>
  <path class="st0" d="M289 76.2c-0.4 1.5 1.8 2.1 2.3 0.7C291.8 75.4 289.5 74.7 289 76.2L289 76.2z"/>
  <path class="st0" d="M301.6 89.4c-0.4 1.5 1.8 2.1 2.3 0.7C304.3 88.6 302 87.9 301.6 89.4L301.6 89.4z"/>
  <path class="st0" d="M298.1 82.9c-0.4 1.5 1.8 2.1 2.3 0.7C300.8 82.1 298.5 81.4 298.1 82.9L298.1 82.9z"/>
  <path class="st0" d="M311.7 79.3c-0.4 1.5 1.8 2.1 2.3 0.7C314.4 78.5 312.2 77.8 311.7 79.3L311.7 79.3z"/>
  <path class="st0" d="M313.6 88.3c-0.4 1.5 1.8 2.1 2.3 0.7C316.3 87.4 314.1 86.8 313.6 88.3L313.6 88.3z"/>
  <path class="st0" d="M322.5 92.2c-0.4 1.5 1.8 2.1 2.3 0.7C325.3 91.4 323 90.7 322.5 92.2L322.5 92.2z"/>
  <path class="st0" d="M329.3 87c-0.4 1.5 1.8 2.1 2.3 0.7C332 86.2 329.8 85.5 329.3 87L329.3 87z"/>
  <path class="st0" d="M310.5 97.3c-0.4 1.5 1.8 2.1 2.3 0.7C313.3 96.5 311 95.8 310.5 97.3L310.5 97.3z"/>
  <path class="st0" d="M292.8 96.1c-0.4 1.5 1.8 2.1 2.3 0.7C295.6 95.3 293.3 94.6 292.8 96.1L292.8 96.1z"/>
  <path class="st0" d="M339.3 91.9c-0.4 1.5 1.8 2.1 2.3 0.7C342 91.1 339.7 90.4 339.3 91.9L339.3 91.9z"/>
  <path class="st0" d="M321.7 79.4c-0.4 1.5 1.8 2.1 2.3 0.7C324.4 78.6 322.1 77.9 321.7 79.4L321.7 79.4z"/>
  <path class="st0" d="M288.2 64.6c-0.4 1.5 1.8 2.1 2.3 0.7C290.9 63.8 288.6 63.1 288.2 64.6L288.2 64.6z"/>
  <path class="st0" d="M291.7 57.2c-0.4 1.5 1.8 2.1 2.3 0.7C294.4 56.4 292.1 55.7 291.7 57.2L291.7 57.2z"/>
  <path class="st0" d="M299.4 63.1c-0.4 1.5 1.8 2.1 2.3 0.7C302.1 62.3 299.8 61.6 299.4 63.1L299.4 63.1z"/>
  <path class="st0" d="M309.9 62.2c-0.4 1.5 1.8 2.1 2.3 0.7C312.7 61.4 310.4 60.7 309.9 62.2L309.9 62.2z"/>
  <path class="st0" d="M311.7 55.8c-0.4 1.5 1.8 2.1 2.3 0.7C314.4 54.9 312.2 54.3 311.7 55.8L311.7 55.8z"/>
  <path class="st0" d="M309.1 69.8c-0.4 1.5 1.8 2.1 2.3 0.7C311.8 69 309.6 68.3 309.1 69.8L309.1 69.8z"/>
  <path class="st0" d="M298.2 74c-0.4 1.5 1.8 2.1 2.3 0.7C301 73.2 298.7 72.5 298.2 74L298.2 74z"/>
  <path class="st0" d="M317.9 70.1c-0.4 1.5 1.8 2.1 2.3 0.7C320.6 69.3 318.3 68.6 317.9 70.1L317.9 70.1z"/>
  <path class="st0" d="M272.4 69.1c-0.4 1.5 1.8 2.1 2.3 0.7C275.2 68.3 272.9 67.6 272.4 69.1L272.4 69.1z"/>
  <path class="st0" d="M278.5 85.8c-0.5 1.5 1.8 2.2 2.3 0.7C281.2 84.9 279 84.2 278.5 85.8L278.5 85.8z"/>
  <path class="st0" d="M291 87.5c-0.5 1.5 1.8 2.2 2.3 0.7C293.8 86.6 291.5 85.9 291 87.5L291 87.5z"/>
  <path class="st0" d="M251.6 74c-0.4 1.5 1.8 2.1 2.3 0.7C254.3 73.2 252 72.5 251.6 74L251.6 74z"/>
  <path class="st0" d="M268 58.8c-0.4 1.5 1.8 2.1 2.3 0.7C270.7 58 268.4 57.3 268 58.8L268 58.8z"/>
  <path class="st0" d="M278.1 61.1c-0.4 1.5 1.8 2.1 2.3 0.7C280.9 60.3 278.6 59.6 278.1 61.1L278.1 61.1z"/>
  <path class="st0" d="M274.8 93.8c-0.4 1.5 1.8 2.1 2.3 0.7C277.5 93 275.3 92.3 274.8 93.8L274.8 93.8z"/>
  <path class="st0" d="M260.4 89.9c-0.4 1.5 1.8 2.1 2.3 0.7C263.2 89.1 260.9 88.4 260.4 89.9L260.4 89.9z"/>
  <path class="st0" d="M244.1 68c-0.4 1.5 1.8 2.1 2.3 0.7C246.8 67.2 244.5 66.5 244.1 68L244.1 68z"/>
  <path class="st0" d="M242.9 81.8c-0.4 1.5 1.8 2.1 2.3 0.7C245.6 80.9 243.3 80.3 242.9 81.8L242.9 81.8z"/>
  <path class="st0" d="M21.1 56.7c0-1.5 2.4-1.5 2.4 0C23.5 58.3 21.1 58.3 21.1 56.7L21.1 56.7z"/>
  <path class="st0" d="M30.1 55.6c0-1.5 2.4-1.5 2.4 0C32.5 57.1 30.1 57.1 30.1 55.6L30.1 55.6z"/>
  <path class="st0" d="M26.7 37.4c0-1.5 2.4-1.5 2.4 0C29.1 39 26.7 39 26.7 37.4L26.7 37.4z"/>
  <path class="st0" d="M36.7 43.7c0-1.5 2.4-1.5 2.4 0C39.1 45.3 36.7 45.3 36.7 43.7L36.7 43.7z"/>
  <path class="st0" d="M46.1 54.4c0-1.5 2.4-1.5 2.4 0C48.5 56 46.1 56 46.1 54.4L46.1 54.4z"/>
  <path class="st0" d="M56.5 57.1c0-1.5 2.4-1.5 2.4 0C58.9 58.6 56.5 58.6 56.5 57.1L56.5 57.1z"/>
  <path class="st0" d="M72.3 48.1c0-1.5 2.4-1.5 2.4 0C74.7 49.7 72.3 49.7 72.3 48.1L72.3 48.1z"/>
  <path class="st0" d="M67.1 53.3c0-1.5 2.4-1.5 2.4 0C69.5 54.8 67.1 54.8 67.1 53.3L67.1 53.3z"/>
  <path class="st0" d="M79.1 60.7c0-1.5 2.4-1.5 2.4 0C81.5 62.2 79.1 62.2 79.1 60.7L79.1 60.7z"/>
  <path class="st0" d="M83.5 52.7c0-1.5 2.4-1.5 2.4 0C85.9 54.2 83.5 54.2 83.5 52.7L83.5 52.7z"/>
  <path class="st0" d="M93.2 51.5c0-1.5 2.4-1.5 2.4 0C95.6 53.1 93.2 53.1 93.2 51.5L93.2 51.5z"/>
  <path class="st0" d="M88.7 63.5c0-1.5 2.4-1.5 2.4 0C91 65.1 88.7 65.1 88.7 63.5L88.7 63.5z"/>
  <path class="st0" d="M52.3 67.9c0-1.5 2.4-1.5 2.4 0C54.7 69.5 52.3 69.5 52.3 67.9L52.3 67.9z"/>
  <path class="st0" d="M53.5 76c0-1.5 2.4-1.5 2.4 0C55.9 77.6 53.5 77.6 53.5 76L53.5 76z"/>
  <path class="st0" d="M62.6 72.6c0-1.5 2.4-1.5 2.4 0C65 74.2 62.6 74.2 62.6 72.6L62.6 72.6z"/>
  <path class="st0" d="M73.9 69c0-1.5 2.4-1.5 2.4 0C76.3 70.6 73.9 70.6 73.9 69L73.9 69z"/>
  <path class="st0" d="M64.7 61.8c0-1.5 2.4-1.5 2.4 0C67.1 63.4 64.7 63.4 64.7 61.8L64.7 61.8z"/>
  <path class="st0" d="M82.3 71.3c0-1.5 2.4-1.5 2.4 0C84.7 72.9 82.3 72.9 82.3 71.3L82.3 71.3z"/>
  <path class="st0" d="M38.6 59c0-1.5 2.4-1.5 2.4 0C40.9 60.6 38.6 60.6 38.6 59L38.6 59z"/>
  <path class="st0" d="M49.2 44.8c0-1.6 2.4-1.6 2.4 0C51.6 46.5 49.2 46.5 49.2 44.8L49.2 44.8z"/>
  <path class="st0" d="M61.7 46.9c0-1.6 2.4-1.6 2.4 0C64 48.5 61.7 48.5 61.7 46.9L61.7 46.9z"/>
  <path class="st0" d="M22.3 44.8c0-1.5 2.4-1.5 2.4 0C24.7 46.4 22.3 46.4 22.3 44.8L22.3 44.8z"/>
  <path class="st0" d="M31.3 66.6c0-1.5 2.4-1.5 2.4 0C33.7 68.2 31.3 68.2 31.3 66.6L31.3 66.6z"/>
  <path class="st0" d="M41.7 68.4c0-1.5 2.4-1.5 2.4 0C44.1 70 41.7 70 41.7 68.4L41.7 68.4z"/>
  <path class="st0" d="M46 38.1c0-1.5 2.4-1.5 2.4 0C48.4 39.7 46 39.7 46 38.1L46 38.1z"/>
  <path class="st0" d="M33.7 33.8c0-1.5 2.4-1.5 2.4 0C36 35.4 33.7 35.4 33.7 33.8L33.7 33.8z"/>
  <path class="st0" d="M10.6 46.7c0-1.5 2.4-1.5 2.4 0C13 48.2 10.6 48.2 10.6 46.7L10.6 46.7z"/>
  <path class="st0" d="M16 35.6c0-1.5 2.4-1.5 2.4 0C18.4 37.1 16 37.1 16 35.6L16 35.6z"/>
  <path class="st0" d="M174 66.1c0.4 1.5-1.8 2.1-2.3 0.7C171.3 65.3 173.5 64.6 174 66.1L174 66.1z"/>
  <path class="st0" d="M165.7 69.8c0.4 1.5-1.8 2.1-2.3 0.7C163 69 165.3 68.3 165.7 69.8L165.7 69.8z"/>
  <path class="st0" d="M162.9 83.1c0.4 1.5-1.8 2.1-2.3 0.7C160.1 82.3 162.4 81.6 162.9 83.1L162.9 83.1z"/>
  <path class="st0" d="M174.1 83.4c0.4 1.5-1.8 2.1-2.3 0.7C171.4 82.6 173.6 81.9 174.1 83.4L174.1 83.4z"/>
  <path class="st0" d="M150.8 75.6c0.4 1.5-1.8 2.1-2.3 0.7C148.1 74.8 150.3 74.1 150.8 75.6L150.8 75.6z"/>
  <path class="st0" d="M140 76.1c0.4 1.5-1.8 2.1-2.3 0.7C137.3 75.3 139.6 74.6 140 76.1L140 76.1z"/>
  <path class="st0" d="M127.5 89.2c0.4 1.5-1.8 2.1-2.3 0.7C124.8 88.4 127 87.7 127.5 89.2L127.5 89.2z"/>
  <path class="st0" d="M131 82.8c0.4 1.5-1.8 2.1-2.3 0.7C128.3 81.9 130.5 81.3 131 82.8L131 82.8z"/>
  <path class="st0" d="M117.3 79.2c0.4 1.5-1.8 2.1-2.3 0.7C114.6 78.4 116.9 77.7 117.3 79.2L117.3 79.2z"/>
  <path class="st0" d="M115.5 88.1c0.4 1.5-1.8 2.1-2.3 0.7C112.7 87.3 115 86.6 115.5 88.1L115.5 88.1z"/>
  <path class="st0" d="M106.5 92c0.4 1.5-1.8 2.1-2.3 0.7C103.8 91.2 106.1 90.5 106.5 92L106.5 92z"/>
  <path class="st0" d="M99.7 86.9c0.4 1.5-1.8 2.1-2.3 0.7C97 86 99.3 85.4 99.7 86.9L99.7 86.9z"/>
  <path class="st0" d="M118.5 97.1c0.4 1.5-1.8 2.1-2.3 0.7C115.8 96.3 118.1 95.7 118.5 97.1L118.5 97.1z"/>
  <path class="st0" d="M136.2 96c0.4 1.5-1.8 2.1-2.3 0.7C133.5 95.2 135.8 94.5 136.2 96L136.2 96z"/>
  <path class="st0" d="M91.8 89.7c0.4 1.5-1.8 2.1-2.3 0.7C89.1 88.9 91.3 88.2 91.8 89.7L91.8 89.7z"/>
  <path class="st0" d="M107.4 79.2c0.4 1.5-1.8 2.1-2.3 0.7C104.7 78.4 106.9 77.7 107.4 79.2L107.4 79.2z"/>
  <path class="st0" d="M140.9 64.5c0.4 1.5-1.8 2.1-2.3 0.7C138.2 63.7 140.5 63 140.9 64.5L140.9 64.5z"/>
  <path class="st0" d="M137.4 57c0.4 1.5-1.8 2.1-2.3 0.7C134.7 56.2 137 55.5 137.4 57L137.4 57z"/>
  <path class="st0" d="M129.7 62.9c0.4 1.5-1.8 2.1-2.3 0.7C127 62.1 129.2 61.4 129.7 62.9L129.7 62.9z"/>
  <path class="st0" d="M119.1 62.1c0.4 1.5-1.8 2.1-2.3 0.7C116.4 61.3 118.7 60.6 119.1 62.1L119.1 62.1z"/>
  <path class="st0" d="M117.3 55.6c0.4 1.5-1.8 2.1-2.3 0.7C114.6 54.8 116.9 54.1 117.3 55.6L117.3 55.6z"/>
  <path class="st0" d="M119.9 69.6c0.4 1.5-1.8 2.1-2.3 0.7C117.2 68.8 119.5 68.1 119.9 69.6L119.9 69.6z"/>
  <path class="st0" d="M130.8 73.9c0.4 1.5-1.8 2.1-2.3 0.7C128.1 73.1 130.4 72.4 130.8 73.9L130.8 73.9z"/>
  <path class="st0" d="M156.6 69c0.4 1.5-1.8 2.1-2.3 0.7C153.9 68.2 156.2 67.5 156.6 69L156.6 69z"/>
  <path class="st0" d="M150.6 85.6c0.5 1.5-1.8 2.2-2.3 0.7C147.8 84.8 150.1 84.1 150.6 85.6L150.6 85.6z"/>
  <path class="st0" d="M138.1 87.3c0.5 1.5-1.8 2.2-2.3 0.7C135.3 86.4 137.6 85.7 138.1 87.3L138.1 87.3z"/>
  <path class="st0" d="M177.5 73.9c0.4 1.5-1.8 2.1-2.3 0.7C174.8 73.1 177 72.4 177.5 73.9L177.5 73.9z"/>
  <path class="st0" d="M161.1 60.7c0.4 1.5-1.8 2.1-2.3 0.7C158.4 59.8 160.7 59.2 161.1 60.7L161.1 60.7z"/>
  <path class="st0" d="M150.9 60.9c0.4 1.5-1.8 2.1-2.3 0.7C148.2 60.1 150.5 59.4 150.9 60.9L150.9 60.9z"/>
  <path class="st0" d="M154.3 93.7c0.4 1.5-1.8 2.1-2.3 0.7C151.5 92.8 153.8 92.2 154.3 93.7L154.3 93.7z"/>
  <path class="st0" d="M168.6 89.7c0.4 1.5-1.8 2.1-2.3 0.7C165.9 88.9 168.2 88.2 168.6 89.7L168.6 89.7z"/>
  <path class="st0" d="M185 67.8c0.4 1.5-1.8 2.1-2.3 0.7C182.3 67 184.6 66.3 185 67.8L185 67.8z"/>
  <path class="st0" d="M186.2 81.6c0.4 1.5-1.8 2.1-2.3 0.7C183.5 80.8 185.8 80.1 186.2 81.6L186.2 81.6z"/>
  <path class="st0" d="M181.2 89.2c0.4 1.5-1.8 2.1-2.3 0.7C178.5 88.4 180.8 87.7 181.2 89.2L181.2 89.2z"/>
  <path class="st0" d="M187.4 141.2c0.4 1.5-1.9 2.1-2.3 0.7C184.7 140.4 187 139.7 187.4 141.2L187.4 141.2z"/>
  <path class="st0" d="M188.4 128.6c0.4 1.5-1.9 2.1-2.3 0.7C185.7 127.7 188 127.1 188.4 128.6L188.4 128.6z"/>
  <path class="st0" d="M192.2 117.4c0.4 1.5-1.9 2.1-2.3 0.7C189.5 116.6 191.8 115.9 192.2 117.4L192.2 117.4z"/>
  <path class="st0" d="M176.1 145.8c0.4 1.5-1.9 2.1-2.3 0.7C173.4 145 175.7 144.3 176.1 145.8L176.1 145.8z"/>
  <path class="st0" d="M184.5 162.3c0.4 1.5-1.9 2.1-2.3 0.7C181.7 161.5 184 160.8 184.5 162.3L184.5 162.3z"/>
  <path class="st0" d="M173.1 159.1c0.4 1.5-1.9 2.1-2.3 0.7C170.4 158.3 172.7 157.6 173.1 159.1L173.1 159.1z"/>
  <path class="st0" d="M161.1 151.4c0.4 1.5-1.9 2.1-2.3 0.7C158.4 150.6 160.7 149.9 161.1 151.4L161.1 151.4z"/>
  <path class="st0" d="M150.4 151.8c0.4 1.5-1.9 2.1-2.3 0.7C147.7 151 149.9 150.3 150.4 151.8L150.4 151.8z"/>
  <path class="st0" d="M137.7 164.8c0.4 1.5-1.9 2.1-2.3 0.7C135 164 137.3 163.3 137.7 164.8L137.7 164.8z"/>
  <path class="st0" d="M133.7 182.3c0.4 1.5-1.9 2.1-2.3 0.7C131 181.5 133.2 180.8 133.7 182.3L133.7 182.3z"/>
  <path class="st0" d="M141.8 173.6c0.4 1.5-1.9 2.1-2.3 0.7C139 172.7 141.3 172.1 141.8 173.6L141.8 173.6z"/>
  <path class="st0" d="M153.7 177.9c0.4 1.5-1.9 2.1-2.3 0.7C151 177.1 153.3 176.4 153.7 177.9L153.7 177.9z"/>
  <path class="st0" d="M154.9 170.7c0.4 1.5-1.9 2.1-2.3 0.7C152.2 169.9 154.5 169.2 154.9 170.7L154.9 170.7z"/>
  <path class="st0" d="M141.3 158.4c0.4 1.5-1.9 2.1-2.3 0.7C138.6 157.6 140.8 156.9 141.3 158.4L141.3 158.4z"/>
  <path class="st0" d="M127.7 154.7c0.4 1.5-1.9 2.1-2.3 0.7C124.9 153.9 127.2 153.2 127.7 154.7L127.7 154.7z"/>
  <path class="st0" d="M129.8 163.5c0.4 1.5-1.9 2.1-2.3 0.7C127.1 162.7 129.4 162 129.8 163.5L129.8 163.5z"/>
  <path class="st0" d="M130.3 174.1c0.4 1.5-1.9 2.1-2.3 0.7C127.6 173.3 129.9 172.6 130.3 174.1L130.3 174.1z"/>
  <path class="st0" d="M138.9 125.7c0.4 1.5-1.9 2.1-2.3 0.7C136.2 124.9 138.5 124.2 138.9 125.7L138.9 125.7z"/>
  <path class="st0" d="M151.4 140.2c0.4 1.5-1.9 2.1-2.3 0.7C148.6 139.4 150.9 138.7 151.4 140.2L151.4 140.2z"/>
  <path class="st0" d="M147.9 132.7c0.4 1.5-1.9 2.1-2.3 0.7C145.2 131.9 147.5 131.2 147.9 132.7L147.9 132.7z"/>
  <path class="st0" d="M140.2 138.6c0.4 1.5-1.9 2.1-2.3 0.7C137.4 137.8 139.7 137.1 140.2 138.6L140.2 138.6z"/>
  <path class="st0" d="M130.3 145.2c0.4 1.5-1.9 2.1-2.3 0.7C127.6 144.4 129.9 143.7 130.3 145.2L130.3 145.2z"/>
  <path class="st0" d="M141.2 149.5c0.4 1.5-1.9 2.1-2.3 0.7C138.5 148.7 140.8 148 141.2 149.5L141.2 149.5z"/>
  <path class="st0" d="M155.2 126.3c0.4 1.5-1.9 2.1-2.3 0.7C152.5 125.4 154.8 124.8 155.2 126.3L155.2 126.3z"/>
  <path class="st0" d="M165.6 114.1c0.4 1.5-1.9 2.1-2.3 0.7C162.9 113.3 165.2 112.6 165.6 114.1L165.6 114.1z"/>
  <path class="st0" d="M167 144.9c0.4 1.5-1.9 2.1-2.3 0.7C164.3 144 166.6 143.4 167 144.9L167 144.9z"/>
  <path class="st0" d="M160.8 161.5c0.4 1.5-1.8 2.2-2.3 0.7C158.1 160.6 160.4 159.9 160.8 161.5L160.8 161.5z"/>
  <path class="st0" d="M148.3 163c0.4 1.5-1.8 2.2-2.3 0.7C145.6 162.1 147.8 161.5 148.3 163L148.3 163z"/>
  <path class="st0" d="M186.6 154c0.4 1.5-1.9 2.1-2.3 0.7C183.9 153.1 186.2 152.5 186.6 154L186.6 154z"/>
  <path class="st0" d="M171.6 134.6c0.4 1.5-1.9 2.1-2.3 0.7C168.9 133.8 171.2 133.1 171.6 134.6L171.6 134.6z"/>
  <path class="st0" d="M167.4 123.8c0.4 1.5-1.9 2.1-2.3 0.7C164.7 122.9 167 122.3 167.4 123.8L167.4 123.8z"/>
  <path class="st0" d="M177.3 129.3c0.4 1.5-1.9 2.1-2.3 0.7C174.6 128.4 176.9 127.8 177.3 129.3L177.3 129.3z"/>
  <path class="st0" d="M178.8 118c0.4 1.5-1.9 2.1-2.3 0.7C176.1 117.1 178.4 116.5 178.8 118L178.8 118z"/>
  <path class="st0" d="M185.6 107.2c0.4 1.5-1.9 2.1-2.3 0.7C182.9 106.4 185.2 105.7 185.6 107.2L185.6 107.2z"/>
  <path class="st0" d="M161.4 136.8c0.4 1.5-1.9 2.1-2.3 0.7C158.7 135.9 161 135.3 161.4 136.8L161.4 136.8z"/>
  <path class="st0" d="M164.4 169.5c0.4 1.5-1.9 2.1-2.3 0.7C161.7 168.7 164 168 164.4 169.5L164.4 169.5z"/>
  <path class="st0" d="M169.8 175.3c0.4 1.5-1.9 2.1-2.3 0.7C167.1 174.4 169.4 173.8 169.8 175.3L169.8 175.3z"/>
  <path class="st0" d="M178.8 167.7c0.4 1.5-1.9 2.1-2.3 0.7C176.1 166.9 178.4 166.2 178.8 167.7L178.8 167.7z"/>
  <path class="st0" d="M197.4 148.9c0.4 1.5-1.9 2.1-2.3 0.7C194.7 148.1 196.9 147.4 197.4 148.9L197.4 148.9z"/>
  <path class="st0" d="M195.3 161.1c0.4 1.5-1.9 2.1-2.3 0.7C192.6 160.3 194.8 159.6 195.3 161.1L195.3 161.1z"/>
  <path class="st0" d="M35.1 176c-0.8-1.3 1.2-2.6 2-1.3C37.9 176 35.9 177.3 35.1 176L35.1 176z"/>
  <path class="st0" d="M42 170.2c-0.8-1.3 1.2-2.6 2-1.3C44.8 170.2 42.8 171.5 42 170.2L42 170.2z"/>
  <path class="st0" d="M41 156.6c-0.8-1.3 1.2-2.6 2-1.3C43.8 156.6 41.8 157.9 41 156.6L41 156.6z"/>
  <path class="st0" d="M30.1 159.5c-0.8-1.3 1.2-2.6 2-1.3C33 159.5 31 160.8 30.1 159.5L30.1 159.5z"/>
  <path class="st0" d="M23.9 149.5c-0.8-1.3 1.2-2.6 2-1.3C26.7 149.5 24.7 150.8 23.9 149.5L23.9 149.5z"/>
  <path class="st0" d="M54.7 160.5c-0.8-1.3 1.2-2.6 2-1.3C57.5 160.5 55.6 161.8 54.7 160.5L54.7 160.5z"/>
  <path class="st0" d="M64.9 157c-0.8-1.3 1.2-2.6 2-1.3C67.7 157 65.7 158.3 64.9 157L64.9 157z"/>
  <path class="st0" d="M73.2 140.8c-0.8-1.3 1.2-2.6 2-1.3C76.1 140.9 74.1 142.1 73.2 140.8L73.2 140.8z"/>
  <path class="st0" d="M71.7 148c-0.8-1.3 1.2-2.6 2-1.3C74.5 148 72.5 149.3 71.7 148L71.7 148z"/>
  <path class="st0" d="M85.8 147.6c-0.8-1.3 1.2-2.6 2-1.3C88.6 147.7 86.6 148.9 85.8 147.6L85.8 147.6z"/>
  <path class="st0" d="M85.1 138.5c-0.8-1.3 1.2-2.6 2-1.3C87.9 138.6 85.9 139.9 85.1 138.5L85.1 138.5z"/>
  <path class="st0" d="M92.6 132.3c-0.8-1.3 1.2-2.6 2-1.3C95.4 132.3 93.4 133.6 92.6 132.3L92.6 132.3z"/>
  <path class="st0" d="M100.5 135.3c-0.8-1.3 1.2-2.6 2-1.3C103.4 135.3 101.4 136.6 100.5 135.3L100.5 135.3z"/>
  <path class="st0" d="M106.6 144.1c-0.8-1.3 1.2-2.6 2-1.3C109.5 144.1 107.5 145.4 106.6 144.1L106.6 144.1z"/>
  <path class="st0" d="M106.6 130.7c-0.8-1.3 1.2-2.6 2-1.3C109.5 130.7 107.5 132 106.6 130.7L106.6 130.7z"/>
  <path class="st0" d="M78.6 132.7c-0.8-1.3 1.2-2.6 2-1.3C81.5 132.7 79.5 134 78.6 132.7L78.6 132.7z"/>
  <path class="st0" d="M63 136.8c-0.8-1.3 1.2-2.6 2-1.3C65.8 136.8 63.8 138.1 63 136.8L63 136.8z"/>
  <path class="st0" d="M115.4 129c-0.8-1.3 1.2-2.6 2-1.3C118.2 129.1 116.2 130.4 115.4 129L115.4 129z"/>
  <path class="st0" d="M95.3 144.8c-0.8-1.3 1.2-2.6 2-1.3C98.2 144.8 96.2 146.1 95.3 144.8L95.3 144.8z"/>
  <path class="st0" d="M67.3 168.4c-0.8-1.3 1.2-2.6 2-1.3C70.1 168.4 68.1 169.7 67.3 168.4L67.3 168.4z"/>
  <path class="st0" d="M72.7 174.5c-0.8-1.3 1.2-2.6 2-1.3C75.6 174.5 73.6 175.8 72.7 174.5L72.7 174.5z"/>
  <path class="st0" d="M82.4 177.2c-0.8-1.3 1.2-2.6 2-1.3C85.2 177.2 83.3 178.5 82.4 177.2L82.4 177.2z"/>
  <path class="st0" d="M88.9 183.4c-0.8-1.3 1.2-2.6 2-1.3C91.7 183.4 89.7 184.7 88.9 183.4L88.9 183.4z"/>
  <path class="st0" d="M78.5 166.7c-0.8-1.3 1.2-2.6 2-1.3C81.3 166.7 79.3 168 78.5 166.7L78.5 166.7z"/>
  <path class="st0" d="M88.9 164.5c-0.8-1.3 1.2-2.6 2-1.3C91.7 164.6 89.7 165.9 88.9 164.5L88.9 164.5z"/>
  <path class="st0" d="M92.4 170.3c-0.8-1.3 1.2-2.6 2-1.3C95.2 170.3 93.3 171.6 92.4 170.3L92.4 170.3z"/>
  <path class="st0" d="M97.7 178.4c-0.8-1.3 1.2-2.6 2-1.3C100.6 178.4 98.6 179.7 97.7 178.4L97.7 178.4z"/>
  <path class="st0" d="M106.6 185c-0.8-1.3 1.2-2.6 2-1.3C109.5 185 107.5 186.3 106.6 185L106.6 185z"/>
  <path class="st0" d="M106.6 173.4c-0.8-1.3 1.2-2.6 2-1.3C109.5 173.4 107.5 174.7 106.6 173.4L106.6 173.4z"/>
  <path class="st0" d="M86 157.5c-0.8-1.3 1.2-2.6 2-1.3C88.8 157.5 86.8 158.8 86 157.5L86 157.5z"/>
  <path class="st0" d="M74.3 156.5c-0.8-1.3 1.2-2.6 2-1.3C77.2 156.5 75.2 157.8 74.3 156.5L74.3 156.5z"/>
  <path class="st0" d="M94.3 154.8c-0.8-1.3 1.2-2.6 2-1.3C97.1 154.8 95.1 156.1 94.3 154.8L94.3 154.8z"/>
  <path class="st0" d="M100.5 162.8c-0.8-1.3 1.2-2.6 2-1.3C103.4 162.8 101.4 164.1 100.5 162.8L100.5 162.8z"/>
  <path class="st0" d="M104.3 152c-0.8-1.3 1.2-2.6 2-1.3C107.1 152 105.1 153.3 104.3 152L104.3 152z"/>
  <path class="st0" d="M50.9 168.4c-0.8-1.3 1.2-2.6 2-1.3C53.8 168.5 51.8 169.8 50.9 168.4L50.9 168.4z"/>
  <path class="st0" d="M52.1 150.7c-0.9-1.3 1.1-2.6 2-1.3C54.9 150.8 53 152.1 52.1 150.7L52.1 150.7z"/>
  <path class="st0" d="M63.6 145.6c-0.9-1.3 1.1-2.6 2-1.3C66.5 145.7 64.5 147 63.6 145.6L63.6 145.6z"/>
  <path class="st0" d="M29.5 169.6c-0.8-1.3 1.2-2.6 2-1.3C32.4 169.6 30.4 170.9 29.5 169.6L29.5 169.6z"/>
  <path class="st0" d="M49.5 179.6c-0.8-1.3 1.2-2.6 2-1.3C52.4 179.6 50.4 180.9 49.5 179.6L49.5 179.6z"/>
  <path class="st0" d="M58.7 174.6c-0.8-1.3 1.2-2.6 2-1.3C61.5 174.6 59.5 175.9 58.7 174.6L58.7 174.6z"/>
  <path class="st0" d="M66.6 180c-0.8-1.3 1.2-2.6 2-1.3C69.5 180.1 67.5 181.3 66.6 180L66.6 180z"/>
  <path class="st0" d="M46.3 144.1c-0.8-1.3 1.2-2.6 2-1.3C49.1 144.1 47.2 145.4 46.3 144.1L46.3 144.1z"/>
  <path class="st0" d="M52.1 138.5c-0.8-1.3 1.2-2.6 2-1.3C54.9 138.6 52.9 139.9 52.1 138.5L52.1 138.5z"/>
  <path class="st0" d="M33.6 151.9c-0.8-1.3 1.2-2.6 2-1.3C36.4 151.9 34.5 153.2 33.6 151.9L33.6 151.9z"/>
  <path class="st0" d="M37.5 142c-0.8-1.3 1.2-2.6 2-1.3C40.3 142 38.3 143.3 37.5 142L37.5 142z"/>
  <path class="st0" d="M20.3 171.5c-0.8-1.3 1.2-2.6 2-1.3C23.1 171.5 21.2 172.8 20.3 171.5L20.3 171.5z"/>
  <path class="st0" d="M19 163.6c-0.8-1.3 1.2-2.6 2-1.3C21.8 163.6 19.9 164.9 19 163.6L19 163.6z"/>
  <path class="st0" d="M13.7 157.5c-0.8-1.3 1.2-2.6 2-1.3C16.6 157.5 14.6 158.8 13.7 157.5L13.7 157.5z"/>
  <path class="st0" d="M239 138.2c-0.4 1.5 1.9 2.1 2.3 0.6C241.7 137.2 239.4 136.6 239 138.2L239 138.2z"/>
  <path class="st0" d="M243.7 127.3c-0.4 1.5 1.9 2.1 2.3 0.6C246.4 126.4 244.1 125.8 243.7 127.3L243.7 127.3z"/>
  <path class="st0" d="M239.6 116.3c-0.4 1.5 1.9 2.1 2.3 0.6C242.3 115.4 240 114.8 239.6 116.3L239.6 116.3z"/>
  <path class="st0" d="M251 141.3c-0.4 1.5 1.9 2.1 2.3 0.6C253.7 140.3 251.4 139.7 251 141.3L251 141.3z"/>
  <path class="st0" d="M247.4 157.4c-0.4 1.5 1.9 2.1 2.3 0.6C250.1 156.5 247.8 155.9 247.4 157.4L247.4 157.4z"/>
  <path class="st0" d="M259.9 157.4c-0.4 1.5 1.9 2.1 2.3 0.6C262.5 156.5 260.3 155.9 259.9 157.4L259.9 157.4z"/>
  <path class="st0" d="M271.7 149.4c-0.4 1.5 1.9 2.1 2.3 0.6C274.4 148.5 272.1 147.9 271.7 149.4L271.7 149.4z"/>
  <path class="st0" d="M282.4 149.5c-0.4 1.5 1.9 2.1 2.3 0.6C285.1 148.6 282.8 148 282.4 149.5L282.4 149.5z"/>
  <path class="st0" d="M295.4 162.2c-0.4 1.5 1.9 2.1 2.3 0.6C298.1 161.2 295.8 160.6 295.4 162.2L295.4 162.2z"/>
  <path class="st0" d="M292.7 178.3c-0.4 1.5 1.9 2.1 2.3 0.6C295.4 177.4 293.1 176.8 292.7 178.3L292.7 178.3z"/>
  <path class="st0" d="M291.6 171c-0.4 1.5 1.9 2.1 2.3 0.6C294.3 170.1 292 169.5 291.6 171L291.6 171z"/>
  <path class="st0" d="M279.8 175.6c-0.4 1.5 1.9 2.1 2.3 0.6C282.5 174.7 280.2 174.1 279.8 175.6L279.8 175.6z"/>
  <path class="st0" d="M278.4 168.5c-0.4 1.5 1.9 2.1 2.3 0.6C281.1 167.6 278.8 167 278.4 168.5L278.4 168.5z"/>
  <path class="st0" d="M291.7 155.8c-0.4 1.5 1.9 2.1 2.3 0.6C294.4 154.9 292.1 154.3 291.7 155.8L291.7 155.8z"/>
  <path class="st0" d="M302.8 151.3c-0.4 1.5 1.9 2.1 2.3 0.6C305.4 150.4 303.1 149.8 302.8 151.3L302.8 151.3z"/>
  <path class="st0" d="M302 158.8c-0.4 1.5 1.9 2.1 2.3 0.6C304.6 157.9 302.3 157.3 302 158.8L302 158.8z"/>
  <path class="st0" d="M303.1 171.2c-0.4 1.5 1.9 2.1 2.3 0.6C305.7 170.3 303.5 169.7 303.1 171.2L303.1 171.2z"/>
  <path class="st0" d="M293.2 123.1c-0.4 1.5 1.9 2.1 2.3 0.6C295.9 122.2 293.6 121.6 293.2 123.1L293.2 123.1z"/>
  <path class="st0" d="M281.1 137.9c-0.4 1.5 1.9 2.1 2.3 0.6C283.8 137 281.5 136.4 281.1 137.9L281.1 137.9z"/>
  <path class="st0" d="M281.2 129.3c-0.4 1.5 1.9 2.1 2.3 0.6C283.9 128.3 281.6 127.7 281.2 129.3L281.2 129.3z"/>
  <path class="st0" d="M292.3 136c-0.4 1.5 1.9 2.1 2.3 0.6C295 135.1 292.7 134.5 292.3 136L292.3 136z"/>
  <path class="st0" d="M301.4 138.2c-0.4 1.5 1.9 2.1 2.3 0.6C304.1 137.2 301.8 136.6 301.4 138.2L301.4 138.2z"/>
  <path class="st0" d="M291.5 146.9c-0.4 1.5 1.9 2.1 2.3 0.6C294.2 146 291.9 145.4 291.5 146.9L291.5 146.9z"/>
  <path class="st0" d="M279.9 119.3c-0.4 1.5 1.9 2.1 2.3 0.6C282.6 118.4 280.3 117.8 279.9 119.3L279.9 119.3z"/>
  <path class="st0" d="M266.1 112.2c-0.4 1.5 1.9 2.1 2.3 0.6C268.8 111.3 266.5 110.7 266.1 112.2L266.1 112.2z"/>
  <path class="st0" d="M265.6 143c-0.4 1.5 1.9 2.1 2.3 0.6C268.3 142.1 266 141.5 265.6 143L265.6 143z"/>
  <path class="st0" d="M272.2 159.4c-0.4 1.5 1.9 2.1 2.3 0.6C274.9 158.4 272.6 157.8 272.2 159.4L272.2 159.4z"/>
  <path class="st0" d="M284.8 160.6c-0.4 1.5 1.9 2.1 2.3 0.6C287.5 159.6 285.2 159 284.8 160.6L284.8 160.6z"/>
  <path class="st0" d="M252.2 149.5c-0.4 1.5 1.9 2.1 2.3 0.6C254.9 148.6 252.6 148 252.2 149.5L252.2 149.5z"/>
  <path class="st0" d="M260.7 132.9c-0.4 1.5 1.9 2.1 2.3 0.6C263.4 131.9 261.1 131.3 260.7 132.9L260.7 132.9z"/>
  <path class="st0" d="M264.6 121.9c-0.4 1.5 1.9 2.1 2.3 0.6C267.3 121 265 120.4 264.6 121.9L264.6 121.9z"/>
  <path class="st0" d="M254.9 127.7c-0.4 1.5 1.9 2.1 2.3 0.6C257.5 126.8 255.3 126.2 254.9 127.7L254.9 127.7z"/>
  <path class="st0" d="M253 116.4c-0.4 1.5 1.9 2.1 2.3 0.6C255.7 115.5 253.4 114.9 253 116.4L253 116.4z"/>
  <path class="st0" d="M249.8 109c-0.4 1.5 1.9 2.1 2.3 0.6C252.5 108.1 250.2 107.5 249.8 109L249.8 109z"/>
  <path class="st0" d="M271 134.7c-0.4 1.5 1.9 2.1 2.3 0.6C273.7 133.8 271.4 133.2 271 134.7L271 134.7z"/>
  <path class="st0" d="M268.9 167.6c-0.4 1.5 1.9 2.1 2.3 0.6C271.6 166.7 269.3 166.1 268.9 167.6L268.9 167.6z"/>
  <path class="st0" d="M263.6 173.5c-0.4 1.5 1.9 2.1 2.3 0.6C266.3 172.6 264 172 263.6 173.5L263.6 173.5z"/>
  <path class="st0" d="M254.4 166.2c-0.4 1.5 1.9 2.1 2.3 0.6C257.1 165.3 254.8 164.7 254.4 166.2L254.4 166.2z"/>
  <path class="st0" d="M235.3 147.9c-0.4 1.5 1.9 2.1 2.3 0.6C238 147 235.7 146.4 235.3 147.9L235.3 147.9z"/>
  <path class="st0" d="M237.8 160c-0.4 1.5 1.9 2.1 2.3 0.6C240.5 159.1 238.2 158.5 237.8 160L237.8 160z"/>
  <path class="st0" d="M402.7 166.9c0.8-1.3-1.2-2.5-2-1.2C399.9 166.9 401.9 168.2 402.7 166.9L402.7 166.9z"/>
  <path class="st0" d="M391.3 164.8c0.8-1.3-1.2-2.5-2-1.2C388.5 164.9 390.5 166.1 391.3 164.8L391.3 164.8z"/>
  <path class="st0" d="M391.9 151.2c0.8-1.3-1.2-2.5-2-1.2C389.1 151.3 391.1 152.6 391.9 151.2L391.9 151.2z"/>
  <path class="st0" d="M407.6 151.2c0.8-1.3-1.2-2.5-2-1.2C404.8 151.3 406.8 152.6 407.6 151.2L407.6 151.2z"/>
  <path class="st0" d="M408.8 143.7c0.8-1.3-1.2-2.5-2-1.2C406 143.8 408 145 408.8 143.7L408.8 143.7z"/>
  <path class="st0" d="M378.3 155.5c0.8-1.3-1.2-2.5-2-1.2C375.4 155.6 377.5 156.8 378.3 155.5L378.3 155.5z"/>
  <path class="st0" d="M368 152.3c0.8-1.3-1.2-2.5-2-1.2C365.2 152.4 367.2 153.6 368 152.3L368 152.3z"/>
  <path class="st0" d="M359.2 136.4c0.8-1.3-1.2-2.5-2-1.2C356.4 136.5 358.4 137.7 359.2 136.4L359.2 136.4z"/>
  <path class="st0" d="M361 143.5c0.8-1.3-1.2-2.5-2-1.2C358.1 143.6 360.2 144.8 361 143.5L361 143.5z"/>
  <path class="st0" d="M346.9 143.5c0.8-1.3-1.2-2.5-2-1.2C344 143.6 346 144.9 346.9 143.5L346.9 143.5z"/>
  <path class="st0" d="M347.3 134.4c0.8-1.3-1.2-2.5-2-1.2C344.5 134.5 346.5 135.7 347.3 134.4L347.3 134.4z"/>
  <path class="st0" d="M339.7 128.4c0.8-1.3-1.2-2.5-2-1.2C336.8 128.5 338.8 129.7 339.7 128.4L339.7 128.4z"/>
  <path class="st0" d="M331.8 131.6c0.8-1.3-1.2-2.5-2-1.2C328.9 131.7 331 133 331.8 131.6L331.8 131.6z"/>
  <path class="st0" d="M325.9 140.5c0.8-1.3-1.2-2.5-2-1.2C323.1 140.6 325.1 141.9 325.9 140.5L325.9 140.5z"/>
  <path class="st0" d="M325.5 127.2c0.8-1.3-1.2-2.5-2-1.2C322.7 127.3 324.7 128.5 325.5 127.2L325.5 127.2z"/>
  <path class="st0" d="M353.6 128.4c0.8-1.3-1.2-2.5-2-1.2C350.8 128.5 352.8 129.7 353.6 128.4L353.6 128.4z"/>
  <path class="st0" d="M369.4 132c0.8-1.3-1.2-2.5-2-1.2C366.5 132.1 368.6 133.4 369.4 132L369.4 132z"/>
  <path class="st0" d="M316.8 125.8c0.8-1.3-1.2-2.5-2-1.2C314 125.8 316 127.1 316.8 125.8L316.8 125.8z"/>
  <path class="st0" d="M337.2 141c0.8-1.3-1.2-2.5-2-1.2C334.4 141.1 336.4 142.3 337.2 141L337.2 141z"/>
  <path class="st0" d="M365.9 163.7c0.8-1.3-1.2-2.5-2-1.2C363.1 163.8 365.1 165 365.9 163.7L365.9 163.7z"/>
  <path class="st0" d="M360.7 170c0.8-1.3-1.2-2.5-2-1.2C357.8 170.1 359.8 171.4 360.7 170L360.7 170z"/>
  <path class="st0" d="M351.1 173c0.8-1.3-1.2-2.5-2-1.2C348.2 173.1 350.3 174.3 351.1 173L351.1 173z"/>
  <path class="st0" d="M334.9 176.5c0.8-1.3-1.2-2.5-2-1.2C332.1 176.6 334.1 177.9 334.9 176.5L334.9 176.5z"/>
  <path class="st0" d="M354.7 162.4c0.8-1.3-1.2-2.5-2-1.2C351.8 162.4 353.9 163.7 354.7 162.4L354.7 162.4z"/>
  <path class="st0" d="M344.3 160.5c0.8-1.3-1.2-2.5-2-1.2C341.4 160.6 343.4 161.8 344.3 160.5L344.3 160.5z"/>
  <path class="st0" d="M340.9 166.3c0.8-1.3-1.2-2.5-2-1.2C338 166.4 340.1 167.7 340.9 166.3L340.9 166.3z"/>
  <path class="st0" d="M331.5 168.9c0.8-1.3-1.2-2.5-2-1.2C328.6 168.9 330.7 170.2 331.5 168.9L331.5 168.9z"/>
  <path class="st0" d="M321.2 179.4c0.8-1.3-1.2-2.5-2-1.2C318.4 179.5 320.4 180.7 321.2 179.4L321.2 179.4z"/>
  <path class="st0" d="M321.2 164.8c0.8-1.3-1.2-2.5-2-1.2C318.4 164.9 320.4 166.1 321.2 164.8L321.2 164.8z"/>
  <path class="st0" d="M347 153.4c0.8-1.3-1.2-2.5-2-1.2C344.1 153.5 346.1 154.7 347 153.4L347 153.4z"/>
  <path class="st0" d="M358.6 152.1c0.8-1.3-1.2-2.5-2-1.2C355.7 152.2 357.7 153.4 358.6 152.1L358.6 152.1z"/>
  <path class="st0" d="M338.6 150.9c0.8-1.3-1.2-2.5-2-1.2C335.7 151 337.8 152.2 338.6 150.9L338.6 150.9z"/>
  <path class="st0" d="M332.5 159c0.8-1.3-1.2-2.5-2-1.2C329.7 159.1 331.7 160.4 332.5 159L332.5 159z"/>
  <path class="st0" d="M324.7 150.9c0.8-1.3-1.2-2.5-2-1.2C321.9 151 323.9 152.2 324.7 150.9L324.7 150.9z"/>
  <path class="st0" d="M382.3 163.4c0.8-1.3-1.2-2.5-2-1.2C379.4 163.4 381.5 164.7 382.3 163.4L382.3 163.4z"/>
  <path class="st0" d="M380.7 145.7c0.8-1.4-1.2-2.6-2-1.2C377.8 145.9 379.8 147.1 380.7 145.7L380.7 145.7z"/>
  <path class="st0" d="M369 140.9c0.8-1.4-1.2-2.6-2-1.2C366.1 141.1 368.1 142.3 369 140.9L369 140.9z"/>
  <path class="st0" d="M401.5 158.3c0.8-1.3-1.2-2.5-2-1.2C398.7 158.4 400.7 159.6 401.5 158.3L401.5 158.3z"/>
  <path class="st0" d="M384 174.5c0.8-1.3-1.2-2.5-2-1.2C381.2 174.6 383.2 175.8 384 174.5L384 174.5z"/>
  <path class="st0" d="M374.7 169.7c0.8-1.3-1.2-2.5-2-1.2C371.9 169.8 373.9 171 374.7 169.7L374.7 169.7z"/>
  <path class="st0" d="M366.9 175.4c0.8-1.3-1.2-2.5-2-1.2C364.1 175.5 366.1 176.7 366.9 175.4L366.9 175.4z"/>
  <path class="st0" d="M386.2 138.9c0.8-1.3-1.2-2.5-2-1.2C383.4 139 385.4 140.2 386.2 138.9L386.2 138.9z"/>
  <path class="st0" d="M380.3 133.5c0.8-1.3-1.2-2.5-2-1.2C377.5 133.6 379.5 134.8 380.3 133.5L380.3 133.5z"/>
  <path class="st0" d="M399.1 146.3c0.8-1.3-1.2-2.5-2-1.2C396.3 146.4 398.3 147.6 399.1 146.3L399.1 146.3z"/>
  <path class="st0" d="M395 136.6c0.8-1.3-1.2-2.5-2-1.2C392.2 136.7 394.2 137.9 395 136.6L395 136.6z"/>
  <path class="st0" d="M414.1 157.6c0.8-1.3-1.2-2.5-2-1.2C411.2 157.7 413.2 159 414.1 157.6L414.1 157.6z"/>
  <path class="st0" d="M419.2 151.4c0.8-1.3-1.2-2.5-2-1.2C416.3 151.5 418.4 152.7 419.2 151.4L419.2 151.4z"/>
  <ellipse transform="matrix(0.5 -0.866 0.866 0.5 76.1549 183.4974)" class="st1" cx="197" cy="25.8" rx="2.7" ry="1.4"/>
  <ellipse transform="matrix(0.3141 -0.9494 0.9494 0.3141 132.0494 233.6304)" class="st1" cx="227.7" cy="25.4" rx="2.2" ry="1.5"/>
  <path class="st3" d="M227.2 17.2c-4.9 0-9.1 3.3-10.3 7.9 -0.9-0.6-2-1-3.2-1 -1.2 0-2.3 0.3-3.2 0.9 -1.2-4.5-5.4-7.9-10.3-7.9 -5.9 0-10.7 4.8-10.7 10.7s4.8 10.7 10.7 10.7c5.1 0 9.4-3.6 10.5-8.4h0c0-0.2 0-0.4 0.1-0.6 0 0 0 0 0 0 0.3-1.4 1.5-2.4 3-2.4 1.7 0 3 1.4 3 3h0.1c1 4.8 5.3 8.4 10.5 8.4 5.9 0 10.7-4.8 10.7-10.7S233.1 17.2 227.2 17.2zM200.1 35.6c-4.3 0-7.7-3.5-7.7-7.7 0-4.3 3.5-7.7 7.7-7.7s7.7 3.5 7.7 7.7c0 0.4 0 0.7-0.1 1 0 0.2-0.1 0.3-0.1 0.5C206.9 32.9 203.8 35.6 200.1 35.6zM227.2 35.6c-4.3 0-7.7-3.5-7.7-7.7 0-4.3 3.5-7.7 7.7-7.7 4.3 0 7.7 3.5 7.7 7.7C234.9 32.1 231.5 35.6 227.2 35.6z"/>
</svg>
