<svg xmlns="http://www.w3.org/2000/svg" version="1.1" x="0" y="0" viewBox="0 0 198.3 229.1" xml:space="preserve"><style type="text/css">
	.st0{fill:#FFFFFF;}
	.st1{fill:#6EACC9;}
	.st2{fill:none;}
	.st3{fill:#191933;}
</style><rect x="103.6" y="51.9" transform="matrix(0.9998 2.209183e-02 -2.209183e-02 0.9998 1.2153 -2.3146)" class="st0" width="3.5" height="3.9"/><rect x="148.4" y="50.8" transform="matrix(0.9998 2.209183e-02 -2.209183e-02 0.9998 1.1819 -3.2871)" class="st0" width="1.9" height="2.1"/><polygon class="st0" points="101.9 109.4 96.3 118.4 93.4 147 95.1 174.2 104.3 194.2 118.9 206.8 131.9 211.6 150.1 204.2 162.7 189.3 167.8 173.4 168.5 150.7 162.7 109.4 "/><path class="st1" d="M78.8 48.1L78.8 48.1c-1.2-1.6-1.6-3.3-1.7-4 0-0.2 0-0.4 0-0.6 0.5-3.1-1.5-5.7-1.9-6.2 0-0.1-0.1-0.1-0.1-0.2 -0.7-1.1-1-2.7-1.1-3.2 0-0.1 0-0.2 0-0.3 0.3-9.4-6-9.1-6-9.1L62 25c-0.1 0-0.2 0-0.3 0 -0.4 0-0.5 0.7-0.4 1.5 -1.8 0.2-3.1 1.2-3.7 1.8 -0.1-1.9-1-2.5-1-2.5 -0.1 0-0.2 0-0.4-0.1 0.3-0.2 0.6-0.3 1-0.5s0.6-0.5 0.5-0.9c-0.1-0.6-0.3-1.4-0.9-1.7l-8.1-3.4 0.7-1.7c2.3 0.1 4.5-0.9 5.3-2.8L43.2 10c-0.8 1.9-0.1 4.2 1.7 5.7l-0.7 1.7 -8.8-3.7c-0.6-0.2-1.3 0.1-1.8 0.5 -0.4 0.2-0.5 0.7-0.3 1.1 0.1 0.4 0.3 0.7 0.3 1 -0.1-0.1-0.2-0.2-0.3-0.2 0 0-2.9-0.7-5.9 6.2 0 0-4.1 1.7-6.2 7.9 0 0-3.9 2.7-5.8 7.8 0 0-0.8 0-2 1.6 -9.3-4.3-8.4-13-7.8-15.8 0.1-0.4 0.2-0.9 0.4-1.3C12.7 5.8 4.1 0.1 4.1 0.1 0.8-0.3 0 0.4 0 0.4c4.1 3.7 8.4 7.3 2.9 21.3 -5.1 12.9 8.7 20.9 8.7 20.9l0.2-0.2c-0.3 0.6-0.6 1.2-0.9 1.9 0 0-1.5 4.5 19 13s22.6 4.3 22.6 4.3c2.5-6.2 1.2-7.6 1.2-7.6 2.2-5 1.5-9.6 1.5-9.6 1.4-2.8 1.7-5.1 1.7-6.9 1.6-0.1 1.6-0.7 1.6-0.7C59.1 33.3 59 31 59 31c0-2.1 0.7-2.1 0.7-2.1 0.2-0.3 1.3-0.5 1.9-0.7 0 0.1 0 0.2 0 0.2v0.1c0.6 3.2 2.5 1.9 3 1.3 0.1-0.1 0.3-0.2 0.5-0.3 4.1-1.8 3.9 2.9 3.9 2.9 -0.2 4.6 1.6 6.8 1.9 7 0 0 0 0 0 0.1 0.6 0.7 0.9 1.2 1 1.6 0.1 0.3 0.1 0.6 0.1 0.8 -0.7 4.1 1.6 7.7 2.2 8.5 0.1 0.1 0.1 0.2 0.2 0.3 1 0.9 0.5 2.6 0.2 3.4 -0.1 0.3-0.2 0.7-0.1 1 0.4 1.7 1.3 2.1 2 2.3 0.5 0.1 0.9 0 1.3-0.3C82.1 53.9 79.2 48.8 78.8 48.1z"/><path class="st2" d="M158.7 112.4c0 0-7.4 3.9-20.2 6.5 -0.7 0.1-1.3 0.8-1.3 1.6 -0.1 1.7-0.6 4.7-3 7.5 -0.6 0.6-0.9 1.5-0.9 2.4l0.4 78.2c0 0.5 0.4 0.9 0.9 0.9 6.1-1 40.9-9.4 30-73.2C164.6 136.1 163.8 112.5 158.7 112.4z"/><path class="st2" d="M127.9 126.2c-1.4-0.8-2.5-2.4-3.5-6.6 -0.3-1.3-1.3-2.3-2.5-2.4 -4.2-0.6-13.6-2.1-18.7-4.1 -1.5-0.6-3.1 0.2-3.8 1.7 -1.4 3-3 9.4-2.9 22.4 0 0.2 0 0.4-0.1 0.6 -0.8 4.6-9.8 59.3 32.3 71.2 0.5 0.1 1-0.3 1-0.8l-0.4-79.8C129.2 127.5 128.7 126.6 127.9 126.2z"/><path class="st3" d="M194.5 223.4c-0.3-2.9-5.7-7.7-5.7-7.7 -0.4-2.3-2.5-4.2-2.5-4.2 0.6-2.3-0.9-4.5-0.9-4.5 -1-2.5-1.3-6.9-1.3-6.9 3-0.4 3.1-1.3 3.1-1.3 -5.7-5.5-5.7-13.5-5.7-13.5 1.9 0 2.6-0.7 2.6-0.7 -4.1-3.4-5.2-8.8-5.2-8.8 2.9-0.1 1.8-0.6 1.8-0.6 -3.2-2.8-3.9-5.7-3.9-5.7 -2.5-5.3-4.9-8.3-6.6-9.9 0.1-7.7-0.6-16.6-2.5-26.7 0 0-0.2-6.8-1.3-13.5 0.8 1 1.5 1 1.5 1 1.2-0.2 1.7 1.7 1.7 1.7 2.3 6.5 4.4 5.6 4.4 5.6 -5.5-8.8-1-6.9-1-6.9 0.7 1.9 3.6 4.8 5.3 6.5 0.4 0.4 1 0.2 1.2-0.3l0 0c3.7 4.8 7 6 7 6 3.3 4.1 4.4 3.1 4.4 3.1 7.5 7.1 7.3 4.8 7.3 4.8 0.8-1.2-7-6.1-7-6.1 0.9-0.4-3.2-2.9-3.2-2.9 -0.2-1.5-7.3-5.7-7.3-5.7 0.9-0.7 0.5-1.4 0.5-1.4 -5.3-3.4-7-6.3-7-6.3 4.5-0.5 2-2.1 2-2.1 -6.1-1.5-8.5-5-8.5-5 1.3-0.8 0.7-2.3 0.7-2.3 -3.4 0.4-5-2.6-5-2.6 0.6-1 0-1.6 0-1.6 -1.2 0.2-3.6-0.5-5.5-1.2v-0.9c1.5-0.4 3.4-1.2 5.4-2.8 0.7-0.5 1.1-1.3 1.2-2.2 0.2-2 0.3-6.1-0.5-12 2.4-3 5.5-7.5 6.4-12.2 0 0 0.7-0.3 1.2-0.8 0.5-0.4 1-0.7 1.7-0.8 0.8-0.1 1.5-0.6 0.3-1.8 0 0-3.2-0.6-0.7-3.2 0 0 2.1-0.6 3.2-1.8 0 0 5.5-0.3 1.5-2.3 0 0-1-0.8-2.9-0.4 0 0-2.8-0.9-0.1-3.6 0 0 1.1-2.1 3.7-2.2 0 0 1.5-0.8-1.1-1.4 0 0-2-0.5-3.9 0.2 0 0 3.5-1.8 3.3-3 0 0 4.2-1.1 4.2-2.7 0 0 5.6-1.4 7.6-2.5 0.4-0.2 0.3-0.8-0.1-0.8 -1.7-0.3-5.9-0.7-8.9 2.1 0 0-2 0.1-4.4 3 0 0-2.9 0.3-3.3 3 0 0-0.4 2.2-2.1 2.9 0 0-0.6-1.5 0.6-3.2 0.1-0.2 0-0.5-0.3-0.4 -0.9 0.2-2.8 1.8-3.6 10.3 0 0-1.3 8.1-3.6 13.5 -0.9-4.3-3.7-13.5-10.2-14.1 -0.4 0-0.9-0.1-1.3-0.3 0.2-3.8-1.2-7.9-1.2-7.9 2.2-2.7 1.2-5.3-0.4-7.3 0.7-0.9 0.5-1.5 0.5-1.5 1.4-0.3 2.4-0.9 3-1.3 0.4-0.3 0.8-0.5 1.3-0.5 1.9-0.2 3.6-1.2 4.2-1.7 0.2-0.1 0.4-0.3 0.5-0.5 5.7-8.6 2.8-10 2.8-10 -2.1-0.7-4.7 6.5-4.7 6.5 -0.2-0.7-0.2-1.8-0.1-2.8 0.2-1.3 0.7-2.5 1.4-3.5 0.6-0.9-0.4-1-0.4-1 -4.5 0.7-3.6 9.2-3.6 9.2 -3-4.2-0.9-6.5-1.1-8.1 0-0.2-0.3-0.3-0.4-0.1 -3.6 3.3-2.4 8.6-2.4 8.6 0 1.2-1.4 4-1.4 4 -0.7 0-1.3 0.2-1.8 0.5 -0.6-0.5-1.1-0.8-1.5-1.1 -0.4-0.2-0.7-0.6-1-0.9 -0.5-0.5-1.2-1.1-1.9-1.7 1-0.7 1.9-1.7 1.8-3.1 0 0 0.1-3.4-1.6-4.2 0 0-2.3-8.2-4.8-7.5 0 0-2.3 1.6 2.9 8.2 0 0-1.1 1.6 1.5 3.8 0 0-0.9 0.2-1.9 1 -0.3-0.3-0.7-0.5-0.9-0.7 -0.3-0.2-0.7-0.5-1-0.8 -3.5-3.3-7.3-1.2-8.4-0.3 -0.4 0.3-0.9 0.5-1.4 0.7 -4.3 1.5-9.8-0.4-9.8-0.4 -2.4-0.9-3.9 0-3.9 0 -0.4 0.2-0.8 0.4-1.3 0.7 -1-1.4-2.2-1.9-2.2-1.9 2.8-1.8 2-3.5 2-3.5 6.1-5.8 4.1-7.7 4.1-7.7 -2.3-1.1-5.9 6.7-5.9 6.7 -1.8 0.6-2.3 3.9-2.3 3.9 -0.5 1.8 1.1 3.3 2.3 4.1 -1 1-1.9 2-2.4 2.6 -0.3 0.4-0.8 0.8-1.2 1.1 -0.9 0.6-1.7 1.5-2.3 2.3 -0.8-0.7-1.9-1.3-3.3-1 0 0-1.9-2.4-2.2-3.6 0 0 0.9-6.3-3.3-8.8 -0.2-0.1-0.4 0-0.4 0.2 0.1 1.6 0.3 7.3-0.3 9 0 0-0.5-8-4.5-8.6 -0.4-0.1-0.9 0.1-1.1 0.5 -0.2 0.3-0.2 0.6 0.6 1.3 0.3 0.3 0.7 0.6 0.9 1 0.5 1.1 1.3 3.1 1.2 4.5 0 0-4.1-6.5-6-5.4 0 0-2.6 2 4.8 9.2 0.2 0.2 0.4 0.3 0.6 0.4 0.7 0.3 2.4 0.9 4.2 0.8 0.6-0.1 1.3 0 1.9 0.3 0.7 0.3 1.8 0.6 3 0.6 0 0-0.3 1.2 2.3 2.2l-0.1 0.1c-4.6 5.7-0.5 8.1-0.5 8.1 -0.4 4.2-0.1 6.7 0.2 8 -0.3 0.1-0.5 0.1-0.8 0.2 -2 0.1-7.7 1.5-8.8 13.8C91.8 75 90 64.2 90 64.2c-0.7-7.1-2.1-9.3-3.1-10 -0.3-0.2-0.8 0.2-0.6 0.5 0.9 1.5 0.4 2.8 0.4 2.8 -1.7-0.8-2.1-2.9-2.1-2.9 -0.4-2.7-2-3.7-2-3.7 -0.6-3.7-3.8-5.7-3.8-5.7 -6.4-6.7-7.3-3.2-7.3-3.2 -0.1 1 5.9 4.4 5.9 4.4 0.1 1.5 3.5 5.5 3.5 5.5 -0.2 1.2 1.9 3.7 1.9 3.7 -1.9-0.7-3.9-0.2-3.9-0.2 -2.6 0.6-1.1 1.4-1.1 1.4 2.5 0.1 3.7 2.2 3.7 2.2 2.7 2.7-0.1 3.6-0.1 3.6 -1.9-0.4-2.9 0.4-2.9 0.4 -3.9 2 1.5 2.3 1.5 2.3 1.1 1.3 3.2 1.8 3.2 1.8 2.5 2.6-0.7 3.2-0.7 3.2 -1.1 1.1-0.5 1.6 0.2 1.8 0.7 0.2 1.4 0.5 2 0.9 0.5 0.4 1.1 0.6 1.1 0.6 1.1 5.5 5.2 11 7.6 13.7 -0.8 6.4-1.1 15 3.1 16.3 0.4 0.1 0.9 0.3 1.3 0.5 0.3 0.1 0.6 0.3 1.1 0.5 -1.6 0.5-3.3 0.9-4.2 0.7 0 0-0.6 0.6 0 1.6 0 0-1.7 3-5 2.6 0 0-0.5 1.5 0.7 2.3 0 0-2.4 3.6-8.5 5 0 0-2.5 1.6 2 2.1 0 0-1.7 2.9-7 6.3 0 0-0.4 0.6 0.5 1.4 0 0-7.1 4.2-7.3 5.7 0 0-4.2 2.5-3.2 2.9 0 0-7.9 4.9-7 6.1 0 0-0.2 2.3 7.3-4.8 0 0 1.1 0.9 4.4-3.1 0 0 3.3-1.2 7-6l0 0c0.2 0.5 0.8 0.6 1.2 0.3 1.7-1.6 4.6-4.5 5.3-6.5 0 0 4.4-1.9-1 6.9 0 0 2.1 0.9 4.4-5.6 0 0 0.5-1.9 1.7-1.7 0 0 1.6 0 2.9-3.5 0 0 1.2-2.7 3.1-4.2 -1.4 3.7-2.8 10.5-2.7 22.9 0 0-2.3 10.7-1.5 24.2 -1.6 1.8-3.6 4.5-5.6 8.9 0 0-0.7 2.9-3.9 5.7 0 0-1.1 0.5 1.8 0.6 0 0-1 5.4-5.2 8.8 0 0 0.7 0.7 2.6 0.7 0 0 0 8.1-5.7 13.5 0 0 0.1 0.9 3.1 1.3 0 0-0.3 4.4-1.3 6.9 0 0-1.6 2.3-0.9 4.5 0 0-2.1 2-2.5 4.2 0 0-3.9 4.1-5.7 7.7 0 0-4.8 4-3.6 5.6 0 0 1 1.6 4.8-4.3 0 0 5.6-5.7 6.6-8.4 0 0 1.6-0.4 2.4-4.2 0 0 3.1-8.2 3.1-10.7l1.2-0.4c0 0 1.8 2.2 1.7 6 0 0 1.6 2.1 1.6-11.5 0 0 0-14.4 2-17.6 0 0 1.8-8.8 3.1-11.3 0 0 0.5-0.1 1.2-0.2 2.4 18.5 11.4 40 39.1 46.8 0 0 34.6-2.6 38.5-46.8 1.1 0 2 0.3 2 0.3 1.3 2.5 3.1 11.3 3.1 11.3 2 3.2 2 17.6 2 17.6 0 13.5 1.6 11.5 1.6 11.5 -0.1-3.8 1.7-6 1.7-6 1.2 9.8 2.4 9.2 2.4 9.2 0.5-0.2 0.4-2.5 0.4-2.5 0 2.4 1.5 4.4 1.5 4.4 0.8 3.8 2.4 4.2 2.4 4.2 1 2.7 6.6 8.4 6.6 8.4 3.7 5.9 4.8 4.3 4.8 4.3C199.3 227.4 194.5 223.4 194.5 223.4zM105.2 52.5c0.6 0 1 0.4 1 1s-0.4 1-1 1 -1-0.4-1-1S104.7 52.5 105.2 52.5zM128.6 209c-42.1-12-33.1-66.7-32.3-71.2 0-0.2 0.1-0.4 0.1-0.6 -0.1-13 1.6-19.4 2.9-22.4 0.7-1.5 2.3-2.3 3.8-1.7 5.2 2 14.6 3.5 18.7 4.1 1.2 0.2 2.2 1.1 2.5 2.4 1 4.2 2.1 5.8 3.5 6.6 0.8 0.5 1.2 1.3 1.2 2.3l0.4 79.8C129.5 208.7 129.1 209.1 128.6 209zM149 50.9c0.3 0 0.6 0.3 0.6 0.6s-0.3 0.6-0.6 0.6 -0.6-0.3-0.6-0.6S148.7 50.9 149 50.9zM134.6 209.4c-0.5 0.1-0.9-0.3-0.9-0.9l-0.4-78.2c0-0.9 0.3-1.7 0.9-2.4 2.4-2.7 2.9-5.8 3-7.5 0-0.8 0.6-1.4 1.3-1.6 12.8-2.6 20.2-6.5 20.2-6.5 5.2 0.2 5.9 23.7 5.9 23.7C175.5 200 140.7 208.4 134.6 209.4z"/><path class="st3" d="M122 193c1.2 0.9 2.6-1 1.4-1.9C122.2 190.2 120.7 192.1 122 193L122 193z"/><path class="st3" d="M125.1 181.9c1.2 0.9 2.6-1 1.4-1.9C125.3 179 123.9 180.9 125.1 181.9L125.1 181.9z"/><path class="st3" d="M138.6 183.8c1.2 0.9 2.6-1 1.4-1.9C138.8 181 137.3 182.8 138.6 183.8L138.6 183.8z"/><path class="st3" d="M137.1 199.4c1.2 0.9 2.6-1 1.4-1.9C137.2 196.6 135.8 198.5 137.1 199.4L137.1 199.4z"/><path class="st3" d="M144.4 201.3c1.2 0.9 2.6-1 1.4-1.9C144.6 198.5 143.2 200.4 144.4 201.3L144.4 201.3z"/><path class="st3" d="M137.7 169.8c1.2 0.9 2.6-1 1.4-1.9C137.9 167 136.4 168.9 137.7 169.8L137.7 169.8z"/><path class="st3" d="M139.9 159.9c1.2 0.9 2.6-1 1.4-1.9C140 157.1 138.6 159 139.9 159.9L139.9 159.9z"/><path class="st3" d="M156.5 152.7c1.2 0.9 2.6-1 1.4-1.9C156.7 149.9 155.3 151.8 156.5 152.7L156.5 152.7z"/><path class="st3" d="M149.3 153.8c1.2 0.9 2.6-1 1.4-1.9C149.5 150.9 148 152.8 149.3 153.8L149.3 153.8z"/><path class="st3" d="M150.6 139.7c1.2 0.9 2.6-1 1.4-1.9C150.8 136.9 149.4 138.8 150.6 139.7L150.6 139.7z"/><path class="st3" d="M159.7 141c1.2 0.9 2.6-1 1.4-1.9C159.8 138.2 158.4 140.1 159.7 141L159.7 141z"/><path class="st3" d="M107 156.5c1.2 0.9 2.6-1 1.4-1.9C107.2 153.7 105.8 155.6 107 156.5L107 156.5z"/><path class="st3" d="M98.3 164.4c1.2 0.9 2.6-1 1.4-1.9C98.5 161.6 97 163.5 98.3 164.4L98.3 164.4z"/><path class="st3" d="M155.6 119.2c1.2 0.9 2.6-1 1.4-1.9C155.8 116.3 154.4 118.2 155.6 119.2L155.6 119.2z"/><path class="st3" d="M98.3 149.1c1.2 0.9 2.6-1 1.4-1.9C98.5 146.3 97 148.2 98.3 149.1L98.3 149.1z"/><path class="st3" d="M160.8 149.1c1.2 0.9 2.6-1 1.4-1.9C161 146.3 159.6 148.2 160.8 149.1L160.8 149.1z"/><path class="st3" d="M159.9 163.2c1.2 0.9 2.6-1 1.4-1.9C160 160.4 158.6 162.3 159.9 163.2L159.9 163.2z"/><path class="st3" d="M110.4 193c1.2 0.9 2.6-1 1.4-1.9C110.5 190.2 109.1 192.1 110.4 193L110.4 193z"/><path class="st3" d="M154.1 130.4c1.2 0.9 2.6-1 1.4-1.9C154.3 127.6 152.9 129.4 154.1 130.4L154.1 130.4z"/><path class="st3" d="M112.7 168.6c1.2 0.9 2.6-1 1.4-1.9C112.9 165.8 111.5 167.7 112.7 168.6L112.7 168.6z"/><path class="st3" d="M122.9 150.9c1.2 0.9 2.6-1 1.4-1.9C123.1 148 121.7 149.9 122.9 150.9L122.9 150.9z"/><path class="st3" d="M120.9 141c1.2 0.9 2.6-1 1.4-1.9C121.1 138.2 119.7 140.1 120.9 141L120.9 141z"/><path class="st3" d="M118.9 124.6c1.2 0.9 2.6-1 1.4-1.9C119.1 121.8 117.7 123.7 118.9 124.6L118.9 124.6z"/><path class="st3" d="M104 173c1.2 0.9 2.6-1 1.4-1.9C104.2 170.2 102.8 172.1 104 173L104 173z"/><path class="st3" d="M137 133.5c1.2 0.9 2.6-1 1.4-1.9C137.2 130.6 135.7 132.5 137 133.5L137 133.5z"/><path class="st3" d="M110.4 144.5c1.2 0.9 2.6-1 1.4-1.9C110.5 141.6 109.1 143.5 110.4 144.5L110.4 144.5z"/><path class="st3" d="M115.8 134c1.2 0.9 2.6-1 1.4-1.9C116 131.2 114.5 133.1 115.8 134L115.8 134z"/><path class="st3" d="M102.8 118.2c1.2 0.9 2.6-1 1.4-1.9C103 115.3 101.6 117.2 102.8 118.2L102.8 118.2z"/><path class="st3" d="M102.8 128.7c1.2 0.9 2.6-1 1.4-1.9C103 125.9 101.6 127.8 102.8 128.7L102.8 128.7z"/><path class="st3" d="M140.8 138.8c1.2 0.9 2.6-1 1.4-1.9C141 136 139.5 137.9 140.8 138.8L140.8 138.8z"/><path class="st3" d="M141 150.5c1.2 0.9 2.6-1 1.4-1.9C141.2 147.7 139.7 149.6 141 150.5L141 150.5z"/><path class="st3" d="M144.1 130.7c1.2 0.9 2.6-1 1.4-1.9C144.3 127.9 142.8 129.8 144.1 130.7L144.1 130.7z"/><path class="st3" d="M105.2 183.8c1.2 0.9 2.6-1 1.4-1.9C105.4 181 103.9 182.8 105.2 183.8L105.2 183.8z"/><path class="st3" d="M146.6 122.8c1.2 0.9 2.6-1 1.4-1.9C146.8 119.9 145.4 121.8 146.6 122.8L146.6 122.8z"/><path class="st3" d="M124.5 173c1.2 0.9 2.6-1 1.4-1.9C124.6 170.2 123.2 172.1 124.5 173L124.5 173z"/><path class="st3" d="M145.2 173.1c1.3 1 2.7-0.9 1.4-1.9C145.3 170.3 143.9 172.1 145.2 173.1L145.2 173.1z"/><path class="st3" d="M151.1 162c1.3 1 2.7-0.9 1.4-1.9S149.8 161 151.1 162L151.1 162z"/><path class="st3" d="M117 200.6c1.2 0.9 2.6-1 1.4-1.9C117.2 197.8 115.7 199.7 117 200.6L117 200.6z"/><path class="st3" d="M116.2 173.7c1.2 0.9 2.6-1 1.4-1.9C116.4 170.8 115 172.7 116.2 173.7L116.2 173.7z"/><path class="st3" d="M121.9 164.9c1.2 0.9 2.6-1 1.4-1.9C122.1 162.1 120.6 163.9 121.9 164.9L121.9 164.9z"/><path class="st3" d="M117 156.5c1.2 0.9 2.6-1 1.4-1.9C117.2 153.7 115.7 155.6 117 156.5L117 156.5z"/><path class="st3" d="M151.4 179.4c1.2 0.9 2.6-1 1.4-1.9C151.6 176.5 150.2 178.4 151.4 179.4L151.4 179.4z"/><path class="st3" d="M157.4 174c1.2 0.9 2.6-1 1.4-1.9C157.5 171.2 156.1 173 157.4 174L157.4 174z"/><path class="st3" d="M142.8 191.5c1.2 0.9 2.6-1 1.4-1.9C142.9 188.6 141.5 190.5 142.8 191.5L142.8 191.5z"/><path class="st3" d="M152.9 188.3c1.2 0.9 2.6-1 1.4-1.9C153.1 185.5 151.6 187.4 152.9 188.3L152.9 188.3z"/><path class="st3" d="M124.1 205.2c1.2 0.9 2.6-1 1.4-1.9C124.3 202.4 122.8 204.3 124.1 205.2L124.1 205.2z"/><path class="st3" d="M114.6 185.9c1.2 0.9 2.6-1 1.4-1.9S113.4 185 114.6 185.9L114.6 185.9z"/><path class="st3" d="M102.4 137.5c1.2 0.9 2.6-1 1.4-1.9C102.5 134.6 101.1 136.5 102.4 137.5L102.4 137.5z"/></svg>