<svg xmlns="http://www.w3.org/2000/svg" version="1.1" x="0" y="0" viewBox="0 0 281.6 332.3" xml:space="preserve"><style type="text/css">
	.st0{fill:#191A33;}
	.st1{fill:#FFFFFF;}
	.st2{fill:#F6F6F6;}
	.st3{fill:#FBBE3C;}
</style><rect x="116.3" y="172.4" class="st0" width="55.2" height="81.6"/><path class="st0" d="M111.2 109.1c0 0-26.9-22.1-17.3-58 0 0 3.5-14.4 18.3-30.9 0 0 16-20.9 23.8-20.2 0 0 0.9 0.3-1.3 1.8 0 0-11.2 14.7-8.8 18.2 2.4 3.5 7.1 3.4 7.1 3.4s4.1 0.5 1.5 1.5c-2.6 1-15.1 4-15.7 5.4 0 0-6.3 4.8-5.9 13.8 0 0-0.5 2.6 9.7 4.2 0 0 5.7 0.3-0.4 2.1 0 0-8.2 0.7-11.1 5.2 0 0-3.5 3.6-3.3 8.3 0 0 3.8-1.5 0.2 4.6 0 0-0.3 0.3 0 0.5 0 0 1.9-1.5 1.6 2.2 0 0 0.1 7 8.7 16.3 0 0 11.5 15.5 22.6 13.3 0 0-5.3 11.9-24.9 10.1C115.9 110.7 114.5 111.2 111.2 109.1z"/><path class="st0" d="M126.9 83.2c0 0-1.9-8.4-0.2-8.7 0 0 3.8-2.6 1.5 8.7 0 0 2.5 0.5 1.9 6.1 0 0 7.4 5.7 10.7 9.9 0 0 1 2 0.2 2.9 0 0-5.5-0.7-12.1-12C128.9 90 125.9 87.3 126.9 83.2z"/><path class="st0" d="M166.2 82.8c0 0 1.2-8.4-0.4-8.7 0 0-2.4-0.3-0.9 8.7 0 0-1.9 3.5 0.1 6.4 0 0-6.9 5-10.7 10.8 0 0-0.5 0.4 0.2 1.3 0 0 5 0.1 11.6-11.2C166.1 90.2 167.2 86.9 166.2 82.8z"/><path class="st0" d="M142 98.5c0 0 1.4-3 5.3-3.6s6.1 3.8 6.1 3.8S148.1 102.5 142 98.5z"/><path class="st0" d="M110.1 125.9c0 0-5.1-5.2-1.8-7.8 0 0-4.4-4.5 0.3-8.9 0 0 1.2-1.7 4.6 0.5 0 0 11.2 2.2 20.2-2.8 0 0 7.6-3 6.8-9.4 0 0 0.1-0.4 0.6-0.1 0 0 2.2 2.3 6.2 2.6 4 0.2 7.5-2.5 7.5-2.5s1.2-0.7 0.8 1.1c0 0-0.3 4.6 3.3 7.9 3.6 3.4 14.7 6.7 14.7 6.7s3.8 1.1 6 0.1c0 0 4.7-1.8 6.3 0 0 0 1.8 1 1.4 4.4 0 0-0.1 0.7-0.9 2.7 0 0 2.1 3.7-2.2 7.4 0 0-2.4 10.4-5.3 13.7 0 0-7.1 9.8-17.8 8.6 0 0-11.1-2.9-19.1-0.7 0 0-11.8 2.9-19.9-2.7 -8.1-5.6-9.3-9.3-9.3-9.3S109.6 132.1 110.1 125.9z"/><path class="st0" d="M152.4 106.5l2.6-5.3c0 0 16.5-3.1 28.4-14.4 0 0 8.7-6.6 6.8-14.4 0 0-1.4-4 2.1-4.4 0 0-1.4-2.7-0.8-4 0.6-1.3 1.4-0.3 1.4-0.3s1-6.1-7.8-10.4c0 0-10-3.1-8.5-3.9 0 0 0.1-0.6 3.5-0.4 0 0 9.6 0.9 10.2-5.4 0 0 1.2-9.3-8-14.7 0 0-5.4-2.4-10.4-3.4 0 0-3.7-0.5 0.8-2 0 0 8.3-1.6 7.3-6.5 0 0-0.4-4.8-5.3-13 0 0-2.5-4.1 1-1 0 0 16.5 15.7 25.6 35.3 0 0 9.8 19.7 7.7 37.5s-16 28.4-16 28.4l-15.2 11.6 -20-2.1L152.4 106.5z"/><path class="st0" d="M108.8 115.1c0 0-7.6-10.7-24.5-19.3 0 0-2.5-1.2-2.5-3.5 0 0-3.7-7.2-2.3-9.9 0 0-0.8-2.7 0.1-3.4 0 0-5.5-19.5 7-15.5 0 0 0.7 0.6-1.2 1 0 0-4.5 1.7-1.7 2.1 0 0 4.6 1.1 1.8 1.8 0 0-4.4 0.9-1.2 1.5 0 0 4.6 0.6 1.1 1.5 0 0-6.1-0.2-1.1 0.8 0 0 6 0.4-0.6 1.4 0 0-3.6 0-2.3 5.3 0 0 0.9 1.5 0.2 3.8 -0.7 2.3 2.3 4.5 2 8.8 0 0 22.5 12.9 27 21.3L108.8 115.1z"/><path class="st0" d="M185.6 117.6c0 0 6.8-10.2 25.8-15.8 0 0 2.7-1.2 2.9-3.5 0 0 4.6-7.2 3.5-9.9 0 0 1.1-2.7 0.3-3.4 0 0 6.4-19.6-5.1-15.5 0 0-0.8 0.6 1.1 1 0 0 4.9 1.2 2 1.6 0 0-4.9-1.4-2.8 0.3 0 0 5.4 3.4 2.2 3.1 0 0-5.2-1.2-2.2 0.6 0 0 5.3 1.1 1.1 1.8 0 0-6.3 0.3 0.2 1.8 0 0 4.2-0.5 1.7 5.3 0 0-1.1 1.5-0.6 3.8 0.5 2.3-3.1 5.3-3.2 9.7 0 0-21.7 8.1-27.1 16.5L185.6 117.6z"/><path class="st0" d="M115.6 140.2c0 0-16.9 18.7-2.7 43.1 0 0 0 1.2-0.6 2.1s32.1 6.9 62.3 1.8c0 0-1.7-1.6 0.9-3.7 0 0 14.7-20.3 1.1-39.1l-13-5.4L115.6 140.2z"/><path class="st0" d="M113.3 162.7c0 0-16-11.8-20.9-8.4 0 0-24.8-30.5-24.9-41.6 0 0-0.8 2.3-1.3 2.1 -0.5-0.2-2.8-7.9-5.3-11.3 0 0-0.1-3.2-2.5-5.9 0 0 0.1-3.7-2.8-6.3 0 0-2.5-14.6-4.1-15.7 0 0-0.2-4.4 1.7-7.6 0 0-2.5 0.9-2.8 6.5 0 0-1.6-2.7-1.4 0.9 0 0-3.2-5.6-5.5-4.5 0 0 4 2.5 4.9 6.2 0 0 0.1 4.1 5.5 15 0 0-0.5 3.1 2.7 6.5 0 0 0.4 3.3 2.6 5.5 0 0-1 1.5 2.6 6.2 0 0-0.5 2.5 1.6 5.9 0 0-3.4 0.2-4.8-1.6 0 0 3.2 4.9-1.3 3 0 0 8.4 4.2 11.9 15.5 0 0 0.7 3.2 3.4 6.2 0 0 1.9 3 4.1 5 0 0-0.2 0.7-1.7 0.8 0 0 3.8-0.2 10.4 9.1 0 0 2.8 5.1 5.2 4.9 0 0-1.3 2.8 3.7 3.9 0 0 14.7 3.5 17.3 4.9L113.3 162.7z"/><path class="st0" d="M181.7 158.2c0 0 18-7.3 19.2-4.2 0 0 19.6-28.7 17.5-43.3 0 0 2.2 1.4 2.7 1.2 0.5-0.1 3.6-8.6 9.2-11.4 0 0 1.7-2.3 4.4-4.6 0 0-0.4-1.4 2.8-3.5 0 0 10.2-14.6 11.9-15.5 0 0 0.8-4.4-0.6-7.8 0 0 2.3 1.2 1.9 6.9 0 0 1.4-1.1 1.2 1.1 0 0 3.6-3.1 5.7-1.7 0 0-4.7 0-6.1 3.6 0 0-3.3 7.5-12.6 14.9 0 0 0.7 0.9-3 3.9 0 0-1.5 2.1-3.9 3.9 0 0-0.1 1.4-4.2 5.6 0 0-1.7 2-0.8 2.7 0 0 0.2 0.6 1.8-1.1 0 0-5.1 5.5 1.7 2 0 0-3.8 4.1-8.8 14.9 0 0-3 7.7-4.8 11.4 0 0-0.1 2.9-1.9 4.4 0 0-3 3.5-2.6 4 0 0 2.3-1.1 0.5 1.4 0 0-8.1 11.6-10.5 11.1 0 0-1.8 4-7.1 6 0 0-11.8 2.9-14.5 3.8L181.7 158.2z"/><path class="st0" d="M110.8 200.8c0 0-6.9-13.1-15.5-15.9 0 0-17.4 5.3-27.7 8 -10.3 2.6-11.4 4.1-14.8 4.2 0 0 0.9 1.1 1.9 1.2 0 0-1.6 1.1-7.6 2.5 0 0 0.8 0.9 2.4 0.9 0 0-12.9 3.2-14.7 10.8 0 0-2.6 1.5-2.5 4.4 0 0-2.7 1.8-2.5 5 0 0-2.1 1.2-2.3 3.2 0 0-17.4 2-19.7 4.1 0 0-5.4-2.7-7.7-0.6 0 0 3.2-0.9 6.9 1.3 0 0-0.4 1.5 0.6 2 0 0-0.3 2.9-5.9 6.4 0 0 3.4-0.3 7.1-5.9 0 0 21.8-3 24.1-9.7 0 0 2-2 2-4 0 0 1.9-1.6 2-3.8 0 0 2.7 0.6 4.2-5.7 0 0 2.6-0.2 4.3 2.5 0 0 5.8-9 15.4-12 0 0 22-7.9 31.3-9 0 0 5.5 12.7 14.5 20.4L110.8 200.8z"/><path class="st0" d="M179.7 200.9c0 0 9.7-13.5 17.1-9.9 0 0 3.2-1.5 17.8 6.6 0 0 15.5 8 18.7 8.1 0 0 0.2 0.8-1.5 1.6 0 0 4.5 0.1 5.7 1.7 0 0-2.4 1.1 5.2 5 0 0 3.2 1.8 3 4.3 0 0 3.4 2.8 3.2 4.8 0 0 3.2 2.9 3.1 5.2 0 0 1.6 2.3 1.6 5.1 0 0 3 2.7 2.6 4.6 0 0 17.6 4 18.1 6.8 0 0 6-1.2 7.3 1.2 0 0-4.9-1.2-6.2 0 0 0 1 1.5-0.7 1.5 0 0-0.3 3.8 3.1 5.7 0 0-2.9 0.1-5.2-6.4 0 0-10.9-3-17.6-7.1 0 0-2.9 1.2-3.8-5.5 0 0-2.5-0.7-2.2-5.9 0 0-2-1.6-1.6-3.5 0 0-2.1-0.7-3.6-4.8 0 0-3.5-1.4-5.2 1.2 0 0-3-7.2-10.5-11.3 0 0-21.7-12.4-30.3-14.8 0 0-12.2 16.2-17.4 17.4L179.7 200.9z"/><path class="st0" d="M106.2 227.8c0 0-19.2-5.2-27.2-3.5 0 0-6.8 0.5-3.8 8 0 0 4.9 25.2 4.5 35.2 0 0 0.1 1 1.3-0.8 0 0-0.8 4.8 1.5 9.2 0 0 0.6 1.8 0.4 3.2 0 0 1.1-2.6 2.3-2.3 0 0-1.1 7.8 0.3 8.5 0 0-1.2 10.2-0.2 11.1 0 0-1.4 6 0.3 7.4 0 0-2.5 17.1-2.2 18.9 0 0-4.4 3.6-3.6 6.8 0 0 0.6-3.7 4.2-5.4 0 0 1.1 1.4 1.9-0.1 0 0 2.1 2 1.9 5.8 0 0 1.4-2-0.8-6.9 0 0 2.3-6.4 0.6-19.6 0 0 1.4-0.9-0.1-7.1 0 0 1.7-5.4 0.4-11.3 0 0 1.3-2.3 0.2-6.8 0 0 0.1-4.9 3.7-0.5 0 0-6.1-10.8-6.2-16.3 0 0-1.2-16-2.5-19.8 0 0-3.3-9.7-2.6-10.4 0 0 0.7-1.1 6.8 4.5 0 0 11.9 7.6 16.4 8.1l4.8-0.5L106.2 227.8z"/><path class="st0" d="M171.1 234.9c0 0 23.4-14.3 31.2-10.4 0 0 2.3 0.7 1.8 7.5 0 0 3.1 22.1 1.7 26.2 0 0-1-1.4-1.6-1.1 0 0 1.7 12.4 0 14 0 0-0.5-0.1-1.1-2.5 0 0-1.8 4.5 0.9 9.5 0 0-1-1.7-3-2.1 0 0 2.2 4.9 1.1 7.2 0 0 3.4 10 2.8 13.8 0 0 2.4 5.1 1 7.8 0 0 6.3 14.1 5.4 17.4 0 0 4 4.5 3.6 8.2 0 0-2-5.8-3.9-7 0 0-0.8 0.9-2 0.5 0 0-1.8 3.5-1.1 8.3 0 0-2.2-3.5 0-8.9 0 0-3.9-12.1-3.7-18.2 0 0-2.2-2.7-1.4-7.9 0 0-3.2-8.8-2.9-13.6 0 0-1.3-3.1-1-7.2 0 0-1.9-1.1-3.5 2.5 0 0 6.3-41.7 4.1-46.5 0 0-8.7 9.3-26.1 14.1L171.1 234.9z"/><ellipse class="st1" cx="109.1" cy="120.6" rx="0.8" ry="1.2"/><path class="st0" d="M134.7 187.9c0 0-20.2-1.4-22.9-3.2 0 0-4.3-1.9-5.2 0.8 0 0-5.9 8.4-6.1 27.1 -0.2 18.7 0.7 29 4.3 47.2 3.6 18.2 18.1 30.6 18.1 30.6s9.6 8.7 18.1 9c0 0 2.6-28.4 1-103C142.1 196.3 137.4 194.9 134.7 187.9z"/><path class="st0" d="M142.9 195.9c0 0 4.4-0.7 9.2-8.7 0 0 21.2-0.6 23.4-1.7 0 0 4.5-1.5 5.3 3.8 0 0 14.8 78.5-29.3 106.1 0 0-4.4 3.4-10.4 4C141.1 299.3 144.1 210.3 142.9 195.9z"/><ellipse transform="matrix(0.2751 -0.9614 0.9614 0.2751 16.0175 265.9449)" class="st1" cx="184.4" cy="122.4" rx="0.9" ry="0.6"/><path class="st2" d="M132.9 192.9c-3-0.2-17.3-1.4-19.5-2.8 0 0 0 0 0 0 -0.3-0.1-3.8-1.6-4.5 0.7 0 0-5.2 7.5-5.4 24.2 -0.2 16.7 0.6 25.9 3.8 42.1 3.1 16 14.7 26.9 15.1 27.2 0 0 0 0 0 0 0.3 0.3 9.1 9.7 16.4 10.3 0.3 0 0.5-0.2 0.5-0.4 0.3-3.8 2-31.9 0.7-93.1 0-0.3-0.2-0.6-0.5-0.8 -1.1-0.5-3.9-2.3-5.8-6.8C133.5 193.1 133.3 192.9 132.9 192.9z"/><path class="st2" d="M145.6 200.2c1.2-0.4 4.1-2 7.2-7.3 0.1-0.2 0.4-0.4 0.7-0.4 1.7 0 7.3-0.2 19.4-1.7 0 0 0 0 0.1 0 0.4-0.1 4.8-1.1 5.1 3.6 0 0 11.6 69.2-25.5 96 0 0-3.3 2.7-8.1 3.5 -0.5 0.1-1-0.3-0.9-0.8 0.3-8.9 2.4-78.2 1.6-92C145.1 200.6 145.3 200.3 145.6 200.2z"/><path class="st0" d="M160.1 210.5c1.5 0 1.5-2.4 0-2.4C158.5 208.1 158.5 210.5 160.1 210.5L160.1 210.5z"/><path class="st0" d="M166.9 205.3c1.5 0 1.5-2.4 0-2.4C165.3 203 165.3 205.3 166.9 205.3L166.9 205.3z"/><path class="st0" d="M171.5 211.7c1.5 0 1.5-2.4 0-2.4C170 209.3 170 211.7 171.5 211.7L171.5 211.7z"/><path class="st0" d="M161.7 200.7c1.5 0 1.5-2.4 0-2.4C160.1 198.4 160.1 200.7 161.7 200.7L161.7 200.7z"/><path class="st0" d="M150.7 205.6c1.5 0 1.5-2.4 0-2.4C149.1 203.2 149.1 205.6 150.7 205.6L150.7 205.6z"/><path class="st0" d="M170.4 231.7c1.5 0 1.5-2.4 0-2.4C168.8 229.3 168.8 231.7 170.4 231.7L170.4 231.7z"/><path class="st0" d="M166.7 220.8c1.5 0 1.5-2.4 0-2.4C165.1 218.5 165.1 220.8 166.7 220.8L166.7 220.8z"/><path class="st0" d="M175.6 219.2c1.5 0 1.5-2.4 0-2.4C174.1 216.8 174.1 219.2 175.6 219.2L175.6 219.2z"/><path class="st0" d="M171.5 242.9c1.5 0 1.5-2.4 0-2.4C170 240.5 170 242.9 171.5 242.9L171.5 242.9z"/><path class="st0" d="M150.5 231.7c1.5 0 1.5-2.4 0-2.4C148.9 229.3 148.9 231.7 150.5 231.7L150.5 231.7z"/><path class="st0" d="M157.2 222c1.5 0 1.5-2.4 0-2.4C155.6 219.7 155.6 222 157.2 222L157.2 222z"/><path class="st0" d="M148.4 218.4c1.5 0 1.5-2.4 0-2.4C146.9 216.1 146.9 218.4 148.4 218.4L148.4 218.4z"/><path class="st0" d="M150.7 242.9c1.5 0 1.5-2.4 0-2.4C149.1 240.5 149.1 242.9 150.7 242.9L150.7 242.9z"/><path class="st0" d="M172.1 199.2c1.5 0 1.5-2.4 0-2.4C170.5 196.9 170.5 199.2 172.1 199.2L172.1 199.2z"/><path class="st0" d="M168 250.9c1.5 0 1.5-2.4 0-2.4C166.5 248.6 166.5 250.9 168 250.9L168 250.9z"/><path class="st0" d="M169.2 260.9c1.5 0 1.5-2.4 0-2.4C167.6 258.6 167.6 260.9 169.2 260.9L169.2 260.9z"/><path class="st0" d="M162.2 264.9c1.5 0 1.5-2.4 0-2.4C160.6 262.5 160.6 264.9 162.2 264.9L162.2 264.9z"/><path class="st0" d="M161.7 237.7c1.5 0 1.5-2.4 0-2.4C160.1 235.4 160.1 237.7 161.7 237.7L161.7 237.7z"/><path class="st0" d="M161.7 231.7c1.5 0 1.5-2.4 0-2.4C160.1 229.3 160.1 231.7 161.7 231.7L161.7 231.7z"/><path class="st0" d="M154.4 259.7c1.5 0 1.5-2.4 0-2.4C152.8 257.4 152.8 259.7 154.4 259.7L154.4 259.7z"/><path class="st0" d="M158.3 250c1.5 0 1.5-2.4 0-2.4C156.7 247.7 156.7 250 158.3 250L158.3 250z"/><path class="st0" d="M148.4 254.2c1.5 0 1.5-2.4 0-2.4C146.8 251.9 146.8 254.2 148.4 254.2L148.4 254.2z"/><path class="st0" d="M123.1 265.6c1.5 0 1.5-2.4 0-2.4C121.5 263.2 121.5 265.6 123.1 265.6L123.1 265.6z"/><path class="st0" d="M124.2 256.6c1.5 0 1.5-2.4 0-2.4C122.7 254.2 122.7 256.6 124.2 256.6L124.2 256.6z"/><path class="st0" d="M132.9 250c1.5 0 1.5-2.4 0-2.4C131.4 247.7 131.4 250 132.9 250L132.9 250z"/><path class="st0" d="M125.4 240.6c1.5 0 1.5-2.4 0-2.4C123.8 238.3 123.8 240.6 125.4 240.6L125.4 240.6z"/><path class="st0" d="M122.8 230.2c1.5 0 1.5-2.4 0-2.4C121.2 227.8 121.2 230.2 122.8 230.2L122.8 230.2z"/><path class="st0" d="M131.7 214.4c1.5 0 1.5-2.4 0-2.4C130.2 212 130.2 214.4 131.7 214.4L131.7 214.4z"/><path class="st0" d="M126.6 219.6c1.5 0 1.5-2.4 0-2.4C125 217.3 125 219.6 126.6 219.6L126.6 219.6z"/><path class="st0" d="M119.2 207.6c1.5 0 1.5-2.4 0-2.4C117.6 205.2 117.6 207.6 119.2 207.6L119.2 207.6z"/><path class="st0" d="M127.2 203.2c1.5 0 1.5-2.4 0-2.4C125.6 200.8 125.6 203.2 127.2 203.2L127.2 203.2z"/><path class="st0" d="M116.3 198.1c1.5 0 1.5-2.4 0-2.4C114.8 195.7 114.8 198.1 116.3 198.1L116.3 198.1z"/><path class="st0" d="M111.9 234.4c1.5 0 1.5-2.4 0-2.4C110.4 232 110.4 234.4 111.9 234.4L111.9 234.4z"/><path class="st0" d="M107.2 224.1c1.5 0 1.5-2.4 0-2.4C105.6 221.7 105.6 224.1 107.2 224.1L107.2 224.1z"/><path class="st0" d="M110.8 212.8c1.5 0 1.5-2.4 0-2.4C109.2 210.5 109.2 212.8 110.8 212.8L110.8 212.8z"/><path class="st0" d="M118 222c1.5 0 1.5-2.4 0-2.4C116.4 219.7 116.4 222 118 222L118 222z"/><path class="st0" d="M108.5 204.4c1.5 0 1.5-2.4 0-2.4C107 202 107 204.4 108.5 204.4L108.5 204.4z"/><path class="st0" d="M120.8 248.2c1.5 0 1.5-2.4 0-2.4C119.2 245.8 119.2 248.2 120.8 248.2L120.8 248.2z"/><path class="st0" d="M132.9 237.7c1.6 0 1.6-2.4 0-2.4C131.3 235.4 131.3 237.7 132.9 237.7L132.9 237.7z"/><path class="st0" d="M132.9 225.1c1.6 0 1.6-2.4 0-2.4C131.3 222.7 131.3 225.1 132.9 225.1L132.9 225.1z"/><path class="st0" d="M135 264.4c1.5 0 1.5-2.4 0-2.4C133.4 262 133.4 264.4 135 264.4L135 264.4z"/><path class="st0" d="M112.2 255.4c1.5 0 1.5-2.4 0-2.4C110.6 253 110.6 255.4 112.2 255.4L112.2 255.4z"/><path class="st0" d="M111.4 245c1.5 0 1.5-2.4 0-2.4C109.9 242.7 109.9 245 111.4 245L111.4 245z"/><path class="st0" d="M149.5 269.5c1.5 0 1.5-2.4 0-2.4C148 267.2 148 269.5 149.5 269.5L149.5 269.5z"/><path class="st0" d="M116.8 269.5c1.5 0 1.5-2.4 0-2.4C115.3 267.2 115.3 269.5 116.8 269.5L116.8 269.5z"/><path class="st0" d="M158.3 276.1c1.5 0 1.5-2.4 0-2.4C156.7 273.8 156.7 276.1 158.3 276.1L158.3 276.1z"/><path class="st0" d="M149.5 285c1.5 0 1.5-2.4 0-2.4C148 282.6 148 285 149.5 285L149.5 285z"/><path class="st0" d="M123.1 278.5c1.5 0 1.5-2.4 0-2.4C121.5 276.1 121.5 278.5 123.1 278.5L123.1 278.5z"/><path class="st0" d="M133.2 276.1c1.5 0 1.5-2.4 0-2.4C131.6 273.8 131.6 276.1 133.2 276.1L133.2 276.1z"/><path class="st0" d="M134.3 289.9c1.5 0 1.5-2.4 0-2.4C132.8 287.6 132.8 289.9 134.3 289.9L134.3 289.9z"/><path class="st1" d="M117.5 135.9c0 0 7.7 12.5 25.7 9.4 0 0 4.1-1.3 10-0.5 5.9 0.7 15.2 3.2 21.3-6.6 0 0 2.3-2.6 2.9-5.1 0 0 0.8-2.4-1.7-1.5 0 0-5.7 5.4-13.6 6.3 0 0-5.1 1.1-8.7-2.7 0 0-2.3-2.8-7-2.9 0 0-4.6-0.5-7.4 2.8 0 0-2.9 2.6-7.7 2.3 0 0-9.2 0-13.5-4.3 0 0-0.9-1.1-1.4-0.3C116.5 133 116 133.9 117.5 135.9z"/><path class="st0" d="M171.3 137.3c0 1.5 2.4 1.5 2.4 0C173.7 135.7 171.3 135.7 171.3 137.3L171.3 137.3z"/><path class="st0" d="M144.9 135c0 1.5 2.4 1.5 2.4 0C147.3 133.4 144.9 133.4 144.9 135L144.9 135z"/><path class="st0" d="M161.6 141.9c0 1.5 2.4 1.5 2.4 0C164 140.3 161.6 140.3 161.6 141.9L161.6 141.9z"/><path class="st0" d="M130.5 142c0 1.5 2.4 1.5 2.4 0C132.9 140.5 130.5 140.5 130.5 142L130.5 142z"/><path class="st0" d="M151.3 140.9c0 1.5 2.4 1.5 2.4 0C153.6 139.3 151.3 139.3 151.3 140.9L151.3 140.9z"/><path class="st0" d="M138.9 140.6c0 1.5 2.4 1.5 2.4 0C141.3 139 138.9 139 138.9 140.6L138.9 140.6z"/><path class="st0" d="M121.9 138.7c0 1.5 2.4 1.5 2.4 0C124.3 137.1 121.9 137.1 121.9 138.7L121.9 138.7z"/><path class="st3" d="M152 185c-0.4 0.1-0.9 0.1-1.3 0.2 -0.4 0-0.8 0-1.1-0.1 -0.3-0.1-0.7-0.1-0.9-0.2 -0.3-0.1-0.5-0.2-0.7-0.2l-0.6-2.7 1.4-0.3 0.4 1.9 0.5 0.4c0.3 0.1 0.5 0.1 0.8 0.1 0.3 0 0.7 0 1.2-0.1l-1.2-5.5c0 0-0.1 0-0.2 0 -0.1 0-0.3-0.1-0.7-0.1 -0.5-0.1-0.9-0.2-1.4-0.3 -0.4-0.1-0.8-0.3-1.2-0.5 -0.4-0.2-0.7-0.5-1-0.9s-0.5-0.8-0.6-1.4c-0.1-0.5-0.1-0.9 0-1.4 0.1-0.4 0.3-0.9 0.6-1.3 0.3-0.4 0.7-0.7 1.1-1 0.5-0.3 1-0.5 1.6-0.7l-0.2-1 1.2-0.3 0.2 1c0.7-0.1 1.3-0.2 1.9-0.2 0.5 0 1 0.1 1.4 0.1l0.6 2.6 -1.4 0.3 -0.4-1.6 -0.5-0.3c-0.5-0.1-1 0-1.4 0.1l1.1 5.2c0.7 0.1 1.3 0.3 1.9 0.4 0.6 0.1 1.1 0.3 1.5 0.5 0.4 0.2 0.8 0.5 1.1 0.9 0.3 0.4 0.5 0.9 0.6 1.5 0.2 1 0 1.9-0.6 2.7 -0.6 0.8-1.6 1.4-2.9 1.9l0.3 1.2 -1.2 0.3L152 185zM147.6 174.5c0.1 0.7 0.5 1.2 0.9 1.5 0.5 0.3 1.1 0.5 1.7 0.7l-1-4.7c-0.6 0.2-1.1 0.6-1.4 1S147.5 173.9 147.6 174.5zM154.6 180.8c-0.1-0.3-0.2-0.6-0.4-0.9 -0.2-0.2-0.4-0.4-0.6-0.6 -0.2-0.2-0.5-0.3-0.8-0.4 -0.3-0.1-0.6-0.2-1-0.2l1.1 4.9c0.6-0.3 1.1-0.7 1.4-1.2S154.8 181.4 154.6 180.8z"/><path class="st3" d="M145.7 170.8c-0.7 0-1.3-0.1-1.9-0.2 -12.6-2.2-31.6-23.3-32.4-24.2 -0.3-0.3-0.3-0.8 0.1-1.1 0.3-0.3 0.8-0.3 1.1 0.1 0.2 0.2 19.5 21.6 31.6 23.7 11.9 2.1 35-19.4 35.3-19.7 0.3-0.3 0.8-0.3 1.1 0 0.3 0.3 0.3 0.8 0 1.1C179.4 151.4 158.6 170.8 145.7 170.8z"/></svg>