<svg xmlns="http://www.w3.org/2000/svg" version="1.1" id="Layer_1" x="0" y="0" viewBox="0 0 200 201.8" xml:space="preserve"><style type="text/css">
	.st0{fill:#F190A2;}
	.st1{fill:#191A33;}
	.st2{fill:#FFFFFF;}
</style><path class="st0" d="M199.2 61.1L179.9 58l0 0 -9.4-9.4 3-3c0 0 0 0 0 0l0.4 0.4c0.8 0.8 2 0.8 2.7 0 0.8-0.8 0.8-2 0-2.7l-2.7-2.7c-0.8-0.8-2-0.8-2.7 0 -0.8 0.8-0.8 2 0 2.7l0.4 0.4c0 0 0 0 0 0l-3 3 -4.7-4.7 3-3c0 0 0 0 0 0l0.4 0.4c0.8 0.8 2 0.8 2.7 0 0.8-0.8 0.8-2 0-2.7l-2.7-2.7c-0.8-0.8-2-0.8-2.7 0 -0.8 0.8-0.8 2 0 2.7l0.4 0.4c0 0 0 0 0 0l-3 3 -4.7-4.7 3-3c0 0 0 0 0 0l0.4 0.4c0.8 0.8 2 0.8 2.7 0 0.8-0.8 0.8-2 0-2.7l-2.7-2.7c-0.8-0.8-2-0.8-2.7 0 -0.8 0.8-0.8 2 0 2.7l0.4 0.4c0 0 0 0 0 0l-3 3 -19.2-19.2c0.3-0.7 0.1-1.5-0.4-2.1 -0.8-0.8-2-0.8-2.7 0l-2.7 2.7c-0.8 0.8-0.8 2 0 2.7 0.6 0.6 1.4 0.7 2.1 0.4l5.9 5.9c-2 0.1-3.9 0.9-5.4 2.4 -3.2 3.2-3.2 8.3 0 11.5l9.1 9.1 -1.6 1.6c-0.5 0.5-0.5 1.4 0 1.9 0.5 0.5 1.4 0.5 1.9 0l1.6-1.6 4.7 4.7 -1.6 1.6c-0.5 0.5-0.5 1.4 0 1.9s1.4 0.5 1.9 0l1.6-1.6 4.7 4.7 -1.6 1.6c-0.5 0.5-0.5 1.4 0 1.9 0.5 0.5 1.4 0.5 1.9 0l1.6-1.6 1.6 1.6c3.2 3.2 8.3 3.2 11.5 0 1.5-1.5 2.3-3.4 2.4-5.4l3.5 3.5 0 0 3.2 19.3c0.1 0.8 1.1 1.1 1.7 0.5l18.8-18.8C200.3 62.3 200 61.3 199.2 61.1zM134.7 35.9c-2.1-2.1-2.1-5.6 0-7.7 2.1-2.1 5.6-2.1 7.7 0l9.1 9.1 -7.7 7.7L134.7 35.9zM145.8 46.9l7.7-7.7 4.7 4.7 -7.7 7.7L145.8 46.9zM152.4 53.5l7.7-7.7 4.7 4.7 -7.7 7.7L152.4 53.5zM160.6 61.8l-1.6-1.6 7.7-7.7 1.6 1.6c2.1 2.1 2.1 5.6 0 7.7C166.2 63.9 162.8 63.9 160.6 61.8z"/><path class="st1" d="M68.6 75.8c0 0 3.1 2 3.6 5.5 0.1 0.6 0.3 1.2 0.5 1.8 0.7 1.4 2.1 3.6 4.2 3.6 2 0 3.4-1.7 4.1-2.9 0.3-0.6 0.6-1.2 0.7-1.9 0.3-1.6 1.7-5.8 5.1-6.3"/><path class="st1" d="M153.9 118.4c0.9 0.9 0 1.1 0 1.1l-6.1-3c1.9-4.3-3.7-3.6-3.7-3.6 -0.9-1.8-4.6-1.8-4.6-1.8 -1.3-3-5.9-2.3-5.9-2.3 -2.1-17.1-12.4-20.1-12.4-20.1 -1.8-2.1-3-2-3.7-1.5 -0.1-0.4-0.2-0.8-0.3-1.3 -0.1-0.3-0.1-0.6-0.2-0.9 -0.2-1.4-1.5-6.7-6.7-9.7 0.2 0 0.3 0 0.3 0 -0.5-2.5-1.1-4.7-1.7-6.8 0.5-0.7 0.6-1.6 0.6-1.6 7.9-6.9 5.7-19.3 5.7-19.3 -0.5-2.2 0.7-2.2 0.7-2.2 5.5-0.8 4.7-3.2 4.7-3.2 3.1-0.6 3.2-2.6 3.2-2.6 7.6-1.9 3.5-4.5 3.5-4.5l4.6-3.7c1.9-0.6 0.2 0.7 0.2 0.7 2.6-0.2 0.6-1.9 0.6-1.9l-1.7-1.7c-1.6-2.1-2-0.6-2-0.6 0.9-0.3 0.8 0.9 0.8 0.9l-4.1 4.4c-3-2.6-4.6 3.4-4.6 3.4 -1.9 0.5-2.4 2.9-2.4 2.9 -1.4-1.4-4.1 3.2-4.1 3.2 -5.2 0.1-4.2 6-4.2 6 2.1 10.9-0.9 14.5-0.9 14.5 -0.3-0.1-1.2 0.2-2.2 0.7 -5.8-14.2-14-12.9-14-12.9 -0.1 0-0.1 0-0.2 0 -1.3-1.6-4.1-2.6-5.2-3 -0.1-0.3-0.2-0.7-0.2-0.7 4.4-2.6 6-4.8 6-4.8 2.7-1.5 3.4-3.9 3.4-3.9 1.6 0.1 3.9-3.7 3.9-3.7 1.2 0 3.4-3.4 3.4-3.4 2.1-0.3 2.9-3.2 2.9-3.2 2.3-0.8 3.1-3 3.1-3 3.1-1.3 3.6-3.4 3.6-3.4 4.5-0.9 4.2-4.3 4.2-4.3 5.2-1 4.4-4.6 4.4-4.6 5.4-0.8 4.6-4.6 4.6-4.6 8.9-5.6 4.8-8.2 4.8-8.2 -4.9-2.1-6.8 6.1-6.8 6.1 -4.3-0.4-4.3 5.1-4.3 5.1 -4-0.8-4.3 4.9-4.3 4.9 -3.9-1.4-3.8 4.2-3.8 4.2 -3.1-0.9-4.2 3.8-4.2 3.8 -1.3 0.1-3.3 3.8-3.3 3.8 -1.4-0.5-2.1 2.6-2.1 2.6 -1.9-0.5-3.5 3.3-3.5 3.3 -1.6-0.6-4 3.5-4 3.5 -2.2 0.6-3.9 3.6-3.9 3.6C86.7 40 86.2 47 86.2 47L86.1 47c-1.6-1-4.7-2.3-10.1-2.3 -4.8 0-8.1 1.1-10.2 2.2 -0.3-0.1-0.6-0.1-0.6-0.1 -2.1-7.9-6.9-4.8-6.9-4.8 -1.9-3.4-4.8-2.8-4.8-2.8C52 36.5 49 36.5 49 36.5c-1-2.6-3.7-2.4-3.7-2.4 -1.2-2.6-3.6-2.3-3.6-2.3 -1.2-3.3-3.6-2.4-3.6-2.4 -1.6-4.8-4.6-2.9-4.6-2.9 -0.7-5.5-4.9-3.3-4.9-3.3 -1.1-5.6-4.3-3.1-4.3-3.1 -0.6-0.1-0.8-0.8-0.8-0.8 -1.9-5.9-4.8-3-4.8-3 -0.2-1.8-3.9-3.6-3.9-3.6 -3.5-1.6-3.9 0-3.9 0 -0.1 6.1 6.6 5.8 6.6 5.8 -0.1 2.9 5.6 3.5 5.6 3.5C22 24.7 28 25 28 25c0.3 2.9 5.1 3.4 5.1 3.4 -0.3 1.2 4.1 2.7 4.1 2.7 1.3 1.9 3.9 2.1 3.9 2.1 0.4 1.4 3.5 2.3 3.5 2.3 0 1.3 3.8 2.7 3.8 2.7 0.1 0.9 4.8 3 4.8 3 0.6 1.4 4 2.6 4 2.6 1.5 1.8 5.9 3.4 5.9 3.4 -0.1 0.6-0.1 1 0 1.4 -2.3 0.5-3.6 2-4.1 2.6 -0.1 0-0.1 0-0.2 0 -7.5-1.2-12.3 7.6-14.9 14.9 -0.7-0.3-1.3-0.4-1.7-0.2 -1.2 0.6-4.4-5.4-4.4-11.5 0 0 0-6.4-1.8-7.5 0 0-2.9-2.4-2.9 0 0 0-3.7-5.8-4.6-3.4 0 0-1.9-4-3.2-3.4 0 0-1.3-7.1-4.5-2.5l-4.1-5c0 0 0.4-1 1.3 0 0 0-0.3-3.1-2.7-1.2 0 0-1.6 1.1-2.1 2.1 0 0-1.6 2.2 1 3.2 0 0-0.9-0.7-0.2-1.6l5.5 3.9c0 0-4.2 2.9 3.3 4.2 0 0 0 1.7 4.1 2.1 0 0-1.8 2.4 5.1 2.9 0 0 1.3 14.8 9 20.9 0 0 0.5 1.2 1.4 1.5 -0.6 2.2-1 3.9-1.1 4.6 -2.9 1.3-5.5 3.8-6.4 8.2 -0.2 1.3-0.5 2.5-0.8 3.5 -0.7 0.3-1.4 0.7-1.8 1.6 0 0-6.3 1.3-11.1 16.5 0 0-1.4 2.7 0 4.4 0 0-6.4 0.9-5.8 2.4 0 0-4.4 1.4-4.9 2.4 0 0-7 1.1-2.9 4l-6.7 2.9c0 0-0.5-0.2 0-1.5 0 0-2.2 1-0.2 4.3 0 0 1.5 2.7 3.1 0.9 0 0-1.8 0.2-0.9-0.8l5.9-4.1c0 0 1.1 4.5 5-2 0 0 1 0.4 2.8-2.6 0 0 0.4 2.7 5.7-3.3 0 0 2.9 2.5 4.7-4.9 0 0-0.5-13.1 5.9-15.3 -1.4 5.4-2.5 11.8-1.6 30.3 0.3 6.7 1.4 12.6 2.8 17.9 -2.2 3.1-5.2 8-3.5 9.6 0 0-4.2 5.3 5 17.2 0 0 6.1 9.5 8.6 9.5 0 0-5.1 3.3-4.1 4.7 0 0-3.9 2.8-3.1 4 0 0-5.8 5.5-0.9 5.7 0 0-4 7-3.3 8.4 0-0.1-0.2-0.5-1 0 -0.9 0.6 2 0.8 2 0.8l3.3 1.8c0 0 1.1-1.3-1.1-1.5 0 0 1.1-7.8 2.1-8.5 0 0 3.3 2.7 3.2-4.5 0 0 1.3 0.2 1-4.1 0 0 0.7 1.9 5.1-6.2 0 0 4.5-2.5-3.1-9.1 0 0-14.9-12.3-9.9-17.3 0 0 1 1.5 3-1.5 4.3 10.8 9.5 16.7 9.5 16.7s12.1 13.5 29.2 12.8c0 0 27.5 0.8 35.9-21.7 1.3-3.6 2.5-6.8 3.4-9.7 0 0.1 0 0.2 0 0.2 2.5 2.3 4.3 1 4.3 1 2.9 3.1 0.9 5.6 0.9 5.6 -1 3.4-11.4 15-11.4 15 -6.2 5.9 0 8.9 0 8.9 4 7.4 5.1 4.4 5.1 4.4 0 3.7 2.2 5 2.2 5 2.5 6.7 4.5 2.4 4.5 2.4 1.1 0.2 3.8 6.8 3.8 6.8l0.1 1.4c0.5 0 2.1-2.1 2.1-2.1 1-0.3 2.2-1.1 2.2-1.1 -0.4-0.4-1.2-0.6-1.2-0.6 -0.5-2-5-5.5-5-5.5 3.3-2.5-3.2-5.1-3.2-5.1 -0.2-1.4-3.2-3.2-3.2-3.2 0.8-2.2-5.3-5-5.3-5 3.5-2.5 8.1-10.1 8.1-10.1 9-13.8 4.2-18.2 4.2-18.2 0.7-3.1-3.6-9.1-5-10.9 1.8-7.1 1.9-10.1 1.9-10.1s2.5-12.8-1.3-32.4c1.3-1.9 2.4-1.5 2.4-1.5 5.2 3.1 5.7 13.3 5.7 13.3 1 7.2 5.9 6.2 5.9 6.2 5.4 4.4 5.7 2.1 5.7 2.1 0.6 2.3 3.3 3 3.3 3 3.3 5 4.5 1.7 4.5 1.7l5.4 3.9c0.9 1.1-0.9 0.8-0.9 0.8s-0.6 2.4 2.7-1.1C156.8 118.5 153.9 118.4 153.9 118.4z"/><path class="st2" d="M105.8 76.1c0.4 0 0.7-0.3 0.6-0.7C101.6 53 91.2 54.6 91.2 54.6c-13.9 1.8-19.5 1.8-30.8 0C50.3 53 45.9 71.5 45.1 75.4c-0.1 0.4 0.2 0.7 0.6 0.7 3.2-0.2 15.5-0.9 22.2 0.2 0.4 0.1 0.9 0.1 1.3 0.2l0 0c0 0 2.5 0.6 3.3 5.2 0.1 0.5 0.4 1.2 0.7 1.7 3.8 5.9 1.7 93.3 3.5 93.3 1.8 0-0.4-87.6 3.7-93 0.4-0.5 0.5-1.1 0.6-1.7 0.2-1.4 1.5-5.1 4.5-5.6C94.8 75.1 103.2 75.8 105.8 76.1z"/><path class="st1" d="M66.4 65.8c-0.8-1.3 1.2-2.6 2-1.3C69.3 65.8 67.3 67.1 66.4 65.8L66.4 65.8z"/><path class="st1" d="M66.7 58.8c-0.8-1.3 1.2-2.6 2-1.3C69.5 58.8 67.5 60.1 66.7 58.8L66.7 58.8z"/><path class="st1" d="M55.8 61.7c-0.8-1.3 1.2-2.6 2-1.3C58.7 61.7 56.7 63 55.8 61.7L55.8 61.7z"/><path class="st1" d="M85.6 64.4c-0.8-1.3 1.2-2.6 2-1.3C88.4 64.4 86.4 65.7 85.6 64.4L85.6 64.4z"/><path class="st1" d="M90.6 59.2c-0.8-1.3 1.2-2.6 2-1.3C93.4 59.2 91.4 60.5 90.6 59.2L90.6 59.2z"/><path class="st1" d="M93 70.6c-0.8-1.3 1.2-2.6 2-1.3C95.8 70.6 93.8 71.9 93 70.6L93 70.6z"/><path class="st1" d="M99.6 73c-0.8-1.3 1.2-2.6 2-1.3C102.5 73 100.5 74.3 99.6 73L99.6 73z"/><path class="st1" d="M97.2 64.4c-0.8-1.3 1.2-2.6 2-1.3C100.1 64.4 98.1 65.7 97.2 64.4L97.2 64.4z"/><path class="st1" d="M100 58.7c-0.8-1.3 1.2-2.6 2-1.3C102.9 58.7 100.9 60 100 58.7L100 58.7z"/><path class="st1" d="M71.6 73.4c-0.8-1.3 1.2-2.6 2-1.3C74.5 73.4 72.5 74.7 71.6 73.4L71.6 73.4z"/><path class="st1" d="M77.7 53c-0.9-1.3 1.1-2.6 2-1.3C80.6 53 78.6 54.3 77.7 53L77.7 53z"/><path class="st1" d="M59 70.6c-0.8-1.3 1.2-2.6 2-1.3C61.8 70.6 59.8 71.9 59 70.6L59 70.6z"/><path class="st1" d="M75.2 80.8c-0.8-1.3 1.2-2.6 2-1.3C78.1 80.8 76.1 82.1 75.2 80.8L75.2 80.8z"/><path class="st1" d="M81.3 71.8c-0.8-1.3 1.2-2.6 2-1.3C84.2 71.8 82.2 73.1 81.3 71.8L81.3 71.8z"/><path class="st1" d="M76 64.4c-0.8-1.3 1.2-2.6 2-1.3C78.8 64.4 76.9 65.7 76 64.4L76 64.4z"/><path class="st1" d="M50.5 72.6c-0.8-1.3 1.2-2.6 2-1.3C53.3 72.6 51.3 73.9 50.5 72.6L50.5 72.6z"/><path class="st1" d="M44.7 65.8c-0.8-1.3 1.2-2.6 2-1.3C47.5 65.8 45.5 67.1 44.7 65.8L44.7 65.8z"/></svg>